%TF.GenerationSoftware,Altium Limited,Altium Designer,21.7.2 (23)*%
G04 Layer_Color=2752767*
%FSLAX24Y24*%
%MOIN*%
%TF.SameCoordinates,F115D885-3665-466D-A638-D1939FCD3409*%
%TF.FilePolarity,Positive*%
%TF.FileFunction,Drawing*%
%TF.Part,Single*%
G01*
G75*
%TA.AperFunction,NonConductor*%
%ADD76C,0.0050*%
%ADD156C,0.0067*%
D76*
X34784Y23162D02*
Y23562D01*
X35184D01*
Y23162D01*
X34784D01*
X35784D02*
Y23562D01*
X36184D01*
Y23162D01*
X35784D01*
X34784Y22162D02*
Y22562D01*
X35184D01*
Y22162D01*
X34784D01*
X35784D02*
Y22562D01*
X36184D01*
Y22162D01*
X35784D01*
X34784Y21162D02*
Y21562D01*
X35184D01*
Y21162D01*
X34784D01*
X35784D02*
Y21562D01*
X36184D01*
Y21162D01*
X35784D01*
X13366Y32241D02*
X13166Y32641D01*
X13566D01*
X13366Y32241D01*
Y31257D02*
X13166Y31657D01*
X13566D01*
X13366Y31257D01*
X18957Y32162D02*
X18757Y32562D01*
X19157D01*
X18957Y32162D01*
Y31178D02*
X18757Y31578D01*
X19157D01*
X18957Y31178D01*
X7559Y32123D02*
X7359Y32523D01*
X7759D01*
X7559Y32123D01*
Y31139D02*
X7359Y31539D01*
X7759D01*
X7559Y31139D01*
X26488Y36355D02*
X26588Y36455D01*
X26688D01*
X26588Y36555D01*
X26688Y36655D01*
X26588D01*
X26488Y36755D01*
X26388Y36655D01*
X26288D01*
X26388Y36555D01*
X26288Y36455D01*
X26388D01*
X26488Y36355D01*
X30913D02*
X31013Y36455D01*
X31113D01*
X31013Y36555D01*
X31113Y36655D01*
X31013D01*
X30913Y36755D01*
X30813Y36655D01*
X30713D01*
X30813Y36555D01*
X30713Y36455D01*
X30813D01*
X30913Y36355D01*
X26288Y34780D02*
X26388Y34980D01*
X26288Y35180D01*
X26488Y35080D01*
X26688Y35180D01*
X26588Y34980D01*
X26688Y34780D01*
X26488Y34880D01*
X26288Y34780D01*
X30713D02*
X30813Y34980D01*
X30713Y35180D01*
X30913Y35080D01*
X31113Y35180D01*
X31013Y34980D01*
X31113Y34780D01*
X30913Y34880D01*
X30713Y34780D01*
X24862Y32083D02*
X24662Y32483D01*
X25062D01*
X24862Y32083D01*
Y31099D02*
X24662Y31499D01*
X25062D01*
X24862Y31099D01*
X10569Y25888D02*
Y25788D01*
X10769D01*
Y25888D01*
X10869D01*
Y26088D01*
X10769D01*
Y26188D01*
X10569D01*
Y26088D01*
X10469D01*
Y25888D01*
X10569D01*
Y25388D02*
Y25288D01*
X10769D01*
Y25388D01*
X10869D01*
Y25588D01*
X10769D01*
Y25688D01*
X10569D01*
Y25588D01*
X10469D01*
Y25388D01*
X10569D01*
Y24888D02*
Y24788D01*
X10769D01*
Y24888D01*
X10869D01*
Y25088D01*
X10769D01*
Y25188D01*
X10569D01*
Y25088D01*
X10469D01*
Y24888D01*
X10569D01*
Y24388D02*
Y24288D01*
X10769D01*
Y24388D01*
X10869D01*
Y24588D01*
X10769D01*
Y24688D01*
X10569D01*
Y24588D01*
X10469D01*
Y24388D01*
X10569D01*
X10530Y16792D02*
Y16692D01*
X10730D01*
Y16792D01*
X10830D01*
Y16992D01*
X10730D01*
Y17092D01*
X10530D01*
Y16992D01*
X10430D01*
Y16792D01*
X10530D01*
Y16292D02*
Y16192D01*
X10730D01*
Y16292D01*
X10830D01*
Y16492D01*
X10730D01*
Y16592D01*
X10530D01*
Y16492D01*
X10430D01*
Y16292D01*
X10530D01*
Y15792D02*
Y15692D01*
X10730D01*
Y15792D01*
X10830D01*
Y15992D01*
X10730D01*
Y16092D01*
X10530D01*
Y15992D01*
X10430D01*
Y15792D01*
X10530D01*
Y15292D02*
Y15192D01*
X10730D01*
Y15292D01*
X10830D01*
Y15492D01*
X10730D01*
Y15592D01*
X10530D01*
Y15492D01*
X10430D01*
Y15292D01*
X10530D01*
X35233Y1769D02*
X35333D01*
X35433Y1868D01*
X35533Y1769D01*
X35633D01*
Y1868D01*
X35533Y1969D01*
X35633Y2069D01*
Y2168D01*
X35533D01*
X35433Y2069D01*
X35333Y2168D01*
X35233D01*
Y2069D01*
X35333Y1969D01*
X35233Y1868D01*
Y1769D01*
X1769D02*
X1868D01*
X1969Y1868D01*
X2069Y1769D01*
X2168D01*
Y1868D01*
X2069Y1969D01*
X2168Y2069D01*
Y2168D01*
X2069D01*
X1969Y2069D01*
X1868Y2168D01*
X1769D01*
Y2069D01*
X1868Y1969D01*
X1769Y1868D01*
Y1769D01*
Y35233D02*
X1868D01*
X1969Y35333D01*
X2069Y35233D01*
X2168D01*
Y35333D01*
X2069Y35433D01*
X2168Y35533D01*
Y35633D01*
X2069D01*
X1969Y35533D01*
X1868Y35633D01*
X1769D01*
Y35533D01*
X1868Y35433D01*
X1769Y35333D01*
Y35233D01*
X35233D02*
X35333D01*
X35433Y35333D01*
X35533Y35233D01*
X35633D01*
Y35333D01*
X35533Y35433D01*
X35633Y35533D01*
Y35633D01*
X35533D01*
X35433Y35533D01*
X35333Y35633D01*
X35233D01*
Y35533D01*
X35333Y35433D01*
X35233Y35333D01*
Y35233D01*
X6693Y8146D02*
X6493Y8546D01*
X6893D01*
X6693Y8146D01*
X5709D02*
X5509Y8546D01*
X5909D01*
X5709Y8146D01*
X30706Y6299D02*
X30906Y6499D01*
X31106Y6299D01*
X30906Y6099D01*
X30706Y6299D01*
X33343Y6220D02*
X33543Y6420D01*
X33743Y6220D01*
X33543Y6020D01*
X33343Y6220D01*
X32517Y5154D02*
Y5554D01*
X32917D01*
Y5154D01*
X32517D01*
X32597Y5234D02*
Y5474D01*
X32837D01*
Y5234D01*
X32597D01*
X31611Y4052D02*
Y4452D01*
X32011D01*
Y4052D01*
X31611D01*
X31691Y4132D02*
Y4372D01*
X31931D01*
Y4132D01*
X31691D01*
X33383Y4839D02*
Y5239D01*
X33783D01*
Y4839D01*
X33383D01*
X33463Y4919D02*
Y5159D01*
X33703D01*
Y4919D01*
X33463D01*
X28383Y34134D02*
X28583Y34334D01*
X28783Y34134D01*
X28583Y33934D01*
X28383Y34134D01*
X30509Y3937D02*
X30709Y4137D01*
X30909Y3937D01*
X30709Y3737D01*
X30509Y3937D01*
X32556Y3583D02*
X32756Y3783D01*
X32956Y3583D01*
X32756Y3383D01*
X32556Y3583D01*
X30233Y5512D02*
X30433Y5712D01*
X30633Y5512D01*
X30433Y5312D01*
X30233Y5512D01*
X29524Y4094D02*
X29724Y4294D01*
X29924Y4094D01*
X29724Y3894D01*
X29524Y4094D01*
X30351Y2047D02*
X30551Y2247D01*
X30751Y2047D01*
X30551Y1847D01*
X30351Y2047D01*
X27044Y7835D02*
X27244Y8035D01*
X27444Y7835D01*
X27244Y7635D01*
X27044Y7835D01*
X26926Y7087D02*
X27126Y7287D01*
X27326Y7087D01*
X27126Y6887D01*
X26926Y7087D01*
X27320Y7126D02*
X27520Y7326D01*
X27720Y7126D01*
X27520Y6926D01*
X27320Y7126D01*
X29603Y4567D02*
X29803Y4767D01*
X30003Y4567D01*
X29803Y4367D01*
X29603Y4567D01*
X21192Y6933D02*
X21392Y7133D01*
X21592Y6933D01*
X21392Y6733D01*
X21192Y6933D01*
X28501Y11968D02*
X28701Y12169D01*
X28901Y11968D01*
X28701Y11768D01*
X28501Y11968D01*
X31769Y11929D02*
X31969Y12129D01*
X32169Y11929D01*
X31969Y11729D01*
X31769Y11929D01*
Y15039D02*
X31969Y15239D01*
X32169Y15039D01*
X31969Y14839D01*
X31769Y15039D01*
X28107Y11496D02*
X28307Y11696D01*
X28507Y11496D01*
X28307Y11296D01*
X28107Y11496D01*
X28501Y9961D02*
X28701Y10161D01*
X28901Y9961D01*
X28701Y9761D01*
X28501Y9961D01*
X35238Y14365D02*
X35438Y14565D01*
X35638Y14365D01*
X35438Y14165D01*
X35238Y14365D01*
X8107Y669D02*
X8307Y869D01*
X8507Y669D01*
X8307Y469D01*
X8107Y669D01*
X7742Y4316D02*
X7942Y4516D01*
X8142Y4316D01*
X7942Y4116D01*
X7742Y4316D01*
X7635Y7992D02*
X7835Y8192D01*
X8035Y7992D01*
X7835Y7792D01*
X7635Y7992D01*
X22817Y5372D02*
X23017Y5572D01*
X23217Y5372D01*
X23017Y5172D01*
X22817Y5372D01*
X28894Y4449D02*
X29094Y4649D01*
X29294Y4449D01*
X29094Y4249D01*
X28894Y4449D01*
X31454Y15315D02*
X31654Y15515D01*
X31854Y15315D01*
X31654Y15115D01*
X31454Y15315D01*
X31020Y15748D02*
X31220Y15948D01*
X31420Y15748D01*
X31220Y15548D01*
X31020Y15748D01*
X28501Y10984D02*
X28701Y11184D01*
X28901Y10984D01*
X28701Y10784D01*
X28501Y10984D01*
X30666Y11063D02*
X30866Y11263D01*
X31066Y11063D01*
X30866Y10863D01*
X30666Y11063D01*
X29013Y7441D02*
X29213Y7641D01*
X29413Y7441D01*
X29213Y7241D01*
X29013Y7441D01*
X29879Y9921D02*
X30079Y10121D01*
X30279Y9921D01*
X30079Y9721D01*
X29879Y9921D01*
X28009Y7988D02*
X28209Y8188D01*
X28409Y7988D01*
X28209Y7788D01*
X28009Y7988D01*
X27083Y16024D02*
X27283Y16224D01*
X27483Y16024D01*
X27283Y15824D01*
X27083Y16024D01*
X27635Y16339D02*
X27835Y16539D01*
X28035Y16339D01*
X27835Y16139D01*
X27635Y16339D01*
X28973Y9488D02*
X29173Y9688D01*
X29373Y9488D01*
X29173Y9288D01*
X28973Y9488D01*
X27910Y8465D02*
X28110Y8665D01*
X28310Y8465D01*
X28110Y8265D01*
X27910Y8465D01*
X27133Y15177D02*
X27333Y15377D01*
X27533Y15177D01*
X27333Y14977D01*
X27133Y15177D01*
X27123Y9488D02*
X27323Y9688D01*
X27523Y9488D01*
X27323Y9288D01*
X27123Y9488D01*
X25882Y11369D02*
X26082Y11569D01*
X26282Y11369D01*
X26082Y11169D01*
X25882Y11369D01*
X26375Y8701D02*
X26575Y8901D01*
X26775Y8701D01*
X26575Y8501D01*
X26375Y8701D01*
X18973Y9134D02*
X19173Y9334D01*
X19373Y9134D01*
X19173Y8934D01*
X18973Y9134D01*
X21257Y5512D02*
X21457Y5712D01*
X21657Y5512D01*
X21457Y5312D01*
X21257Y5512D01*
X19603Y5551D02*
X19803Y5751D01*
X20003Y5551D01*
X19803Y5351D01*
X19603Y5551D01*
X18855Y9488D02*
X19055Y9688D01*
X19255Y9488D01*
X19055Y9288D01*
X18855Y9488D01*
Y11024D02*
X19055Y11224D01*
X19255Y11024D01*
X19055Y10824D01*
X18855Y11024D01*
X18973Y6614D02*
X19173Y6814D01*
X19373Y6614D01*
X19173Y6414D01*
X18973Y6614D01*
X17583Y11260D02*
X17783Y11460D01*
X17983Y11260D01*
X17783Y11060D01*
X17583Y11260D01*
X18540Y7441D02*
X18740Y7641D01*
X18940Y7441D01*
X18740Y7241D01*
X18540Y7441D01*
X22314Y5496D02*
X22514Y5696D01*
X22714Y5496D01*
X22514Y5296D01*
X22314Y5496D01*
X17517Y9173D02*
X17717Y9373D01*
X17917Y9173D01*
X17717Y8973D01*
X17517Y9173D01*
X16729Y11181D02*
X16929Y11381D01*
X17129Y11181D01*
X16929Y10981D01*
X16729Y11181D01*
X17635Y16024D02*
X17835Y16224D01*
X18035Y16024D01*
X17835Y15824D01*
X17635Y16024D01*
X19761Y15433D02*
X19961Y15633D01*
X20161Y15433D01*
X19961Y15233D01*
X19761Y15433D01*
X23461Y12126D02*
X23661Y12326D01*
X23861Y12126D01*
X23661Y11926D01*
X23461Y12126D01*
X19903Y8689D02*
X20103Y8889D01*
X20303Y8689D01*
X20103Y8489D01*
X19903Y8689D01*
X17438Y8858D02*
X17638Y9058D01*
X17838Y8858D01*
X17638Y8658D01*
X17438Y8858D01*
X16375Y11496D02*
X16575Y11696D01*
X16775Y11496D01*
X16575Y11296D01*
X16375Y11496D01*
X17398Y16339D02*
X17598Y16539D01*
X17798Y16339D01*
X17598Y16139D01*
X17398Y16339D01*
X25391Y11496D02*
X25591Y11696D01*
X25791Y11496D01*
X25591Y11296D01*
X25391Y11496D01*
X22912Y13625D02*
X23112Y13825D01*
X23312Y13625D01*
X23112Y13425D01*
X22912Y13625D01*
X22736Y13394D02*
X22936Y13594D01*
X23136Y13394D01*
X22936Y13194D01*
X22736Y13394D01*
X19721Y15945D02*
X19921Y16145D01*
X20121Y15945D01*
X19921Y15745D01*
X19721Y15945D01*
X21011Y8456D02*
X21211Y8656D01*
X21411Y8456D01*
X21211Y8256D01*
X21011Y8456D01*
X16690Y8622D02*
X16890Y8822D01*
X17090Y8622D01*
X16890Y8422D01*
X16690Y8622D01*
X16296Y8661D02*
X16496Y8861D01*
X16696Y8661D01*
X16496Y8461D01*
X16296Y8661D01*
X15946Y12012D02*
X16146Y12212D01*
X16346Y12012D01*
X16146Y11812D01*
X15946Y12012D01*
X17280Y18307D02*
X17480Y18507D01*
X17680Y18307D01*
X17480Y18107D01*
X17280Y18307D01*
X20981Y8976D02*
X21181Y9176D01*
X21381Y8976D01*
X21181Y8776D01*
X20981Y8976D01*
X10745Y12362D02*
X10945Y12562D01*
X11145Y12362D01*
X10945Y12162D01*
X10745Y12362D01*
X13304Y8580D02*
Y8980D01*
X13704D01*
Y8580D01*
X13304D01*
X13384Y8660D02*
Y8900D01*
X13624D01*
Y8660D01*
X13384D01*
X13501Y8383D02*
Y8783D01*
X13901D01*
Y8383D01*
X13501D01*
X13581Y8463D02*
Y8703D01*
X13821D01*
Y8463D01*
X13581D01*
X13501Y8580D02*
Y8980D01*
X13901D01*
Y8580D01*
X13501D01*
X13581Y8660D02*
Y8900D01*
X13821D01*
Y8660D01*
X13581D01*
X13304Y8383D02*
Y8783D01*
X13704D01*
Y8383D01*
X13304D01*
X13384Y8463D02*
Y8703D01*
X13624D01*
Y8463D01*
X13384D01*
X15548Y7950D02*
Y8350D01*
X15948D01*
Y7950D01*
X15548D01*
X15628Y8030D02*
Y8270D01*
X15868D01*
Y8030D01*
X15628D01*
X15548Y7713D02*
Y8113D01*
X15948D01*
Y7713D01*
X15548D01*
X15628Y7793D02*
Y8033D01*
X15868D01*
Y7793D01*
X15628D01*
X15548Y8186D02*
Y8586D01*
X15948D01*
Y8186D01*
X15548D01*
X15628Y8266D02*
Y8506D01*
X15868D01*
Y8266D01*
X15628D01*
X29751Y16393D02*
X29951Y16593D01*
X30151Y16393D01*
X29951Y16193D01*
X29751Y16393D01*
X28894Y13898D02*
X29094Y14098D01*
X29294Y13898D01*
X29094Y13698D01*
X28894Y13898D01*
X29761Y16811D02*
X29961Y17011D01*
X30161Y16811D01*
X29961Y16611D01*
X29761Y16811D01*
X20902Y8031D02*
X21102Y8231D01*
X21302Y8031D01*
X21102Y7832D01*
X20902Y8031D01*
X15666Y12362D02*
X15866Y12562D01*
X16066Y12362D01*
X15866Y12162D01*
X15666Y12362D01*
X17320Y18701D02*
X17520Y18901D01*
X17720Y18701D01*
X17520Y18501D01*
X17320Y18701D01*
X21772Y12878D02*
X21972Y13078D01*
X22172Y12878D01*
X21972Y12678D01*
X21772Y12878D01*
X22910Y12126D02*
X23110Y12326D01*
X23310Y12126D01*
X23110Y11926D01*
X22910Y12126D01*
X21887Y12441D02*
X22087Y12641D01*
X22287Y12441D01*
X22087Y12241D01*
X21887Y12441D01*
X19249Y19016D02*
X19449Y19216D01*
X19649Y19016D01*
X19449Y18816D01*
X19249Y19016D01*
X19564Y18622D02*
X19764Y18822D01*
X19964Y18622D01*
X19764Y18422D01*
X19564Y18622D01*
X20587Y1570D02*
X20787Y1770D01*
X20987Y1570D01*
X20787Y1370D01*
X20587Y1570D01*
X20974Y10988D02*
X21174Y11188D01*
X21374Y10988D01*
X21174Y10788D01*
X20974Y10988D01*
X17320Y11063D02*
X17520Y11263D01*
X17720Y11063D01*
X17520Y10863D01*
X17320Y11063D01*
X20942Y10472D02*
X21142Y10672D01*
X21342Y10472D01*
X21142Y10272D01*
X20942Y10472D01*
X15000Y27657D02*
X15200Y27857D01*
X15400Y27657D01*
X15200Y27457D01*
X15000Y27657D01*
X15029Y29910D02*
X15229Y30110D01*
X15429Y29910D01*
X15229Y29710D01*
X15029Y29910D01*
X13894Y35551D02*
X14094Y35751D01*
X14294Y35551D01*
X14094Y35351D01*
X13894Y35551D01*
X14643Y27677D02*
X14843Y27877D01*
X15043Y27677D01*
X14843Y27477D01*
X14643Y27677D01*
Y29921D02*
X14843Y30121D01*
X15043Y29921D01*
X14843Y29721D01*
X14643Y29921D01*
X13619Y35276D02*
X13819Y35476D01*
X14019Y35276D01*
X13819Y35076D01*
X13619Y35276D01*
X11493Y23110D02*
X11693Y23310D01*
X11893Y23110D01*
X11693Y22910D01*
X11493Y23110D01*
X7910Y23898D02*
X8110Y24098D01*
X8310Y23898D01*
X8110Y23698D01*
X7910Y23898D01*
X6257Y23307D02*
X6457Y23507D01*
X6657Y23307D01*
X6457Y23107D01*
X6257Y23307D01*
X7910Y23465D02*
X8110Y23665D01*
X8310Y23465D01*
X8110Y23265D01*
X7910Y23465D01*
X11414Y22756D02*
X11614Y22956D01*
X11814Y22756D01*
X11614Y22556D01*
X11414Y22756D01*
X9879Y22402D02*
X10079Y22602D01*
X10279Y22402D01*
X10079Y22202D01*
X9879Y22402D01*
X11532Y18465D02*
X11732Y18665D01*
X11932Y18465D01*
X11732Y18265D01*
X11532Y18465D01*
X8107Y18110D02*
X8307Y18310D01*
X8507Y18110D01*
X8307Y17910D01*
X8107Y18110D01*
X7162Y18186D02*
Y18586D01*
X7562D01*
Y18186D01*
X7162D01*
X7242Y18266D02*
Y18506D01*
X7482D01*
Y18266D01*
X7242D01*
X6650Y17835D02*
X6850Y18035D01*
X7050Y17835D01*
X6850Y17635D01*
X6650Y17835D01*
X7978Y20523D02*
X8178Y20723D01*
X8378Y20523D01*
X8178Y20323D01*
X7978Y20523D01*
X29997Y28189D02*
X30197Y28389D01*
X30397Y28189D01*
X30197Y27989D01*
X29997Y28189D01*
X24328Y28150D02*
X24528Y28350D01*
X24728Y28150D01*
X24528Y27950D01*
X24328Y28150D01*
X7989Y19685D02*
X8189Y19885D01*
X8389Y19685D01*
X8189Y19485D01*
X7989Y19685D01*
X7950Y20157D02*
X8150Y20357D01*
X8350Y20157D01*
X8150Y19957D01*
X7950Y20157D01*
X6650Y18976D02*
X6850Y19176D01*
X7050Y18976D01*
X6850Y18776D01*
X6650Y18976D01*
X2300Y15730D02*
X2500Y15930D01*
X2700Y15730D01*
X2500Y15530D01*
X2300Y15730D01*
X2556Y16732D02*
X2756Y16932D01*
X2956Y16732D01*
X2756Y16532D01*
X2556Y16732D01*
X2123Y16929D02*
X2323Y17129D01*
X2523Y16929D01*
X2323Y16729D01*
X2123Y16929D01*
X25627Y8307D02*
X25827Y8507D01*
X26027Y8307D01*
X25827Y8107D01*
X25627Y8307D01*
X26060Y8268D02*
X26260Y8468D01*
X26460Y8268D01*
X26260Y8068D01*
X26060Y8268D01*
X6257Y22008D02*
X6457Y22208D01*
X6657Y22008D01*
X6457Y21808D01*
X6257Y22008D01*
X1965Y22283D02*
X2165Y22483D01*
X2365Y22283D01*
X2165Y22083D01*
X1965Y22283D01*
Y21496D02*
X2165Y21696D01*
X2365Y21496D01*
X2165Y21296D01*
X1965Y21496D01*
Y22677D02*
X2165Y22877D01*
X2365Y22677D01*
X2165Y22477D01*
X1965Y22677D01*
X2005Y26378D02*
X2205Y26578D01*
X2405Y26378D01*
X2205Y26178D01*
X2005Y26378D01*
X6020Y27283D02*
X6220Y27483D01*
X6420Y27283D01*
X6220Y27083D01*
X6020Y27283D01*
X4471Y28142D02*
Y28542D01*
X4871D01*
Y28142D01*
X4471D01*
X4551Y28222D02*
Y28462D01*
X4791D01*
Y28222D01*
X4551D01*
X4971Y28142D02*
Y28542D01*
X5371D01*
Y28142D01*
X4971D01*
X5051Y28222D02*
Y28462D01*
X5291D01*
Y28222D01*
X5051D01*
X3580Y6926D02*
Y7326D01*
X3980D01*
Y6926D01*
X3580D01*
X3660Y7006D02*
Y7246D01*
X3900D01*
Y7006D01*
X3660D01*
X8816Y8934D02*
Y9334D01*
X9216D01*
Y8934D01*
X8816D01*
X8896Y9014D02*
Y9254D01*
X9136D01*
Y9014D01*
X8896D01*
X9013Y8934D02*
Y9334D01*
X9413D01*
Y8934D01*
X9013D01*
X9093Y9014D02*
Y9254D01*
X9333D01*
Y9014D01*
X9093D01*
X9209Y8934D02*
Y9334D01*
X9609D01*
Y8934D01*
X9209D01*
X9289Y9014D02*
Y9254D01*
X9529D01*
Y9014D01*
X9289D01*
X2005Y25984D02*
X2205Y26184D01*
X2405Y25984D01*
X2205Y25784D01*
X2005Y25984D01*
X2083Y25197D02*
X2283Y25397D01*
X2483Y25197D01*
X2283Y24997D01*
X2083Y25197D01*
X23894Y36339D02*
X24094Y36539D01*
X24294Y36339D01*
X24094Y36139D01*
X23894Y36339D01*
X19800Y35866D02*
X20000Y36066D01*
X20200Y35866D01*
X20000Y35666D01*
X19800Y35866D01*
X14682Y36417D02*
X14882Y36617D01*
X15082Y36417D01*
X14882Y36217D01*
X14682Y36417D01*
X12627Y36236D02*
X12827Y36436D01*
X13027Y36236D01*
X12827Y36036D01*
X12627Y36236D01*
X8265Y35551D02*
X8465Y35751D01*
X8665Y35551D01*
X8465Y35351D01*
X8265Y35551D01*
X5942Y34685D02*
X6142Y34885D01*
X6342Y34685D01*
X6142Y34485D01*
X5942Y34685D01*
X14923Y35989D02*
X15123Y36189D01*
X15323Y35989D01*
X15123Y35789D01*
X14923Y35989D01*
X12713Y35591D02*
X12913Y35791D01*
X13113Y35591D01*
X12913Y35391D01*
X12713Y35591D01*
X9209Y34997D02*
Y35397D01*
X9609D01*
Y34997D01*
X9209D01*
X9289Y35077D02*
Y35317D01*
X9529D01*
Y35077D01*
X9289D01*
X16144Y27945D02*
Y28345D01*
X16544D01*
Y27945D01*
X16144D01*
X16224Y28025D02*
Y28265D01*
X16464D01*
Y28025D01*
X16224D01*
X11237Y28110D02*
X11437Y28310D01*
X11637Y28110D01*
X11437Y27910D01*
X11237Y28110D01*
X16644Y27945D02*
Y28345D01*
X17044D01*
Y27945D01*
X16644D01*
X16724Y28025D02*
Y28265D01*
X16964D01*
Y28025D01*
X16724D01*
X11794Y28858D02*
X11994Y29058D01*
X12194Y28858D01*
X11994Y28658D01*
X11794Y28858D01*
X17627Y28661D02*
X17827Y28861D01*
X18027Y28661D01*
X17827Y28461D01*
X17627Y28661D01*
X5471Y28142D02*
Y28542D01*
X5871D01*
Y28142D01*
X5471D01*
X5551Y28222D02*
Y28462D01*
X5791D01*
Y28222D01*
X5551D01*
X10739Y28063D02*
Y28463D01*
X11139D01*
Y28063D01*
X10739D01*
X10819Y28143D02*
Y28383D01*
X11059D01*
Y28143D01*
X10819D01*
X10239Y28063D02*
Y28463D01*
X10639D01*
Y28063D01*
X10239D01*
X10319Y28143D02*
Y28383D01*
X10559D01*
Y28143D01*
X10319D01*
X23206Y28504D02*
X23406Y28704D01*
X23606Y28504D01*
X23406Y28304D01*
X23206Y28504D01*
X22259Y27947D02*
Y28347D01*
X22659D01*
Y27947D01*
X22259D01*
X22339Y28027D02*
Y28267D01*
X22579D01*
Y28027D01*
X22339D01*
X21759Y27947D02*
Y28347D01*
X22159D01*
Y27947D01*
X21759D01*
X21839Y28027D02*
Y28267D01*
X22079D01*
Y28027D01*
X21839D01*
X15548Y6532D02*
Y6932D01*
X15948D01*
Y6532D01*
X15548D01*
X15628Y6612D02*
Y6852D01*
X15868D01*
Y6612D01*
X15628D01*
X15548Y6769D02*
Y7168D01*
X15948D01*
Y6769D01*
X15548D01*
X15628Y6848D02*
Y7089D01*
X15868D01*
Y6848D01*
X15628D01*
X15548Y7005D02*
Y7405D01*
X15948D01*
Y7005D01*
X15548D01*
X15628Y7085D02*
Y7325D01*
X15868D01*
Y7085D01*
X15628D01*
X15548Y7241D02*
Y7641D01*
X15948D01*
Y7241D01*
X15548D01*
X15628Y7321D02*
Y7561D01*
X15868D01*
Y7321D01*
X15628D01*
X15548Y7477D02*
Y7877D01*
X15948D01*
Y7477D01*
X15548D01*
X15628Y7557D02*
Y7797D01*
X15868D01*
Y7557D01*
X15628D01*
X15391Y8383D02*
Y8783D01*
X15791D01*
Y8383D01*
X15391D01*
X15471Y8463D02*
Y8703D01*
X15711D01*
Y8463D01*
X15471D01*
X15233Y8540D02*
Y8940D01*
X15633D01*
Y8540D01*
X15233D01*
X15313Y8620D02*
Y8860D01*
X15553D01*
Y8620D01*
X15313D01*
X15076Y8698D02*
Y9098D01*
X15476D01*
Y8698D01*
X15076D01*
X15156Y8778D02*
Y9018D01*
X15396D01*
Y8778D01*
X15156D01*
X14918Y8894D02*
Y9294D01*
X15318D01*
Y8894D01*
X14918D01*
X14998Y8974D02*
Y9214D01*
X15238D01*
Y8974D01*
X14998D01*
X14761Y9052D02*
Y9452D01*
X15161D01*
Y9052D01*
X14761D01*
X14841Y9132D02*
Y9372D01*
X15081D01*
Y9132D01*
X14841D01*
X14603Y9209D02*
Y9609D01*
X15003D01*
Y9209D01*
X14603D01*
X14683Y9289D02*
Y9529D01*
X14923D01*
Y9289D01*
X14683D01*
X14446Y9367D02*
Y9767D01*
X14846D01*
Y9367D01*
X14446D01*
X14526Y9447D02*
Y9687D01*
X14766D01*
Y9447D01*
X14526D01*
X11178Y8934D02*
Y9334D01*
X11578D01*
Y8934D01*
X11178D01*
X11258Y9014D02*
Y9254D01*
X11498D01*
Y9014D01*
X11258D01*
X9406Y8934D02*
Y9334D01*
X9806D01*
Y8934D01*
X9406D01*
X9486Y9014D02*
Y9254D01*
X9726D01*
Y9014D01*
X9486D01*
X9603Y8934D02*
Y9334D01*
X10003D01*
Y8934D01*
X9603D01*
X9683Y9014D02*
Y9254D01*
X9923D01*
Y9014D01*
X9683D01*
X9800Y8934D02*
Y9334D01*
X10200D01*
Y8934D01*
X9800D01*
X9880Y9014D02*
Y9254D01*
X10120D01*
Y9014D01*
X9880D01*
X9997Y8934D02*
Y9334D01*
X10397D01*
Y8934D01*
X9997D01*
X10077Y9014D02*
Y9254D01*
X10317D01*
Y9014D01*
X10077D01*
X10194Y8934D02*
Y9334D01*
X10594D01*
Y8934D01*
X10194D01*
X10274Y9014D02*
Y9254D01*
X10514D01*
Y9014D01*
X10274D01*
X10391Y8934D02*
Y9334D01*
X10791D01*
Y8934D01*
X10391D01*
X10471Y9014D02*
Y9254D01*
X10711D01*
Y9014D01*
X10471D01*
X10587Y8934D02*
Y9334D01*
X10987D01*
Y8934D01*
X10587D01*
X10667Y9014D02*
Y9254D01*
X10907D01*
Y9014D01*
X10667D01*
X10784Y8934D02*
Y9334D01*
X11184D01*
Y8934D01*
X10784D01*
X10864Y9014D02*
Y9254D01*
X11104D01*
Y9014D01*
X10864D01*
X10981Y8934D02*
Y9334D01*
X11381D01*
Y8934D01*
X10981D01*
X11061Y9014D02*
Y9254D01*
X11301D01*
Y9014D01*
X11061D01*
X28737Y14213D02*
X28937Y14413D01*
X29137Y14213D01*
X28937Y14013D01*
X28737Y14213D01*
X28343Y14409D02*
X28543Y14609D01*
X28743Y14409D01*
X28543Y14209D01*
X28343Y14409D01*
X14603Y4091D02*
Y4491D01*
X15003D01*
Y4091D01*
X14603D01*
X14683Y4171D02*
Y4411D01*
X14923D01*
Y4171D01*
X14683D01*
X21139Y4494D02*
X21339Y4694D01*
X21539Y4494D01*
X21339Y4294D01*
X21139Y4494D01*
X22708Y3227D02*
X22908Y3427D01*
X23108Y3227D01*
X22908Y3027D01*
X22708Y3227D01*
X27871Y3346D02*
X28071Y3546D01*
X28271Y3346D01*
X28071Y3146D01*
X27871Y3346D01*
X11965Y1378D02*
X12165Y1578D01*
X12365Y1378D01*
X12165Y1178D01*
X11965Y1378D01*
X13698Y8580D02*
Y8980D01*
X14098D01*
Y8580D01*
X13698D01*
X13778Y8660D02*
Y8900D01*
X14018D01*
Y8660D01*
X13778D01*
X13698Y8383D02*
Y8783D01*
X14098D01*
Y8383D01*
X13698D01*
X13778Y8463D02*
Y8703D01*
X14018D01*
Y8463D01*
X13778D01*
X11611Y9052D02*
Y9452D01*
X12011D01*
Y9052D01*
X11611D01*
X11691Y9132D02*
Y9372D01*
X11931D01*
Y9132D01*
X11691D01*
X11808Y9052D02*
Y9452D01*
X12208D01*
Y9052D01*
X11808D01*
X11888Y9132D02*
Y9372D01*
X12128D01*
Y9132D01*
X11888D01*
X11611Y8461D02*
Y8861D01*
X12011D01*
Y8461D01*
X11611D01*
X11691Y8541D02*
Y8781D01*
X11931D01*
Y8541D01*
X11691D01*
X11611Y8658D02*
Y9058D01*
X12011D01*
Y8658D01*
X11611D01*
X11691Y8738D02*
Y8978D01*
X11931D01*
Y8738D01*
X11691D01*
X11611Y8855D02*
Y9255D01*
X12011D01*
Y8855D01*
X11611D01*
X11691Y8935D02*
Y9175D01*
X11931D01*
Y8935D01*
X11691D01*
X11808Y8855D02*
Y9255D01*
X12208D01*
Y8855D01*
X11808D01*
X11888Y8935D02*
Y9175D01*
X12128D01*
Y8935D01*
X11888D01*
X11808Y8658D02*
Y9058D01*
X12208D01*
Y8658D01*
X11808D01*
X11888Y8738D02*
Y8978D01*
X12128D01*
Y8738D01*
X11888D01*
X11808Y8461D02*
Y8861D01*
X12208D01*
Y8461D01*
X11808D01*
X11888Y8541D02*
Y8781D01*
X12128D01*
Y8541D01*
X11888D01*
X14603Y4288D02*
Y4688D01*
X15003D01*
Y4288D01*
X14603D01*
X14683Y4368D02*
Y4608D01*
X14923D01*
Y4368D01*
X14683D01*
X14603Y4485D02*
Y4885D01*
X15003D01*
Y4485D01*
X14603D01*
X14683Y4565D02*
Y4805D01*
X14923D01*
Y4565D01*
X14683D01*
X14603Y4682D02*
Y5082D01*
X15003D01*
Y4682D01*
X14603D01*
X14683Y4762D02*
Y5002D01*
X14923D01*
Y4762D01*
X14683D01*
X14603Y4879D02*
Y5279D01*
X15003D01*
Y4879D01*
X14603D01*
X14683Y4959D02*
Y5199D01*
X14923D01*
Y4959D01*
X14683D01*
X14603Y5076D02*
Y5476D01*
X15003D01*
Y5076D01*
X14603D01*
X14683Y5156D02*
Y5396D01*
X14923D01*
Y5156D01*
X14683D01*
X14603Y5272D02*
Y5672D01*
X15003D01*
Y5272D01*
X14603D01*
X14683Y5352D02*
Y5592D01*
X14923D01*
Y5352D01*
X14683D01*
X14603Y5469D02*
Y5869D01*
X15003D01*
Y5469D01*
X14603D01*
X14683Y5549D02*
Y5789D01*
X14923D01*
Y5549D01*
X14683D01*
X14603Y5666D02*
Y6066D01*
X15003D01*
Y5666D01*
X14603D01*
X14683Y5746D02*
Y5986D01*
X14923D01*
Y5746D01*
X14683D01*
X14603Y5863D02*
Y6263D01*
X15003D01*
Y5863D01*
X14603D01*
X14683Y5943D02*
Y6183D01*
X14923D01*
Y5943D01*
X14683D01*
X14603Y6060D02*
Y6460D01*
X15003D01*
Y6060D01*
X14603D01*
X14683Y6140D02*
Y6380D01*
X14923D01*
Y6140D01*
X14683D01*
X14603Y6257D02*
Y6657D01*
X15003D01*
Y6257D01*
X14603D01*
X14683Y6337D02*
Y6577D01*
X14923D01*
Y6337D01*
X14683D01*
X14406Y6257D02*
Y6657D01*
X14806D01*
Y6257D01*
X14406D01*
X14486Y6337D02*
Y6577D01*
X14726D01*
Y6337D01*
X14486D01*
X14406Y6060D02*
Y6460D01*
X14806D01*
Y6060D01*
X14406D01*
X14486Y6140D02*
Y6380D01*
X14726D01*
Y6140D01*
X14486D01*
X14406Y5863D02*
Y6263D01*
X14806D01*
Y5863D01*
X14406D01*
X14486Y5943D02*
Y6183D01*
X14726D01*
Y5943D01*
X14486D01*
X14406Y5666D02*
Y6066D01*
X14806D01*
Y5666D01*
X14406D01*
X14486Y5746D02*
Y5986D01*
X14726D01*
Y5746D01*
X14486D01*
X14406Y5469D02*
Y5869D01*
X14806D01*
Y5469D01*
X14406D01*
X14486Y5549D02*
Y5789D01*
X14726D01*
Y5549D01*
X14486D01*
X14406Y5272D02*
Y5672D01*
X14806D01*
Y5272D01*
X14406D01*
X14486Y5352D02*
Y5592D01*
X14726D01*
Y5352D01*
X14486D01*
X14406Y5076D02*
Y5476D01*
X14806D01*
Y5076D01*
X14406D01*
X14486Y5156D02*
Y5396D01*
X14726D01*
Y5156D01*
X14486D01*
X14406Y4879D02*
Y5279D01*
X14806D01*
Y4879D01*
X14406D01*
X14486Y4959D02*
Y5199D01*
X14726D01*
Y4959D01*
X14486D01*
X14406Y4682D02*
Y5082D01*
X14806D01*
Y4682D01*
X14406D01*
X14486Y4762D02*
Y5002D01*
X14726D01*
Y4762D01*
X14486D01*
X14406Y4485D02*
Y4885D01*
X14806D01*
Y4485D01*
X14406D01*
X14486Y4565D02*
Y4805D01*
X14726D01*
Y4565D01*
X14486D01*
X14406Y4288D02*
Y4688D01*
X14806D01*
Y4288D01*
X14406D01*
X14486Y4368D02*
Y4608D01*
X14726D01*
Y4368D01*
X14486D01*
X14406Y4091D02*
Y4491D01*
X14806D01*
Y4091D01*
X14406D01*
X14486Y4171D02*
Y4411D01*
X14726D01*
Y4171D01*
X14486D01*
X10784Y6611D02*
Y7011D01*
X11184D01*
Y6611D01*
X10784D01*
X10864Y6691D02*
Y6931D01*
X11104D01*
Y6691D01*
X10864D01*
X10784Y6414D02*
Y6814D01*
X11184D01*
Y6414D01*
X10784D01*
X10864Y6494D02*
Y6734D01*
X11104D01*
Y6494D01*
X10864D01*
X10587Y4839D02*
Y5239D01*
X10987D01*
Y4839D01*
X10587D01*
X10667Y4919D02*
Y5159D01*
X10907D01*
Y4919D01*
X10667D01*
X10587Y5036D02*
Y5436D01*
X10987D01*
Y5036D01*
X10587D01*
X10667Y5116D02*
Y5356D01*
X10907D01*
Y5116D01*
X10667D01*
X10587Y5233D02*
Y5633D01*
X10987D01*
Y5233D01*
X10587D01*
X10667Y5313D02*
Y5553D01*
X10907D01*
Y5313D01*
X10667D01*
X10587Y5430D02*
Y5830D01*
X10987D01*
Y5430D01*
X10587D01*
X10667Y5510D02*
Y5750D01*
X10907D01*
Y5510D01*
X10667D01*
X10587Y5627D02*
Y6027D01*
X10987D01*
Y5627D01*
X10587D01*
X10667Y5707D02*
Y5947D01*
X10907D01*
Y5707D01*
X10667D01*
X10587Y5824D02*
Y6224D01*
X10987D01*
Y5824D01*
X10587D01*
X10667Y5904D02*
Y6144D01*
X10907D01*
Y5904D01*
X10667D01*
X10587Y6020D02*
Y6420D01*
X10987D01*
Y6020D01*
X10587D01*
X10667Y6100D02*
Y6340D01*
X10907D01*
Y6100D01*
X10667D01*
X10784Y6217D02*
Y6617D01*
X11184D01*
Y6217D01*
X10784D01*
X10864Y6297D02*
Y6537D01*
X11104D01*
Y6297D01*
X10864D01*
X10784Y6020D02*
Y6420D01*
X11184D01*
Y6020D01*
X10784D01*
X10864Y6100D02*
Y6340D01*
X11104D01*
Y6100D01*
X10864D01*
X10784Y5824D02*
Y6224D01*
X11184D01*
Y5824D01*
X10784D01*
X10864Y5904D02*
Y6144D01*
X11104D01*
Y5904D01*
X10864D01*
X10784Y5627D02*
Y6027D01*
X11184D01*
Y5627D01*
X10784D01*
X10864Y5707D02*
Y5947D01*
X11104D01*
Y5707D01*
X10864D01*
X10784Y5430D02*
Y5830D01*
X11184D01*
Y5430D01*
X10784D01*
X10864Y5510D02*
Y5750D01*
X11104D01*
Y5510D01*
X10864D01*
X10784Y5233D02*
Y5633D01*
X11184D01*
Y5233D01*
X10784D01*
X10864Y5313D02*
Y5553D01*
X11104D01*
Y5313D01*
X10864D01*
X10784Y5036D02*
Y5436D01*
X11184D01*
Y5036D01*
X10784D01*
X10864Y5116D02*
Y5356D01*
X11104D01*
Y5116D01*
X10864D01*
X10784Y4839D02*
Y5239D01*
X11184D01*
Y4839D01*
X10784D01*
X10864Y4919D02*
Y5159D01*
X11104D01*
Y4919D01*
X10864D01*
X10784Y4643D02*
Y5043D01*
X11184D01*
Y4643D01*
X10784D01*
X10864Y4723D02*
Y4963D01*
X11104D01*
Y4723D01*
X10864D01*
X10587Y4643D02*
Y5043D01*
X10987D01*
Y4643D01*
X10587D01*
X10667Y4723D02*
Y4963D01*
X10907D01*
Y4723D01*
X10667D01*
X20036Y11136D02*
X20236Y11336D01*
X20436Y11136D01*
X20236Y10936D01*
X20036Y11136D01*
X31257Y24252D02*
X31457Y24452D01*
X31657Y24252D01*
X31457Y24052D01*
X31257Y24252D01*
X30824Y24331D02*
X31024Y24531D01*
X31224Y24331D01*
X31024Y24131D01*
X30824Y24331D01*
X30863Y26850D02*
X31063Y27050D01*
X31263Y26850D01*
X31063Y26650D01*
X30863Y26850D01*
X30509Y26496D02*
X30709Y26696D01*
X30909Y26496D01*
X30709Y26296D01*
X30509Y26496D01*
X28784Y33813D02*
X28984Y34013D01*
X29184Y33813D01*
X28984Y33613D01*
X28784Y33813D01*
X28501Y31850D02*
X28701Y32050D01*
X28901Y31850D01*
X28701Y31650D01*
X28501Y31850D01*
X33658Y27165D02*
X33858Y27365D01*
X34058Y27165D01*
X33858Y26965D01*
X33658Y27165D01*
X33540Y26496D02*
X33740Y26696D01*
X33940Y26496D01*
X33740Y26296D01*
X33540Y26496D01*
X33619Y27674D02*
Y28074D01*
X34019D01*
Y27674D01*
X33619D01*
X33699Y27754D02*
Y27994D01*
X33939D01*
Y27754D01*
X33699D01*
X35391Y6572D02*
Y6972D01*
X35791D01*
Y6572D01*
X35391D01*
X35471Y6652D02*
Y6892D01*
X35711D01*
Y6652D01*
X35471D01*
X32635Y31926D02*
Y32326D01*
X33035D01*
Y31926D01*
X32635D01*
X32715Y32006D02*
Y32246D01*
X32955D01*
Y32006D01*
X32715D01*
X24564Y9839D02*
Y10239D01*
X24964D01*
Y9839D01*
X24564D01*
X24644Y9919D02*
Y10159D01*
X24884D01*
Y9919D01*
X24644D01*
X23973Y9209D02*
Y9609D01*
X24373D01*
Y9209D01*
X23973D01*
X24053Y9289D02*
Y9529D01*
X24293D01*
Y9289D01*
X24053D01*
X24524Y8658D02*
Y9058D01*
X24924D01*
Y8658D01*
X24524D01*
X24604Y8738D02*
Y8978D01*
X24844D01*
Y8738D01*
X24604D01*
X23973Y8658D02*
Y9058D01*
X24373D01*
Y8658D01*
X23973D01*
X24053Y8738D02*
Y8978D01*
X24293D01*
Y8738D01*
X24053D01*
X23422Y9249D02*
Y9649D01*
X23822D01*
Y9249D01*
X23422D01*
X23502Y9329D02*
Y9569D01*
X23742D01*
Y9329D01*
X23502D01*
X23422Y9800D02*
Y10200D01*
X23822D01*
Y9800D01*
X23422D01*
X23502Y9880D02*
Y10120D01*
X23742D01*
Y9880D01*
X23502D01*
X28068Y14646D02*
X28268Y14846D01*
X28468Y14646D01*
X28268Y14446D01*
X28068Y14646D01*
X21119Y6488D02*
X21319Y6688D01*
X21519Y6488D01*
X21319Y6288D01*
X21119Y6488D01*
X22162Y6614D02*
X22362Y6814D01*
X22562Y6614D01*
X22362Y6414D01*
X22162Y6614D01*
X23383Y8189D02*
X23583Y8389D01*
X23783Y8189D01*
X23583Y7989D01*
X23383Y8189D01*
X22831Y8150D02*
X23031Y8350D01*
X23231Y8150D01*
X23031Y7950D01*
X22831Y8150D01*
X19721Y1570D02*
X19921Y1770D01*
X20121Y1570D01*
X19921Y1370D01*
X19721Y1570D01*
X18894D02*
X19094Y1770D01*
X19294Y1570D01*
X19094Y1370D01*
X18894Y1570D01*
X12753Y9052D02*
Y9452D01*
X13153D01*
Y9052D01*
X12753D01*
X12833Y9132D02*
Y9372D01*
X13073D01*
Y9132D01*
X12833D01*
D156*
X22798Y19386D02*
G03*
X22798Y19386I-200J0D01*
G01*
Y17402D02*
G03*
X22798Y17402I-200J0D01*
G01*
Y18386D02*
G03*
X22798Y18386I-200J0D01*
G01*
Y21354D02*
G03*
X22798Y21354I-200J0D01*
G01*
Y20354D02*
G03*
X22798Y20354I-200J0D01*
G01*
X23940Y19386D02*
G03*
X23940Y19386I-200J0D01*
G01*
Y17402D02*
G03*
X23940Y17402I-200J0D01*
G01*
Y18386D02*
G03*
X23940Y18386I-200J0D01*
G01*
Y21354D02*
G03*
X23940Y21354I-200J0D01*
G01*
Y20354D02*
G03*
X23940Y20354I-200J0D01*
G01*
X25082Y19386D02*
G03*
X25082Y19386I-200J0D01*
G01*
Y17402D02*
G03*
X25082Y17402I-200J0D01*
G01*
Y18386D02*
G03*
X25082Y18386I-200J0D01*
G01*
Y21354D02*
G03*
X25082Y21354I-200J0D01*
G01*
Y20354D02*
G03*
X25082Y20354I-200J0D01*
G01*
X26224Y19386D02*
G03*
X26224Y19386I-200J0D01*
G01*
Y17402D02*
G03*
X26224Y17402I-200J0D01*
G01*
Y18386D02*
G03*
X26224Y18386I-200J0D01*
G01*
Y21354D02*
G03*
X26224Y21354I-200J0D01*
G01*
Y20354D02*
G03*
X26224Y20354I-200J0D01*
G01*
X36578Y16732D02*
G03*
X36578Y16732I-200J0D01*
G01*
Y14764D02*
G03*
X36578Y14764I-200J0D01*
G01*
Y15764D02*
G03*
X36578Y15764I-200J0D01*
G01*
Y17764D02*
G03*
X36578Y17764I-200J0D01*
G01*
X34688Y16728D02*
G03*
X34688Y16728I-200J0D01*
G01*
Y14760D02*
G03*
X34688Y14760I-200J0D01*
G01*
Y15760D02*
G03*
X34688Y15760I-200J0D01*
G01*
Y17760D02*
G03*
X34688Y17760I-200J0D01*
G01*
X36578Y11520D02*
G03*
X36578Y11520I-200J0D01*
G01*
Y9551D02*
G03*
X36578Y9551I-200J0D01*
G01*
Y10551D02*
G03*
X36578Y10551I-200J0D01*
G01*
Y12551D02*
G03*
X36578Y12551I-200J0D01*
G01*
X34649Y11520D02*
G03*
X34649Y11520I-200J0D01*
G01*
Y9551D02*
G03*
X34649Y9551I-200J0D01*
G01*
Y10551D02*
G03*
X34649Y10551I-200J0D01*
G01*
Y12551D02*
G03*
X34649Y12551I-200J0D01*
G01*
%TF.MD5,a6f99fcc77971d2fc9184c0150dbc33f*%
M02*
