%TF.GenerationSoftware,Altium Limited,Altium Designer,21.7.2 (23)*%
G04 Layer_Color=8388736*
%FSLAX24Y24*%
%MOIN*%
%TF.SameCoordinates,F115D885-3665-466D-A638-D1939FCD3409*%
%TF.FilePolarity,Negative*%
%TF.FileFunction,Soldermask,Top*%
%TF.Part,Single*%
G01*
G75*
%TA.AperFunction,SMDPad,CuDef*%
%ADD78R,0.0330X0.0316*%
%ADD80R,0.0316X0.0330*%
%TA.AperFunction,ComponentPad*%
%ADD82C,0.0671*%
%ADD83C,0.0710*%
%ADD84R,0.0710X0.0710*%
%ADD85C,0.0513*%
%ADD86R,0.0513X0.0513*%
%ADD87O,0.0710X0.1261*%
%ADD88O,0.0828X0.0978*%
G04:AMPARAMS|DCode=89|XSize=41.5mil|YSize=41.5mil|CornerRadius=0mil|HoleSize=0mil|Usage=FLASHONLY|Rotation=270.000|XOffset=0mil|YOffset=0mil|HoleType=Round|Shape=Octagon|*
%AMOCTAGOND89*
4,1,8,-0.0104,-0.0207,0.0104,-0.0207,0.0207,-0.0104,0.0207,0.0104,0.0104,0.0207,-0.0104,0.0207,-0.0207,0.0104,-0.0207,-0.0104,-0.0104,-0.0207,0.0*
%
%ADD89OCTAGOND89*%

%ADD90C,0.0415*%
G04:AMPARAMS|DCode=91|XSize=71mil|YSize=71mil|CornerRadius=0mil|HoleSize=0mil|Usage=FLASHONLY|Rotation=90.000|XOffset=0mil|YOffset=0mil|HoleType=Round|Shape=Octagon|*
%AMOCTAGOND91*
4,1,8,0.0177,0.0355,-0.0177,0.0355,-0.0355,0.0177,-0.0355,-0.0177,-0.0177,-0.0355,0.0177,-0.0355,0.0355,-0.0177,0.0355,0.0177,0.0177,0.0355,0.0*
%
%ADD91OCTAGOND91*%

%TA.AperFunction,ViaPad*%
%ADD92C,0.2442*%
%TA.AperFunction,ComponentPad*%
%ADD93R,0.0513X0.0513*%
%TA.AperFunction,SMDPad,CuDef*%
%ADD97R,0.0552X0.0316*%
%ADD98R,0.0867X0.0680*%
%TA.AperFunction,BGAPad,CuDef*%
%ADD99R,0.0434X0.0434*%
%TA.AperFunction,SMDPad,CuDef*%
%ADD100R,0.0671X0.0434*%
%ADD101R,0.0434X0.0671*%
%ADD102R,0.0552X0.0336*%
%ADD103R,0.1261X0.1655*%
%ADD104R,0.0474X0.0460*%
%TA.AperFunction,ConnectorPad*%
%ADD105R,0.0710X0.0316*%
%ADD106R,0.0789X0.0552*%
%TA.AperFunction,SMDPad,CuDef*%
%ADD107R,0.0198X0.0306*%
%ADD108R,0.0178X0.0306*%
%ADD109R,0.0328X0.0218*%
%ADD110R,0.0789X0.1340*%
%ADD111R,0.1419X0.1147*%
%ADD112R,0.0336X0.0680*%
%ADD113R,0.0198X0.0513*%
%ADD114R,0.0316X0.0513*%
%ADD115R,0.0257X0.0415*%
%ADD116R,0.1064X0.0710*%
%ADD117R,0.0178X0.0267*%
%ADD118R,0.0267X0.0178*%
%ADD119R,0.0316X0.0198*%
%ADD120R,0.0198X0.0316*%
%ADD121R,0.0680X0.0867*%
%ADD122R,0.0267X0.0198*%
%ADD123R,0.1458X0.0986*%
%ADD124R,0.1340X0.0789*%
%ADD125R,0.0454X0.0651*%
%ADD126R,0.1360X0.0651*%
%ADD127R,0.0671X0.0530*%
%ADD128R,0.0269X0.0237*%
%ADD129R,0.0277X0.0503*%
%ADD130R,0.0623X0.0257*%
%ADD131R,0.0690X0.0641*%
%ADD132R,0.0592X0.0730*%
%ADD133R,0.0828X0.0789*%
%ADD134R,0.0828X0.0474*%
%ADD135R,0.0336X0.0493*%
%TA.AperFunction,ConnectorPad*%
%ADD136R,0.0336X0.0493*%
%TA.AperFunction,SMDPad,CuDef*%
%ADD137R,0.0237X0.0269*%
%ADD138R,0.0530X0.0671*%
%ADD139R,0.0460X0.0474*%
G36*
X6541Y13504D02*
X6546Y13503D01*
X6551Y13502D01*
X6555Y13499D01*
X6560Y13496D01*
X6564Y13493D01*
X6567Y13489D01*
X6570Y13485D01*
X6572Y13480D01*
X6574Y13475D01*
X6575Y13470D01*
X6576Y13465D01*
Y11575D01*
X6575Y11570D01*
X6574Y11564D01*
X6572Y11559D01*
X6570Y11555D01*
X6567Y11550D01*
X6564Y11546D01*
X6560Y11543D01*
X6555Y11540D01*
X6551Y11538D01*
X6546Y11536D01*
X6541Y11535D01*
X6535Y11535D01*
X4606D01*
X4601Y11535D01*
X4596Y11536D01*
X4591Y11538D01*
X4586Y11540D01*
X4582Y11543D01*
X4578Y11546D01*
X4575Y11550D01*
X4572Y11555D01*
X4569Y11559D01*
X4568Y11564D01*
X4567Y11570D01*
X4566Y11575D01*
Y11890D01*
X4567Y11895D01*
X4568Y11900D01*
X4569Y11905D01*
X4572Y11910D01*
X4575Y11914D01*
X4578Y11918D01*
X4582Y11922D01*
X4586Y11924D01*
X4591Y11927D01*
X4596Y11928D01*
X4601Y11930D01*
X4606Y11930D01*
X4881D01*
Y12086D01*
X4606D01*
X4601Y12086D01*
X4596Y12087D01*
X4591Y12089D01*
X4586Y12091D01*
X4582Y12094D01*
X4578Y12098D01*
X4575Y12102D01*
X4572Y12106D01*
X4569Y12111D01*
X4568Y12116D01*
X4567Y12121D01*
X4566Y12126D01*
Y12402D01*
X4567Y12407D01*
X4568Y12412D01*
X4569Y12417D01*
X4572Y12422D01*
X4575Y12426D01*
X4578Y12430D01*
X4582Y12433D01*
X4586Y12436D01*
X4591Y12439D01*
X4596Y12440D01*
X4601Y12441D01*
X4606Y12442D01*
X4881D01*
Y12598D01*
X4606D01*
X4601Y12598D01*
X4596Y12599D01*
X4591Y12601D01*
X4586Y12603D01*
X4582Y12606D01*
X4578Y12609D01*
X4575Y12613D01*
X4572Y12618D01*
X4569Y12622D01*
X4568Y12627D01*
X4567Y12633D01*
X4566Y12638D01*
Y12913D01*
X4567Y12919D01*
X4568Y12924D01*
X4569Y12929D01*
X4572Y12933D01*
X4575Y12938D01*
X4578Y12942D01*
X4582Y12945D01*
X4586Y12948D01*
X4591Y12950D01*
X4596Y12952D01*
X4601Y12953D01*
X4606Y12953D01*
X4881D01*
Y13110D01*
X4606D01*
X4601Y13110D01*
X4596Y13111D01*
X4591Y13113D01*
X4586Y13115D01*
X4582Y13118D01*
X4578Y13121D01*
X4575Y13125D01*
X4572Y13130D01*
X4569Y13134D01*
X4568Y13139D01*
X4567Y13144D01*
X4566Y13150D01*
Y13465D01*
X4567Y13470D01*
X4568Y13475D01*
X4569Y13480D01*
X4572Y13485D01*
X4575Y13489D01*
X4578Y13493D01*
X4582Y13496D01*
X4586Y13499D01*
X4591Y13502D01*
X4596Y13503D01*
X4601Y13504D01*
X4606Y13505D01*
X6535D01*
X6541Y13504D01*
D02*
G37*
D78*
X32277Y6299D02*
D03*
X31817D02*
D03*
X33123Y5709D02*
D03*
X33583D02*
D03*
X33576Y5039D02*
D03*
X33116D02*
D03*
X29443Y8543D02*
D03*
X28983D02*
D03*
X29436Y7992D02*
D03*
X28976D02*
D03*
X14049Y36614D02*
D03*
X13589D02*
D03*
X6233Y27874D02*
D03*
X6693D02*
D03*
X11994Y28858D02*
D03*
X12454D02*
D03*
X17827Y28661D02*
D03*
X18287D02*
D03*
X23412Y28504D02*
D03*
X23872D02*
D03*
X33143Y29409D02*
D03*
X32683D02*
D03*
X36326Y6378D02*
D03*
X35866D02*
D03*
X36326Y5827D02*
D03*
X35866D02*
D03*
X13419Y8189D02*
D03*
X12959D02*
D03*
X13825Y7677D02*
D03*
X14285D02*
D03*
D80*
X33858Y7232D02*
D03*
Y6772D02*
D03*
X24646Y35321D02*
D03*
Y35781D02*
D03*
X18976Y35400D02*
D03*
Y35860D02*
D03*
X7835Y35821D02*
D03*
Y35361D02*
D03*
X28780Y3340D02*
D03*
Y2880D02*
D03*
X19094Y3537D02*
D03*
Y3077D02*
D03*
X19921Y3537D02*
D03*
Y3077D02*
D03*
X20787Y3531D02*
D03*
Y3071D02*
D03*
X13543Y34534D02*
D03*
Y34994D02*
D03*
X7598Y30112D02*
D03*
Y29652D02*
D03*
X12815Y30269D02*
D03*
Y29809D02*
D03*
X18484Y30151D02*
D03*
Y29691D02*
D03*
X6772Y33510D02*
D03*
Y33970D02*
D03*
X23775Y4126D02*
D03*
Y3666D02*
D03*
X28071Y2199D02*
D03*
Y1739D02*
D03*
Y2880D02*
D03*
Y3340D02*
D03*
X22908Y2767D02*
D03*
Y3227D02*
D03*
Y2118D02*
D03*
Y1658D02*
D03*
X27441Y32277D02*
D03*
Y31817D02*
D03*
X29843Y32277D02*
D03*
Y31817D02*
D03*
X20236Y11542D02*
D03*
Y12002D02*
D03*
Y11136D02*
D03*
Y10676D02*
D03*
X19488Y12290D02*
D03*
Y12750D02*
D03*
X19016Y12290D02*
D03*
Y12750D02*
D03*
X18543D02*
D03*
Y12290D02*
D03*
X18071D02*
D03*
Y12750D02*
D03*
X28031Y31817D02*
D03*
Y32277D02*
D03*
X29213Y31817D02*
D03*
Y32277D02*
D03*
X21339Y4494D02*
D03*
Y4954D02*
D03*
X22008D02*
D03*
Y4494D02*
D03*
X35354Y7671D02*
D03*
Y7211D02*
D03*
X35906Y7671D02*
D03*
Y7211D02*
D03*
X14724Y7211D02*
D03*
Y7671D02*
D03*
X12953Y8792D02*
D03*
Y9252D02*
D03*
X12480Y8792D02*
D03*
Y9252D02*
D03*
D82*
X34984Y23362D02*
D03*
X35984D02*
D03*
X34984Y22362D02*
D03*
X35984D02*
D03*
X34984Y21362D02*
D03*
X35984D02*
D03*
D83*
X22598Y19386D02*
D03*
Y17402D02*
D03*
Y18386D02*
D03*
Y20354D02*
D03*
X23740Y19386D02*
D03*
Y17402D02*
D03*
Y18386D02*
D03*
Y20354D02*
D03*
X24882Y19386D02*
D03*
Y17402D02*
D03*
Y18386D02*
D03*
Y20354D02*
D03*
X26024Y19386D02*
D03*
Y17402D02*
D03*
Y18386D02*
D03*
Y20354D02*
D03*
X36378Y16732D02*
D03*
Y15764D02*
D03*
Y17764D02*
D03*
X34488Y16728D02*
D03*
Y15760D02*
D03*
Y17760D02*
D03*
X36378Y11520D02*
D03*
Y10551D02*
D03*
Y12551D02*
D03*
X34449Y11520D02*
D03*
Y10551D02*
D03*
Y12551D02*
D03*
D84*
X22598Y21354D02*
D03*
X23740D02*
D03*
X24882D02*
D03*
X26024D02*
D03*
D85*
X13366Y32441D02*
D03*
X18957Y32362D02*
D03*
X7559Y32323D02*
D03*
X24862Y32283D02*
D03*
X5709Y8346D02*
D03*
D86*
X13366Y31457D02*
D03*
X18957Y31378D02*
D03*
X7559Y31339D02*
D03*
X24862Y31299D02*
D03*
D87*
X26488Y36555D02*
D03*
X30913D02*
D03*
D88*
X26488Y34980D02*
D03*
X30913D02*
D03*
D89*
X10669Y25988D02*
D03*
X10630Y16892D02*
D03*
D90*
X10669Y25488D02*
D03*
Y24988D02*
D03*
Y24488D02*
D03*
X10630Y16392D02*
D03*
Y15892D02*
D03*
Y15392D02*
D03*
D91*
X36378Y14764D02*
D03*
X34488Y14760D02*
D03*
X36378Y9551D02*
D03*
X34449D02*
D03*
D92*
X35433Y1969D02*
D03*
X1969D02*
D03*
Y35433D02*
D03*
X35433D02*
D03*
D93*
X6693Y8346D02*
D03*
D97*
X24035Y35925D02*
D03*
Y35177D02*
D03*
X23051D02*
D03*
Y35551D02*
D03*
Y35925D02*
D03*
X18406Y36004D02*
D03*
Y35256D02*
D03*
X17421D02*
D03*
Y35630D02*
D03*
Y36004D02*
D03*
X8406Y35217D02*
D03*
Y35965D02*
D03*
X9390D02*
D03*
Y35591D02*
D03*
Y35217D02*
D03*
X6161Y34114D02*
D03*
Y33366D02*
D03*
X5177D02*
D03*
Y33740D02*
D03*
Y34114D02*
D03*
D98*
X21811Y32620D02*
D03*
Y31260D02*
D03*
X16299Y32806D02*
D03*
Y31446D02*
D03*
X10433Y32913D02*
D03*
Y31553D02*
D03*
X4252Y32895D02*
D03*
Y31535D02*
D03*
X10433Y33651D02*
D03*
Y35011D02*
D03*
X16299Y33533D02*
D03*
Y34893D02*
D03*
X4252Y33651D02*
D03*
Y35011D02*
D03*
X21811Y33346D02*
D03*
Y34706D02*
D03*
X9134Y6918D02*
D03*
Y8278D02*
D03*
X10236Y6918D02*
D03*
Y8278D02*
D03*
D99*
X24173Y10000D02*
D03*
X24724D02*
D03*
Y9449D02*
D03*
Y8898D02*
D03*
X24173D02*
D03*
X23622D02*
D03*
Y9449D02*
D03*
Y10000D02*
D03*
X24173Y9449D02*
D03*
D100*
X28209Y12488D02*
D03*
Y11988D02*
D03*
Y11488D02*
D03*
Y10988D02*
D03*
Y10488D02*
D03*
Y9988D02*
D03*
Y9488D02*
D03*
Y8988D02*
D03*
Y8488D02*
D03*
Y7988D02*
D03*
Y7488D02*
D03*
Y6988D02*
D03*
Y6488D02*
D03*
Y5988D02*
D03*
X21319D02*
D03*
Y6488D02*
D03*
Y6988D02*
D03*
Y7488D02*
D03*
Y7988D02*
D03*
Y8488D02*
D03*
Y8988D02*
D03*
Y9488D02*
D03*
Y9988D02*
D03*
Y10488D02*
D03*
Y10988D02*
D03*
Y11488D02*
D03*
Y11988D02*
D03*
Y12488D02*
D03*
D101*
X27514Y5496D02*
D03*
X27014D02*
D03*
X26514D02*
D03*
X26014D02*
D03*
X25514D02*
D03*
X25014D02*
D03*
X24514D02*
D03*
X24014D02*
D03*
X23514D02*
D03*
X23014D02*
D03*
X22514D02*
D03*
X22014D02*
D03*
D102*
X7130Y11770D02*
D03*
Y12270D02*
D03*
Y12770D02*
D03*
Y13270D02*
D03*
D103*
X5748Y12520D02*
D03*
D104*
X20787Y1570D02*
D03*
Y2210D02*
D03*
X24154Y30163D02*
D03*
Y29523D02*
D03*
X19921Y1570D02*
D03*
Y2210D02*
D03*
X19094D02*
D03*
Y1570D02*
D03*
X11102Y7357D02*
D03*
Y7997D02*
D03*
D105*
X1654Y25984D02*
D03*
Y25197D02*
D03*
Y25591D02*
D03*
Y26378D02*
D03*
X1693Y22283D02*
D03*
Y21496D02*
D03*
Y21890D02*
D03*
Y22677D02*
D03*
Y19409D02*
D03*
Y18622D02*
D03*
Y19016D02*
D03*
Y19803D02*
D03*
Y16535D02*
D03*
Y15748D02*
D03*
Y16142D02*
D03*
Y16929D02*
D03*
D106*
X669Y26929D02*
D03*
Y24646D02*
D03*
X709Y23228D02*
D03*
Y20945D02*
D03*
Y20354D02*
D03*
Y18071D02*
D03*
Y17480D02*
D03*
Y15197D02*
D03*
D107*
X13760Y36117D02*
D03*
X13169D02*
D03*
Y35615D02*
D03*
X13760D02*
D03*
D108*
X13563Y36117D02*
D03*
X13366D02*
D03*
Y35615D02*
D03*
X13563D02*
D03*
D109*
X13126Y35866D02*
D03*
X13803D02*
D03*
D110*
X14882Y34213D02*
D03*
X11890Y34094D02*
D03*
X9016D02*
D03*
X2953Y31929D02*
D03*
X17598Y34252D02*
D03*
X5472Y31890D02*
D03*
X20630Y34055D02*
D03*
X23228Y33976D02*
D03*
D111*
X16594Y29213D02*
D03*
X4921Y29409D02*
D03*
X10689Y29331D02*
D03*
X22209Y29215D02*
D03*
D112*
X15844Y30280D02*
D03*
X16344D02*
D03*
X16844D02*
D03*
X17344D02*
D03*
Y28145D02*
D03*
X16844D02*
D03*
X16344D02*
D03*
X15844D02*
D03*
X4171Y30477D02*
D03*
X4671D02*
D03*
X5171D02*
D03*
X5671D02*
D03*
Y28342D02*
D03*
X5171D02*
D03*
X4671D02*
D03*
X4171D02*
D03*
X9939Y30398D02*
D03*
X10439D02*
D03*
X10939D02*
D03*
X11439D02*
D03*
Y28263D02*
D03*
X10939D02*
D03*
X10439D02*
D03*
X9939D02*
D03*
X21459Y30283D02*
D03*
X21959D02*
D03*
X22459D02*
D03*
X22959D02*
D03*
Y28147D02*
D03*
X22459D02*
D03*
X21959D02*
D03*
X21459D02*
D03*
D113*
X29390Y34528D02*
D03*
X28996D02*
D03*
X28406D02*
D03*
X28012D02*
D03*
X28209D02*
D03*
X28602D02*
D03*
X28799D02*
D03*
X29193D02*
D03*
D114*
X27441D02*
D03*
X27756D02*
D03*
X29646D02*
D03*
X29961D02*
D03*
D115*
X30827Y2028D02*
D03*
X31220D02*
D03*
X31614D02*
D03*
Y3169D02*
D03*
X31220D02*
D03*
X30827D02*
D03*
D116*
X31220Y2598D02*
D03*
D117*
X31713Y4778D02*
D03*
X31909D02*
D03*
X32106D02*
D03*
X32303D02*
D03*
Y5694D02*
D03*
X32106D02*
D03*
X31909D02*
D03*
X31713D02*
D03*
D118*
X32367Y5039D02*
D03*
Y5236D02*
D03*
Y5433D02*
D03*
X31648D02*
D03*
Y5236D02*
D03*
Y5039D02*
D03*
D119*
X34606Y6063D02*
D03*
Y6260D02*
D03*
Y6457D02*
D03*
X35315D02*
D03*
Y6260D02*
D03*
Y6063D02*
D03*
D120*
X34665Y6713D02*
D03*
X34862D02*
D03*
X35059D02*
D03*
X35256D02*
D03*
Y5807D02*
D03*
X35059D02*
D03*
X34862D02*
D03*
X34665D02*
D03*
D121*
X12530Y2244D02*
D03*
X11170D02*
D03*
Y3346D02*
D03*
X12530D02*
D03*
D122*
X12456Y8287D02*
D03*
Y8091D02*
D03*
Y7894D02*
D03*
Y7697D02*
D03*
X11796D02*
D03*
Y7894D02*
D03*
Y8091D02*
D03*
Y8287D02*
D03*
D123*
X12953Y6772D02*
D03*
Y4409D02*
D03*
D124*
X2598Y8346D02*
D03*
X2733Y12058D02*
D03*
D125*
X30988Y30276D02*
D03*
X31890D02*
D03*
X32791D02*
D03*
X11882Y12441D02*
D03*
X10980D02*
D03*
X10079D02*
D03*
D126*
X31890Y32874D02*
D03*
X10980Y9843D02*
D03*
D127*
X9252Y11535D02*
D03*
Y12295D02*
D03*
X33780Y30250D02*
D03*
Y31010D02*
D03*
D128*
X34189Y26181D02*
D03*
X34709D02*
D03*
X27071Y33819D02*
D03*
X26551D02*
D03*
X30213D02*
D03*
X30732D02*
D03*
X34748Y26929D02*
D03*
X34228D02*
D03*
X34748Y27559D02*
D03*
X34228D02*
D03*
D129*
X27717Y32889D02*
D03*
Y33804D02*
D03*
X33110Y27889D02*
D03*
Y28804D02*
D03*
X29646Y32889D02*
D03*
Y33804D02*
D03*
D130*
X35488Y26673D02*
D03*
Y26929D02*
D03*
Y27185D02*
D03*
Y27441D02*
D03*
Y27697D02*
D03*
D131*
X35522Y26206D02*
D03*
Y28164D02*
D03*
D132*
X36535Y25856D02*
D03*
Y28514D02*
D03*
D133*
Y26732D02*
D03*
D134*
Y27795D02*
D03*
D135*
X24631Y2705D02*
D03*
Y1072D02*
D03*
X23784Y2705D02*
D03*
Y1072D02*
D03*
D136*
X25994Y1152D02*
D03*
Y2785D02*
D03*
X26841Y1152D02*
D03*
Y2785D02*
D03*
D137*
X28976Y33803D02*
D03*
Y33283D02*
D03*
X28386Y33803D02*
D03*
Y33283D02*
D03*
D138*
X10998Y13228D02*
D03*
X11758D02*
D03*
X31837Y29370D02*
D03*
X31077D02*
D03*
D139*
X11530Y1378D02*
D03*
X12170D02*
D03*
%TF.MD5,d319c2dce56db01fffb58bd7614e8772*%
M02*
