%TF.GenerationSoftware,Altium Limited,Altium Designer,21.7.2 (23)*%
G04 Layer_Color=16711935*
%FSLAX24Y24*%
%MOIN*%
%TF.SameCoordinates,F115D885-3665-466D-A638-D1939FCD3409*%
%TF.FilePolarity,Negative*%
%TF.FileFunction,Soldermask,Bot*%
%TF.Part,Single*%
G01*
G75*
%TA.AperFunction,SMDPad,CuDef*%
%ADD78R,0.0330X0.0316*%
%ADD79R,0.0680X0.0356*%
%ADD80R,0.0316X0.0330*%
%ADD81R,0.0533X0.0316*%
%TA.AperFunction,ComponentPad*%
%ADD82C,0.0671*%
%ADD83C,0.0710*%
%ADD84R,0.0710X0.0710*%
%ADD85C,0.0513*%
%ADD86R,0.0513X0.0513*%
%ADD87O,0.0710X0.1261*%
%ADD88O,0.0828X0.0978*%
G04:AMPARAMS|DCode=89|XSize=41.5mil|YSize=41.5mil|CornerRadius=0mil|HoleSize=0mil|Usage=FLASHONLY|Rotation=270.000|XOffset=0mil|YOffset=0mil|HoleType=Round|Shape=Octagon|*
%AMOCTAGOND89*
4,1,8,-0.0104,-0.0207,0.0104,-0.0207,0.0207,-0.0104,0.0207,0.0104,0.0104,0.0207,-0.0104,0.0207,-0.0207,0.0104,-0.0207,-0.0104,-0.0104,-0.0207,0.0*
%
%ADD89OCTAGOND89*%

%ADD90C,0.0415*%
G04:AMPARAMS|DCode=91|XSize=71mil|YSize=71mil|CornerRadius=0mil|HoleSize=0mil|Usage=FLASHONLY|Rotation=90.000|XOffset=0mil|YOffset=0mil|HoleType=Round|Shape=Octagon|*
%AMOCTAGOND91*
4,1,8,0.0177,0.0355,-0.0177,0.0355,-0.0355,0.0177,-0.0355,-0.0177,-0.0177,-0.0355,0.0177,-0.0355,0.0355,-0.0177,0.0355,0.0177,0.0177,0.0355,0.0*
%
%ADD91OCTAGOND91*%

%TA.AperFunction,ViaPad*%
%ADD92C,0.2442*%
%TA.AperFunction,ComponentPad*%
%ADD93R,0.0513X0.0513*%
D78*
X13077Y18110D02*
D03*
X13537D02*
D03*
X8510Y18661D02*
D03*
X8970D02*
D03*
X8516Y19055D02*
D03*
X8976D02*
D03*
X8983Y19488D02*
D03*
X9443D02*
D03*
X10276Y20354D02*
D03*
X9816D02*
D03*
X9061Y21299D02*
D03*
X9521D02*
D03*
X9061Y20787D02*
D03*
X9521D02*
D03*
X8313Y14409D02*
D03*
X8773D02*
D03*
X2565Y14488D02*
D03*
X3025D02*
D03*
X2565Y14882D02*
D03*
X3025D02*
D03*
X4370Y16181D02*
D03*
X3910D02*
D03*
X3044Y15315D02*
D03*
X3504D02*
D03*
X3438Y16693D02*
D03*
X3898D02*
D03*
X3431Y17205D02*
D03*
X3891D02*
D03*
X7362Y18386D02*
D03*
X7822D02*
D03*
X2920Y19528D02*
D03*
X3380D02*
D03*
X2920Y19921D02*
D03*
X3380D02*
D03*
X3359Y20315D02*
D03*
X3819D02*
D03*
X4718Y21102D02*
D03*
X4258D02*
D03*
X3353Y21496D02*
D03*
X3813D02*
D03*
X3353Y21929D02*
D03*
X3813D02*
D03*
X3353Y26772D02*
D03*
X3813D02*
D03*
X3189Y24055D02*
D03*
X3649D02*
D03*
X3195Y24449D02*
D03*
X3655D02*
D03*
X8353Y22992D02*
D03*
X8813D02*
D03*
X4488Y25827D02*
D03*
X4028D02*
D03*
X3628Y24921D02*
D03*
X4088D02*
D03*
X3359Y26299D02*
D03*
X3819D02*
D03*
D79*
X11019Y18604D02*
D03*
Y19104D02*
D03*
Y19604D02*
D03*
Y20104D02*
D03*
Y20604D02*
D03*
Y21104D02*
D03*
Y21604D02*
D03*
Y22104D02*
D03*
X13154D02*
D03*
Y21604D02*
D03*
Y21104D02*
D03*
Y20604D02*
D03*
Y20104D02*
D03*
Y19604D02*
D03*
Y19104D02*
D03*
Y18604D02*
D03*
X5468Y18880D02*
D03*
Y19380D02*
D03*
Y19880D02*
D03*
Y20380D02*
D03*
Y20880D02*
D03*
Y21380D02*
D03*
Y21880D02*
D03*
Y22380D02*
D03*
X7603D02*
D03*
Y21880D02*
D03*
Y21380D02*
D03*
Y20880D02*
D03*
Y20380D02*
D03*
Y19880D02*
D03*
Y19380D02*
D03*
Y18880D02*
D03*
X5468Y14392D02*
D03*
Y14892D02*
D03*
Y15392D02*
D03*
Y15892D02*
D03*
Y16392D02*
D03*
Y16892D02*
D03*
Y17392D02*
D03*
Y17892D02*
D03*
X7603D02*
D03*
Y17392D02*
D03*
Y16892D02*
D03*
Y16392D02*
D03*
Y15892D02*
D03*
Y15392D02*
D03*
Y14892D02*
D03*
Y14392D02*
D03*
X5428Y22974D02*
D03*
Y23474D02*
D03*
Y23974D02*
D03*
Y24474D02*
D03*
Y24974D02*
D03*
Y25474D02*
D03*
Y25974D02*
D03*
Y26474D02*
D03*
X7564D02*
D03*
Y25974D02*
D03*
Y25474D02*
D03*
Y24974D02*
D03*
Y24474D02*
D03*
Y23974D02*
D03*
Y23474D02*
D03*
Y22974D02*
D03*
D80*
X9409Y17638D02*
D03*
Y18098D02*
D03*
X9016Y17644D02*
D03*
Y18104D02*
D03*
X9843Y19455D02*
D03*
Y19915D02*
D03*
X9961Y20833D02*
D03*
Y21293D02*
D03*
X3189Y13477D02*
D03*
Y13937D02*
D03*
X3583Y13477D02*
D03*
Y13937D02*
D03*
X3937Y15321D02*
D03*
Y15781D02*
D03*
X4370Y16739D02*
D03*
Y17198D02*
D03*
X3937Y17762D02*
D03*
Y18222D02*
D03*
X4331Y17756D02*
D03*
Y18216D02*
D03*
X4258Y20282D02*
D03*
Y20742D02*
D03*
X4528Y21587D02*
D03*
Y22047D02*
D03*
X3780Y22368D02*
D03*
Y22828D02*
D03*
X3386Y22375D02*
D03*
Y22835D02*
D03*
X4528Y24888D02*
D03*
Y25348D02*
D03*
X4449Y26305D02*
D03*
Y26765D02*
D03*
D81*
X10315Y18917D02*
D03*
Y18169D02*
D03*
X9449Y18543D02*
D03*
X4646Y14862D02*
D03*
Y14114D02*
D03*
X3780Y14488D02*
D03*
X4291Y19468D02*
D03*
Y18720D02*
D03*
X3425Y19094D02*
D03*
X4724Y23642D02*
D03*
Y22894D02*
D03*
X3858Y23268D02*
D03*
D82*
X34984Y23362D02*
D03*
X35984D02*
D03*
X34984Y22362D02*
D03*
X35984D02*
D03*
X34984Y21362D02*
D03*
X35984D02*
D03*
D83*
X22598Y19386D02*
D03*
Y17402D02*
D03*
Y18386D02*
D03*
Y20354D02*
D03*
X23740Y19386D02*
D03*
Y17402D02*
D03*
Y18386D02*
D03*
Y20354D02*
D03*
X24882Y19386D02*
D03*
Y17402D02*
D03*
Y18386D02*
D03*
Y20354D02*
D03*
X26024Y19386D02*
D03*
Y17402D02*
D03*
Y18386D02*
D03*
Y20354D02*
D03*
X36378Y16732D02*
D03*
Y15764D02*
D03*
Y17764D02*
D03*
X34488Y16728D02*
D03*
Y15760D02*
D03*
Y17760D02*
D03*
X36378Y11520D02*
D03*
Y10551D02*
D03*
Y12551D02*
D03*
X34449Y11520D02*
D03*
Y10551D02*
D03*
Y12551D02*
D03*
D84*
X22598Y21354D02*
D03*
X23740D02*
D03*
X24882D02*
D03*
X26024D02*
D03*
D85*
X13366Y32441D02*
D03*
X18957Y32362D02*
D03*
X7559Y32323D02*
D03*
X24862Y32283D02*
D03*
X5709Y8346D02*
D03*
D86*
X13366Y31457D02*
D03*
X18957Y31378D02*
D03*
X7559Y31339D02*
D03*
X24862Y31299D02*
D03*
D87*
X26488Y36555D02*
D03*
X30913D02*
D03*
D88*
X26488Y34980D02*
D03*
X30913D02*
D03*
D89*
X10669Y25988D02*
D03*
X10630Y16892D02*
D03*
D90*
X10669Y25488D02*
D03*
Y24988D02*
D03*
Y24488D02*
D03*
X10630Y16392D02*
D03*
Y15892D02*
D03*
Y15392D02*
D03*
D91*
X36378Y14764D02*
D03*
X34488Y14760D02*
D03*
X36378Y9551D02*
D03*
X34449D02*
D03*
D92*
X35433Y1969D02*
D03*
X1969D02*
D03*
Y35433D02*
D03*
X35433D02*
D03*
D93*
X6693Y8346D02*
D03*
%TF.MD5,7e34ede0f47cd384420b3ce1f09ea687*%
M02*
