%TF.GenerationSoftware,Altium Limited,Altium Designer,21.7.2 (23)*%
G04 Layer_Color=128*
%FSLAX24Y24*%
%MOIN*%
%TF.SameCoordinates,F115D885-3665-466D-A638-D1939FCD3409*%
%TF.FilePolarity,Positive*%
%TF.FileFunction,Drillmap*%
%TF.Part,Single*%
G01*
G75*
%TA.AperFunction,NonConductor*%
%ADD76C,0.0050*%
D76*
X34787Y23362D02*
X35181D01*
X34984Y23165D02*
Y23559D01*
X35787Y23362D02*
X36181D01*
X35984Y23165D02*
Y23559D01*
X34787Y22362D02*
X35181D01*
X34984Y22165D02*
Y22559D01*
X35787Y22362D02*
X36181D01*
X35984Y22165D02*
Y22559D01*
X34787Y21362D02*
X35181D01*
X34984Y21165D02*
Y21559D01*
X35787Y21362D02*
X36181D01*
X35984Y21165D02*
Y21559D01*
X22421Y19386D02*
X22776D01*
X22598Y19209D02*
Y19563D01*
X22421Y17402D02*
X22776D01*
X22598Y17224D02*
Y17579D01*
X22421Y18386D02*
X22776D01*
X22598Y18209D02*
Y18563D01*
X22421Y21354D02*
X22776D01*
X22598Y21177D02*
Y21532D01*
X22421Y20354D02*
X22776D01*
X22598Y20177D02*
Y20531D01*
X23563Y19386D02*
X23917D01*
X23740Y19209D02*
Y19563D01*
X23563Y17402D02*
X23917D01*
X23740Y17224D02*
Y17579D01*
X23563Y18386D02*
X23917D01*
X23740Y18209D02*
Y18563D01*
X23563Y21354D02*
X23917D01*
X23740Y21177D02*
Y21532D01*
X23563Y20354D02*
X23917D01*
X23740Y20177D02*
Y20531D01*
X24705Y19386D02*
X25059D01*
X24882Y19209D02*
Y19563D01*
X24705Y17402D02*
X25059D01*
X24882Y17224D02*
Y17579D01*
X24705Y18386D02*
X25059D01*
X24882Y18209D02*
Y18563D01*
X24705Y21354D02*
X25059D01*
X24882Y21177D02*
Y21532D01*
X24705Y20354D02*
X25059D01*
X24882Y20177D02*
Y20531D01*
X25846Y19386D02*
X26201D01*
X26024Y19209D02*
Y19563D01*
X25846Y17402D02*
X26201D01*
X26024Y17224D02*
Y17579D01*
X25846Y18386D02*
X26201D01*
X26024Y18209D02*
Y18563D01*
X25846Y21354D02*
X26201D01*
X26024Y21177D02*
Y21532D01*
X25846Y20354D02*
X26201D01*
X26024Y20177D02*
Y20531D01*
X13228Y32441D02*
X13504D01*
X13366Y32303D02*
Y32579D01*
X13228Y31457D02*
X13504D01*
X13366Y31319D02*
Y31594D01*
X18819Y32362D02*
X19094D01*
X18957Y32224D02*
Y32500D01*
X18819Y31378D02*
X19094D01*
X18957Y31240D02*
Y31516D01*
X7421Y32323D02*
X7697D01*
X7559Y32185D02*
Y32461D01*
X7421Y31339D02*
X7697D01*
X7559Y31201D02*
Y31476D01*
X26173Y36555D02*
X26803D01*
X26488Y36240D02*
Y36870D01*
X30598Y36555D02*
X31228D01*
X30913Y36240D02*
Y36870D01*
X26189Y34980D02*
X26787D01*
X26488Y34681D02*
Y35280D01*
X30614Y34980D02*
X31213D01*
X30913Y34681D02*
Y35280D01*
X24724Y32283D02*
X25000D01*
X24862Y32146D02*
Y32421D01*
X24724Y31299D02*
X25000D01*
X24862Y31161D02*
Y31437D01*
X10541Y25988D02*
X10797D01*
X10669Y25860D02*
Y26116D01*
X10541Y25488D02*
X10797D01*
X10669Y25360D02*
Y25616D01*
X10541Y24988D02*
X10797D01*
X10669Y24860D02*
Y25116D01*
X10541Y24488D02*
X10797D01*
X10669Y24360D02*
Y24616D01*
X10502Y16892D02*
X10758D01*
X10630Y16764D02*
Y17020D01*
X10502Y16392D02*
X10758D01*
X10630Y16264D02*
Y16520D01*
X10502Y15892D02*
X10758D01*
X10630Y15764D02*
Y16020D01*
X10502Y15392D02*
X10758D01*
X10630Y15264D02*
Y15520D01*
X36201Y16732D02*
X36555D01*
X36378Y16555D02*
Y16909D01*
X36201Y14764D02*
X36555D01*
X36378Y14587D02*
Y14941D01*
X36201Y15764D02*
X36555D01*
X36378Y15587D02*
Y15941D01*
X36201Y17764D02*
X36555D01*
X36378Y17587D02*
Y17941D01*
X34311Y16728D02*
X34665D01*
X34488Y16551D02*
Y16906D01*
X34311Y14760D02*
X34665D01*
X34488Y14583D02*
Y14937D01*
X34311Y15760D02*
X34665D01*
X34488Y15583D02*
Y15937D01*
X34311Y17760D02*
X34665D01*
X34488Y17583D02*
Y17937D01*
X36201Y11520D02*
X36555D01*
X36378Y11343D02*
Y11697D01*
X36201Y9551D02*
X36555D01*
X36378Y9374D02*
Y9728D01*
X36201Y10551D02*
X36555D01*
X36378Y10374D02*
Y10728D01*
X36201Y12551D02*
X36555D01*
X36378Y12374D02*
Y12728D01*
X34272Y11520D02*
X34626D01*
X34449Y11343D02*
Y11697D01*
X34272Y9551D02*
X34626D01*
X34449Y9374D02*
Y9728D01*
X34272Y10551D02*
X34626D01*
X34449Y10374D02*
Y10728D01*
X34272Y12551D02*
X34626D01*
X34449Y12374D02*
Y12728D01*
X34764Y1969D02*
X36102D01*
X35433Y1299D02*
Y2638D01*
X1299Y1969D02*
X2638D01*
X1969Y1299D02*
Y2638D01*
X1299Y35433D02*
X2638D01*
X1969Y34764D02*
Y36102D01*
X34764Y35433D02*
X36102D01*
X35433Y34764D02*
Y36102D01*
X6555Y8346D02*
X6831D01*
X6693Y8209D02*
Y8484D01*
X5571Y8346D02*
X5846D01*
X5709Y8209D02*
Y8484D01*
X30846Y6299D02*
X30965D01*
X30906Y6240D02*
Y6358D01*
X33484Y6220D02*
X33602D01*
X33543Y6161D02*
Y6280D01*
X32667Y5354D02*
X32766D01*
X32717Y5305D02*
Y5404D01*
X31762Y4252D02*
X31860D01*
X31811Y4203D02*
Y4301D01*
X33533Y5039D02*
X33632D01*
X33583Y4990D02*
Y5089D01*
X28524Y34134D02*
X28642D01*
X28583Y34075D02*
Y34193D01*
X30650Y3937D02*
X30768D01*
X30709Y3878D02*
Y3996D01*
X32697Y3583D02*
X32815D01*
X32756Y3524D02*
Y3642D01*
X30374Y5512D02*
X30492D01*
X30433Y5453D02*
Y5571D01*
X29665Y4094D02*
X29783D01*
X29724Y4035D02*
Y4154D01*
X30492Y2047D02*
X30610D01*
X30551Y1988D02*
Y2106D01*
X27185Y7835D02*
X27303D01*
X27244Y7776D02*
Y7894D01*
X27067Y7087D02*
X27185D01*
X27126Y7028D02*
Y7146D01*
X27461Y7126D02*
X27579D01*
X27520Y7067D02*
Y7185D01*
X29744Y4567D02*
X29862D01*
X29803Y4508D02*
Y4626D01*
X21333Y6933D02*
X21451D01*
X21392Y6873D02*
Y6992D01*
X28642Y11968D02*
X28760D01*
X28701Y11909D02*
Y12028D01*
X31909Y11929D02*
X32028D01*
X31969Y11870D02*
Y11988D01*
X31909Y15039D02*
X32028D01*
X31969Y14980D02*
Y15098D01*
X28248Y11496D02*
X28366D01*
X28307Y11437D02*
Y11555D01*
X28642Y9961D02*
X28760D01*
X28701Y9902D02*
Y10020D01*
X35379Y14365D02*
X35497D01*
X35438Y14305D02*
Y14424D01*
X8248Y669D02*
X8366D01*
X8307Y610D02*
Y728D01*
X7883Y4316D02*
X8001D01*
X7942Y4257D02*
Y4375D01*
X7776Y7992D02*
X7894D01*
X7835Y7933D02*
Y8051D01*
X22958Y5372D02*
X23076D01*
X23017Y5313D02*
Y5431D01*
X29035Y4449D02*
X29154D01*
X29094Y4390D02*
Y4508D01*
X31594Y15315D02*
X31713D01*
X31654Y15256D02*
Y15374D01*
X31161Y15748D02*
X31280D01*
X31220Y15689D02*
Y15807D01*
X28642Y10984D02*
X28760D01*
X28701Y10925D02*
Y11043D01*
X30807Y11063D02*
X30925D01*
X30866Y11004D02*
Y11122D01*
X29154Y7441D02*
X29272D01*
X29213Y7382D02*
Y7500D01*
X30020Y9921D02*
X30138D01*
X30079Y9862D02*
Y9980D01*
X28150Y7988D02*
X28268D01*
X28209Y7929D02*
Y8047D01*
X27224Y16024D02*
X27343D01*
X27283Y15965D02*
Y16083D01*
X27776Y16339D02*
X27894D01*
X27835Y16280D02*
Y16398D01*
X29114Y9488D02*
X29232D01*
X29173Y9429D02*
Y9547D01*
X28051Y8465D02*
X28169D01*
X28110Y8406D02*
Y8524D01*
X27274Y15177D02*
X27392D01*
X27333Y15118D02*
Y15236D01*
X27264Y9488D02*
X27382D01*
X27323Y9429D02*
Y9547D01*
X26023Y11369D02*
X26141D01*
X26082Y11310D02*
Y11428D01*
X26516Y8701D02*
X26634D01*
X26575Y8642D02*
Y8760D01*
X19114Y9134D02*
X19232D01*
X19173Y9075D02*
Y9193D01*
X21398Y5512D02*
X21516D01*
X21457Y5453D02*
Y5571D01*
X19744Y5551D02*
X19862D01*
X19803Y5492D02*
Y5610D01*
X18996Y9488D02*
X19114D01*
X19055Y9429D02*
Y9547D01*
X18996Y11024D02*
X19114D01*
X19055Y10965D02*
Y11083D01*
X19114Y6614D02*
X19232D01*
X19173Y6555D02*
Y6673D01*
X17724Y11260D02*
X17843D01*
X17783Y11201D02*
Y11319D01*
X18681Y7441D02*
X18799D01*
X18740Y7382D02*
Y7500D01*
X22455Y5496D02*
X22573D01*
X22514Y5437D02*
Y5555D01*
X17657Y9173D02*
X17776D01*
X17717Y9114D02*
Y9232D01*
X16870Y11181D02*
X16988D01*
X16929Y11122D02*
Y11240D01*
X17776Y16024D02*
X17894D01*
X17835Y15965D02*
Y16083D01*
X19902Y15433D02*
X20020D01*
X19961Y15374D02*
Y15492D01*
X23602Y12126D02*
X23720D01*
X23661Y12067D02*
Y12185D01*
X20044Y8689D02*
X20162D01*
X20103Y8630D02*
Y8748D01*
X17579Y8858D02*
X17697D01*
X17638Y8799D02*
Y8917D01*
X16516Y11496D02*
X16634D01*
X16575Y11437D02*
Y11555D01*
X17539Y16339D02*
X17657D01*
X17598Y16280D02*
Y16398D01*
X25531Y11496D02*
X25650D01*
X25591Y11437D02*
Y11555D01*
X23053Y13625D02*
X23171D01*
X23112Y13566D02*
Y13684D01*
X22877Y13394D02*
X22995D01*
X22936Y13335D02*
Y13453D01*
X19862Y15945D02*
X19980D01*
X19921Y15886D02*
Y16004D01*
X21152Y8456D02*
X21270D01*
X21211Y8396D02*
Y8515D01*
X16831Y8622D02*
X16949D01*
X16890Y8563D02*
Y8681D01*
X16437Y8661D02*
X16555D01*
X16496Y8602D02*
Y8720D01*
X16087Y12012D02*
X16205D01*
X16146Y11953D02*
Y12071D01*
X17421Y18307D02*
X17539D01*
X17480Y18248D02*
Y18366D01*
X21122Y8976D02*
X21240D01*
X21181Y8917D02*
Y9035D01*
X10886Y12362D02*
X11004D01*
X10945Y12303D02*
Y12421D01*
X13455Y8780D02*
X13553D01*
X13504Y8730D02*
Y8829D01*
X13652Y8583D02*
X13750D01*
X13701Y8533D02*
Y8632D01*
X13652Y8780D02*
X13750D01*
X13701Y8730D02*
Y8829D01*
X13455Y8583D02*
X13553D01*
X13504Y8533D02*
Y8632D01*
X15699Y8150D02*
X15797D01*
X15748Y8100D02*
Y8199D01*
X15699Y7913D02*
X15797D01*
X15748Y7864D02*
Y7963D01*
X15699Y8386D02*
X15797D01*
X15748Y8337D02*
Y8435D01*
X29892Y16393D02*
X30010D01*
X29951Y16334D02*
Y16452D01*
X29035Y13898D02*
X29154D01*
X29094Y13839D02*
Y13957D01*
X29902Y16811D02*
X30020D01*
X29961Y16752D02*
Y16870D01*
X21043Y8031D02*
X21161D01*
X21102Y7972D02*
Y8091D01*
X15807Y12362D02*
X15925D01*
X15866Y12303D02*
Y12421D01*
X17461Y18701D02*
X17579D01*
X17520Y18642D02*
Y18760D01*
X21913Y12878D02*
X22032D01*
X21972Y12819D02*
Y12937D01*
X23051Y12126D02*
X23169D01*
X23110Y12067D02*
Y12185D01*
X22028Y12441D02*
X22146D01*
X22087Y12382D02*
Y12500D01*
X19390Y19016D02*
X19508D01*
X19449Y18957D02*
Y19075D01*
X19705Y18622D02*
X19823D01*
X19764Y18563D02*
Y18681D01*
X20728Y1570D02*
X20846D01*
X20787Y1511D02*
Y1629D01*
X21115Y10988D02*
X21233D01*
X21174Y10929D02*
Y11047D01*
X17461Y11063D02*
X17579D01*
X17520Y11004D02*
Y11122D01*
X21083Y10472D02*
X21201D01*
X21142Y10413D02*
Y10532D01*
X15140Y27657D02*
X15259D01*
X15200Y27598D02*
Y27716D01*
X15170Y29910D02*
X15288D01*
X15229Y29851D02*
Y29969D01*
X14035Y35551D02*
X14154D01*
X14094Y35492D02*
Y35610D01*
X14783Y27677D02*
X14902D01*
X14843Y27618D02*
Y27736D01*
X14783Y29921D02*
X14902D01*
X14843Y29862D02*
Y29980D01*
X13760Y35276D02*
X13878D01*
X13819Y35217D02*
Y35335D01*
X11634Y23110D02*
X11752D01*
X11693Y23051D02*
Y23169D01*
X8051Y23898D02*
X8169D01*
X8110Y23839D02*
Y23957D01*
X6398Y23307D02*
X6516D01*
X6457Y23248D02*
Y23366D01*
X8051Y23465D02*
X8169D01*
X8110Y23406D02*
Y23524D01*
X11555Y22756D02*
X11673D01*
X11614Y22697D02*
Y22815D01*
X10020Y22402D02*
X10138D01*
X10079Y22343D02*
Y22461D01*
X11673Y18465D02*
X11791D01*
X11732Y18406D02*
Y18524D01*
X8248Y18110D02*
X8366D01*
X8307Y18051D02*
Y18169D01*
X7313Y18386D02*
X7411D01*
X7362Y18337D02*
Y18435D01*
X6791Y17835D02*
X6909D01*
X6850Y17776D02*
Y17894D01*
X8119Y20523D02*
X8237D01*
X8178Y20464D02*
Y20582D01*
X30138Y28189D02*
X30256D01*
X30197Y28130D02*
Y28248D01*
X24469Y28150D02*
X24587D01*
X24528Y28091D02*
Y28209D01*
X8130Y19685D02*
X8248D01*
X8189Y19626D02*
Y19744D01*
X8091Y20157D02*
X8209D01*
X8150Y20098D02*
Y20217D01*
X6791Y18976D02*
X6909D01*
X6850Y18917D02*
Y19035D01*
X2441Y15730D02*
X2559D01*
X2500Y15671D02*
Y15789D01*
X2697Y16732D02*
X2815D01*
X2756Y16673D02*
Y16791D01*
X2264Y16929D02*
X2382D01*
X2323Y16870D02*
Y16988D01*
X25768Y8307D02*
X25886D01*
X25827Y8248D02*
Y8366D01*
X26201Y8268D02*
X26319D01*
X26260Y8209D02*
Y8327D01*
X6398Y22008D02*
X6516D01*
X6457Y21949D02*
Y22067D01*
X2106Y22283D02*
X2224D01*
X2165Y22224D02*
Y22343D01*
X2106Y21496D02*
X2224D01*
X2165Y21437D02*
Y21555D01*
X2106Y22677D02*
X2224D01*
X2165Y22618D02*
Y22736D01*
X2146Y26378D02*
X2264D01*
X2205Y26319D02*
Y26437D01*
X6161Y27283D02*
X6280D01*
X6220Y27224D02*
Y27343D01*
X4622Y28342D02*
X4720D01*
X4671Y28293D02*
Y28391D01*
X5122Y28342D02*
X5220D01*
X5171Y28293D02*
Y28391D01*
X3730Y7126D02*
X3829D01*
X3780Y7077D02*
Y7175D01*
X8967Y9134D02*
X9065D01*
X9016Y9085D02*
Y9183D01*
X9163Y9134D02*
X9262D01*
X9213Y9085D02*
Y9183D01*
X9360Y9134D02*
X9459D01*
X9409Y9085D02*
Y9183D01*
X2146Y25984D02*
X2264D01*
X2205Y25925D02*
Y26043D01*
X2224Y25197D02*
X2343D01*
X2283Y25138D02*
Y25256D01*
X24035Y36339D02*
X24154D01*
X24094Y36280D02*
Y36398D01*
X19941Y35866D02*
X20059D01*
X20000Y35807D02*
Y35925D01*
X14823Y36417D02*
X14941D01*
X14882Y36358D02*
Y36476D01*
X12768Y36236D02*
X12886D01*
X12827Y36177D02*
Y36296D01*
X8406Y35551D02*
X8524D01*
X8465Y35492D02*
Y35610D01*
X6083Y34685D02*
X6201D01*
X6142Y34626D02*
Y34744D01*
X15064Y35989D02*
X15182D01*
X15123Y35930D02*
Y36048D01*
X12854Y35591D02*
X12972D01*
X12913Y35531D02*
Y35650D01*
X9360Y35197D02*
X9459D01*
X9409Y35148D02*
Y35246D01*
X16295Y28145D02*
X16394D01*
X16344Y28096D02*
Y28194D01*
X11378Y28110D02*
X11496D01*
X11437Y28051D02*
Y28169D01*
X16795Y28145D02*
X16894D01*
X16844Y28096D02*
Y28194D01*
X11935Y28858D02*
X12053D01*
X11994Y28799D02*
Y28917D01*
X17768Y28661D02*
X17886D01*
X17827Y28602D02*
Y28720D01*
X5622Y28342D02*
X5720D01*
X5671Y28293D02*
Y28391D01*
X10890Y28263D02*
X10988D01*
X10939Y28214D02*
Y28312D01*
X10390Y28263D02*
X10488D01*
X10439Y28214D02*
Y28312D01*
X23346Y28504D02*
X23465D01*
X23406Y28445D02*
Y28563D01*
X22410Y28147D02*
X22508D01*
X22459Y28098D02*
Y28196D01*
X21910Y28147D02*
X22008D01*
X21959Y28098D02*
Y28196D01*
X15699Y6732D02*
X15797D01*
X15748Y6683D02*
Y6781D01*
X15699Y6969D02*
X15797D01*
X15748Y6919D02*
Y7018D01*
X15699Y7205D02*
X15797D01*
X15748Y7156D02*
Y7254D01*
X15699Y7441D02*
X15797D01*
X15748Y7392D02*
Y7490D01*
X15699Y7677D02*
X15797D01*
X15748Y7628D02*
Y7726D01*
X15541Y8583D02*
X15640D01*
X15591Y8533D02*
Y8632D01*
X15384Y8740D02*
X15482D01*
X15433Y8691D02*
Y8789D01*
X15226Y8898D02*
X15325D01*
X15276Y8848D02*
Y8947D01*
X15069Y9094D02*
X15167D01*
X15118Y9045D02*
Y9144D01*
X14911Y9252D02*
X15010D01*
X14961Y9203D02*
Y9301D01*
X14754Y9409D02*
X14852D01*
X14803Y9360D02*
Y9459D01*
X14596Y9567D02*
X14695D01*
X14646Y9518D02*
Y9616D01*
X11329Y9134D02*
X11427D01*
X11378Y9085D02*
Y9183D01*
X9557Y9134D02*
X9656D01*
X9606Y9085D02*
Y9183D01*
X9754Y9134D02*
X9852D01*
X9803Y9085D02*
Y9183D01*
X9951Y9134D02*
X10049D01*
X10000Y9085D02*
Y9183D01*
X10148Y9134D02*
X10246D01*
X10197Y9085D02*
Y9183D01*
X10344Y9134D02*
X10443D01*
X10394Y9085D02*
Y9183D01*
X10541Y9134D02*
X10640D01*
X10591Y9085D02*
Y9183D01*
X10738Y9134D02*
X10837D01*
X10787Y9085D02*
Y9183D01*
X10935Y9134D02*
X11033D01*
X10984Y9085D02*
Y9183D01*
X11132Y9134D02*
X11230D01*
X11181Y9085D02*
Y9183D01*
X28878Y14213D02*
X28996D01*
X28937Y14154D02*
Y14272D01*
X28484Y14409D02*
X28602D01*
X28543Y14350D02*
Y14468D01*
X14754Y4291D02*
X14852D01*
X14803Y4242D02*
Y4341D01*
X21280Y4494D02*
X21398D01*
X21339Y4435D02*
Y4553D01*
X22849Y3227D02*
X22968D01*
X22908Y3168D02*
Y3286D01*
X28012Y3346D02*
X28130D01*
X28071Y3287D02*
Y3406D01*
X12106Y1378D02*
X12224D01*
X12165Y1319D02*
Y1437D01*
X13848Y8780D02*
X13947D01*
X13898Y8730D02*
Y8829D01*
X13848Y8583D02*
X13947D01*
X13898Y8533D02*
Y8632D01*
X11762Y9252D02*
X11860D01*
X11811Y9203D02*
Y9301D01*
X11959Y9252D02*
X12057D01*
X12008Y9203D02*
Y9301D01*
X11762Y8661D02*
X11860D01*
X11811Y8612D02*
Y8711D01*
X11762Y8858D02*
X11860D01*
X11811Y8809D02*
Y8907D01*
X11762Y9055D02*
X11860D01*
X11811Y9006D02*
Y9104D01*
X11959Y9055D02*
X12057D01*
X12008Y9006D02*
Y9104D01*
X11959Y8858D02*
X12057D01*
X12008Y8809D02*
Y8907D01*
X11959Y8661D02*
X12057D01*
X12008Y8612D02*
Y8711D01*
X14754Y4488D02*
X14852D01*
X14803Y4439D02*
Y4537D01*
X14754Y4685D02*
X14852D01*
X14803Y4636D02*
Y4734D01*
X14754Y4882D02*
X14852D01*
X14803Y4833D02*
Y4931D01*
X14754Y5079D02*
X14852D01*
X14803Y5030D02*
Y5128D01*
X14754Y5276D02*
X14852D01*
X14803Y5226D02*
Y5325D01*
X14754Y5472D02*
X14852D01*
X14803Y5423D02*
Y5522D01*
X14754Y5669D02*
X14852D01*
X14803Y5620D02*
Y5719D01*
X14754Y5866D02*
X14852D01*
X14803Y5817D02*
Y5915D01*
X14754Y6063D02*
X14852D01*
X14803Y6014D02*
Y6112D01*
X14754Y6260D02*
X14852D01*
X14803Y6211D02*
Y6309D01*
X14754Y6457D02*
X14852D01*
X14803Y6407D02*
Y6506D01*
X14557Y6457D02*
X14656D01*
X14606Y6407D02*
Y6506D01*
X14557Y6260D02*
X14656D01*
X14606Y6211D02*
Y6309D01*
X14557Y6063D02*
X14656D01*
X14606Y6014D02*
Y6112D01*
X14557Y5866D02*
X14656D01*
X14606Y5817D02*
Y5915D01*
X14557Y5669D02*
X14656D01*
X14606Y5620D02*
Y5719D01*
X14557Y5472D02*
X14656D01*
X14606Y5423D02*
Y5522D01*
X14557Y5276D02*
X14656D01*
X14606Y5226D02*
Y5325D01*
X14557Y5079D02*
X14656D01*
X14606Y5030D02*
Y5128D01*
X14557Y4882D02*
X14656D01*
X14606Y4833D02*
Y4931D01*
X14557Y4685D02*
X14656D01*
X14606Y4636D02*
Y4734D01*
X14557Y4488D02*
X14656D01*
X14606Y4439D02*
Y4537D01*
X14557Y4291D02*
X14656D01*
X14606Y4242D02*
Y4341D01*
X10935Y6811D02*
X11033D01*
X10984Y6762D02*
Y6860D01*
X10935Y6614D02*
X11033D01*
X10984Y6565D02*
Y6663D01*
X10738Y5039D02*
X10837D01*
X10787Y4990D02*
Y5089D01*
X10738Y5236D02*
X10837D01*
X10787Y5187D02*
Y5285D01*
X10738Y5433D02*
X10837D01*
X10787Y5384D02*
Y5482D01*
X10738Y5630D02*
X10837D01*
X10787Y5581D02*
Y5679D01*
X10738Y5827D02*
X10837D01*
X10787Y5778D02*
Y5876D01*
X10738Y6024D02*
X10837D01*
X10787Y5974D02*
Y6073D01*
X10738Y6220D02*
X10837D01*
X10787Y6171D02*
Y6270D01*
X10935Y6417D02*
X11033D01*
X10984Y6368D02*
Y6467D01*
X10935Y6220D02*
X11033D01*
X10984Y6171D02*
Y6270D01*
X10935Y6024D02*
X11033D01*
X10984Y5974D02*
Y6073D01*
X10935Y5827D02*
X11033D01*
X10984Y5778D02*
Y5876D01*
X10935Y5630D02*
X11033D01*
X10984Y5581D02*
Y5679D01*
X10935Y5433D02*
X11033D01*
X10984Y5384D02*
Y5482D01*
X10935Y5236D02*
X11033D01*
X10984Y5187D02*
Y5285D01*
X10935Y5039D02*
X11033D01*
X10984Y4990D02*
Y5089D01*
X10935Y4843D02*
X11033D01*
X10984Y4793D02*
Y4892D01*
X10738Y4843D02*
X10837D01*
X10787Y4793D02*
Y4892D01*
X20177Y11136D02*
X20295D01*
X20236Y11076D02*
Y11195D01*
X31398Y24252D02*
X31516D01*
X31457Y24193D02*
Y24311D01*
X30965Y24331D02*
X31083D01*
X31024Y24272D02*
Y24390D01*
X31004Y26850D02*
X31122D01*
X31063Y26791D02*
Y26909D01*
X30650Y26496D02*
X30768D01*
X30709Y26437D02*
Y26555D01*
X28925Y33813D02*
X29043D01*
X28984Y33754D02*
Y33872D01*
X28642Y31850D02*
X28760D01*
X28701Y31791D02*
Y31909D01*
X33799Y27165D02*
X33917D01*
X33858Y27106D02*
Y27224D01*
X33681Y26496D02*
X33799D01*
X33740Y26437D02*
Y26555D01*
X33770Y27874D02*
X33868D01*
X33819Y27825D02*
Y27923D01*
X35541Y6772D02*
X35640D01*
X35591Y6722D02*
Y6821D01*
X32785Y32126D02*
X32884D01*
X32835Y32077D02*
Y32175D01*
X24715Y10039D02*
X24813D01*
X24764Y9990D02*
Y10089D01*
X24124Y9409D02*
X24222D01*
X24173Y9360D02*
Y9459D01*
X24675Y8858D02*
X24774D01*
X24724Y8809D02*
Y8907D01*
X24124Y8858D02*
X24222D01*
X24173Y8809D02*
Y8907D01*
X23573Y9449D02*
X23671D01*
X23622Y9400D02*
Y9498D01*
X23573Y10000D02*
X23671D01*
X23622Y9951D02*
Y10049D01*
X28209Y14646D02*
X28327D01*
X28268Y14587D02*
Y14705D01*
X21260Y6488D02*
X21378D01*
X21319Y6429D02*
Y6547D01*
X22303Y6614D02*
X22421D01*
X22362Y6555D02*
Y6673D01*
X23524Y8189D02*
X23642D01*
X23583Y8130D02*
Y8248D01*
X22972Y8150D02*
X23091D01*
X23031Y8091D02*
Y8209D01*
X19862Y1570D02*
X19980D01*
X19921Y1511D02*
Y1629D01*
X19035Y1570D02*
X19154D01*
X19094Y1511D02*
Y1629D01*
X12904Y9252D02*
X13002D01*
X12953Y9203D02*
Y9301D01*
%TF.MD5,23f2ac4e2426ee59b9f2868cf3d8f252*%
M02*
