%TF.GenerationSoftware,Altium Limited,Altium Designer,21.7.2 (23)*%
G04 Layer_Color=8421504*
%FSLAX24Y24*%
%MOIN*%
%TF.SameCoordinates,F115D885-3665-466D-A638-D1939FCD3409*%
%TF.FilePolarity,Positive*%
%TF.FileFunction,Paste,Top*%
%TF.Part,Single*%
G01*
G75*
%TA.AperFunction,SMDPad,CuDef*%
%ADD10R,0.0250X0.0236*%
%ADD11R,0.0236X0.0250*%
%ADD12R,0.0472X0.0236*%
%ADD13R,0.0787X0.0600*%
%TA.AperFunction,BGAPad,CuDef*%
%ADD14R,0.0354X0.0354*%
%TA.AperFunction,SMDPad,CuDef*%
%ADD15R,0.0591X0.0354*%
%ADD16R,0.0354X0.0591*%
%ADD17R,0.0472X0.0256*%
%ADD18R,0.1181X0.1575*%
%ADD19R,0.0394X0.0380*%
%TA.AperFunction,ConnectorPad*%
%ADD20R,0.0630X0.0236*%
%ADD21R,0.0709X0.0472*%
%TA.AperFunction,SMDPad,CuDef*%
%ADD22R,0.0118X0.0226*%
%ADD23R,0.0098X0.0226*%
%ADD24R,0.0248X0.0138*%
%ADD25R,0.0709X0.1260*%
%ADD26R,0.1339X0.1067*%
%ADD27R,0.0256X0.0600*%
%ADD28R,0.0118X0.0433*%
%ADD29R,0.0236X0.0433*%
%ADD30R,0.0177X0.0335*%
%ADD31R,0.0984X0.0630*%
%ADD32R,0.0098X0.0187*%
%ADD33R,0.0187X0.0098*%
%ADD34R,0.0236X0.0118*%
%ADD35R,0.0118X0.0236*%
%ADD36R,0.0600X0.0787*%
%ADD37R,0.0187X0.0118*%
%ADD38R,0.1378X0.0906*%
%ADD39R,0.1260X0.0709*%
%ADD40R,0.0374X0.0571*%
%ADD41R,0.1280X0.0571*%
%ADD42R,0.0591X0.0450*%
%ADD43R,0.0189X0.0157*%
%ADD44R,0.0197X0.0423*%
%ADD45R,0.0543X0.0177*%
%ADD46R,0.0610X0.0561*%
%ADD47R,0.0512X0.0650*%
%ADD48R,0.0748X0.0709*%
%ADD49R,0.0748X0.0394*%
%ADD50R,0.0256X0.0413*%
%TA.AperFunction,ConnectorPad*%
%ADD51R,0.0256X0.0413*%
%TA.AperFunction,SMDPad,CuDef*%
%ADD52R,0.0157X0.0189*%
%ADD53R,0.0450X0.0591*%
%ADD54R,0.0380X0.0394*%
G36*
X6535Y11575D02*
X4606D01*
Y11890D01*
X4921D01*
Y12126D01*
X4606D01*
Y12402D01*
X4921D01*
Y12638D01*
X4606D01*
Y12913D01*
X4921D01*
Y13150D01*
X4606D01*
Y13465D01*
X6535D01*
Y11575D01*
D02*
G37*
D10*
X32277Y6299D02*
D03*
X31817D02*
D03*
X33123Y5709D02*
D03*
X33583D02*
D03*
X33576Y5039D02*
D03*
X33116D02*
D03*
X29443Y8543D02*
D03*
X28983D02*
D03*
X29436Y7992D02*
D03*
X28976D02*
D03*
X14049Y36614D02*
D03*
X13589D02*
D03*
X6233Y27874D02*
D03*
X6693D02*
D03*
X11994Y28858D02*
D03*
X12454D02*
D03*
X17827Y28661D02*
D03*
X18287D02*
D03*
X23412Y28504D02*
D03*
X23872D02*
D03*
X33143Y29409D02*
D03*
X32683D02*
D03*
X36326Y6378D02*
D03*
X35866D02*
D03*
X36326Y5827D02*
D03*
X35866D02*
D03*
X13419Y8189D02*
D03*
X12959D02*
D03*
X13825Y7677D02*
D03*
X14285D02*
D03*
D11*
X33858Y7232D02*
D03*
Y6772D02*
D03*
X24646Y35321D02*
D03*
Y35781D02*
D03*
X18976Y35400D02*
D03*
Y35860D02*
D03*
X7835Y35821D02*
D03*
Y35361D02*
D03*
X28780Y3340D02*
D03*
Y2880D02*
D03*
X19094Y3537D02*
D03*
Y3077D02*
D03*
X19921Y3537D02*
D03*
Y3077D02*
D03*
X20787Y3531D02*
D03*
Y3071D02*
D03*
X13543Y34534D02*
D03*
Y34994D02*
D03*
X7598Y30112D02*
D03*
Y29652D02*
D03*
X12815Y30269D02*
D03*
Y29809D02*
D03*
X18484Y30151D02*
D03*
Y29691D02*
D03*
X6772Y33510D02*
D03*
Y33970D02*
D03*
X23775Y4126D02*
D03*
Y3666D02*
D03*
X28071Y2199D02*
D03*
Y1739D02*
D03*
Y2880D02*
D03*
Y3340D02*
D03*
X22908Y2767D02*
D03*
Y3227D02*
D03*
Y2118D02*
D03*
Y1658D02*
D03*
X27441Y32277D02*
D03*
Y31817D02*
D03*
X29843Y32277D02*
D03*
Y31817D02*
D03*
X20236Y11542D02*
D03*
Y12002D02*
D03*
Y11136D02*
D03*
Y10676D02*
D03*
X19488Y12290D02*
D03*
Y12750D02*
D03*
X19016Y12290D02*
D03*
Y12750D02*
D03*
X18543D02*
D03*
Y12290D02*
D03*
X18071D02*
D03*
Y12750D02*
D03*
X28031Y31817D02*
D03*
Y32277D02*
D03*
X29213Y31817D02*
D03*
Y32277D02*
D03*
X21339Y4494D02*
D03*
Y4954D02*
D03*
X22008D02*
D03*
Y4494D02*
D03*
X35354Y7671D02*
D03*
Y7211D02*
D03*
X35906Y7671D02*
D03*
Y7211D02*
D03*
X14724Y7211D02*
D03*
Y7671D02*
D03*
X12953Y8792D02*
D03*
Y9252D02*
D03*
X12480Y8792D02*
D03*
Y9252D02*
D03*
D12*
X24035Y35925D02*
D03*
Y35177D02*
D03*
X23051D02*
D03*
Y35551D02*
D03*
Y35925D02*
D03*
X18406Y36004D02*
D03*
Y35256D02*
D03*
X17421D02*
D03*
Y35630D02*
D03*
Y36004D02*
D03*
X8406Y35217D02*
D03*
Y35965D02*
D03*
X9390D02*
D03*
Y35591D02*
D03*
Y35217D02*
D03*
X6161Y34114D02*
D03*
Y33366D02*
D03*
X5177D02*
D03*
Y33740D02*
D03*
Y34114D02*
D03*
D13*
X21811Y32620D02*
D03*
Y31260D02*
D03*
X16299Y32806D02*
D03*
Y31446D02*
D03*
X10433Y32913D02*
D03*
Y31553D02*
D03*
X4252Y32895D02*
D03*
Y31535D02*
D03*
X10433Y33651D02*
D03*
Y35011D02*
D03*
X16299Y33533D02*
D03*
Y34893D02*
D03*
X4252Y33651D02*
D03*
Y35011D02*
D03*
X21811Y33346D02*
D03*
Y34706D02*
D03*
X9134Y6918D02*
D03*
Y8278D02*
D03*
X10236Y6918D02*
D03*
Y8278D02*
D03*
D14*
X24173Y10000D02*
D03*
X24724D02*
D03*
Y9449D02*
D03*
Y8898D02*
D03*
X24173D02*
D03*
X23622D02*
D03*
Y9449D02*
D03*
Y10000D02*
D03*
X24173Y9449D02*
D03*
D15*
X28209Y12488D02*
D03*
Y11988D02*
D03*
Y11488D02*
D03*
Y10988D02*
D03*
Y10488D02*
D03*
Y9988D02*
D03*
Y9488D02*
D03*
Y8988D02*
D03*
Y8488D02*
D03*
Y7988D02*
D03*
Y7488D02*
D03*
Y6988D02*
D03*
Y6488D02*
D03*
Y5988D02*
D03*
X21319D02*
D03*
Y6488D02*
D03*
Y6988D02*
D03*
Y7488D02*
D03*
Y7988D02*
D03*
Y8488D02*
D03*
Y8988D02*
D03*
Y9488D02*
D03*
Y9988D02*
D03*
Y10488D02*
D03*
Y10988D02*
D03*
Y11488D02*
D03*
Y11988D02*
D03*
Y12488D02*
D03*
D16*
X27514Y5496D02*
D03*
X27014D02*
D03*
X26514D02*
D03*
X26014D02*
D03*
X25514D02*
D03*
X25014D02*
D03*
X24514D02*
D03*
X24014D02*
D03*
X23514D02*
D03*
X23014D02*
D03*
X22514D02*
D03*
X22014D02*
D03*
D17*
X7130Y11770D02*
D03*
Y12270D02*
D03*
Y12770D02*
D03*
Y13270D02*
D03*
D18*
X5748Y12520D02*
D03*
D19*
X20787Y1570D02*
D03*
Y2210D02*
D03*
X24154Y30163D02*
D03*
Y29523D02*
D03*
X19921Y1570D02*
D03*
Y2210D02*
D03*
X19094D02*
D03*
Y1570D02*
D03*
X11102Y7357D02*
D03*
Y7997D02*
D03*
D20*
X1654Y25984D02*
D03*
Y25197D02*
D03*
Y25591D02*
D03*
Y26378D02*
D03*
X1693Y22283D02*
D03*
Y21496D02*
D03*
Y21890D02*
D03*
Y22677D02*
D03*
Y19409D02*
D03*
Y18622D02*
D03*
Y19016D02*
D03*
Y19803D02*
D03*
Y16535D02*
D03*
Y15748D02*
D03*
Y16142D02*
D03*
Y16929D02*
D03*
D21*
X669Y26929D02*
D03*
Y24646D02*
D03*
X709Y23228D02*
D03*
Y20945D02*
D03*
Y20354D02*
D03*
Y18071D02*
D03*
Y17480D02*
D03*
Y15197D02*
D03*
D22*
X13760Y36117D02*
D03*
X13169D02*
D03*
Y35615D02*
D03*
X13760D02*
D03*
D23*
X13563Y36117D02*
D03*
X13366D02*
D03*
Y35615D02*
D03*
X13563D02*
D03*
D24*
X13126Y35866D02*
D03*
X13803D02*
D03*
D25*
X14882Y34213D02*
D03*
X11890Y34094D02*
D03*
X9016D02*
D03*
X2953Y31929D02*
D03*
X17598Y34252D02*
D03*
X5472Y31890D02*
D03*
X20630Y34055D02*
D03*
X23228Y33976D02*
D03*
D26*
X16594Y29213D02*
D03*
X4921Y29409D02*
D03*
X10689Y29331D02*
D03*
X22209Y29215D02*
D03*
D27*
X15844Y30280D02*
D03*
X16344D02*
D03*
X16844D02*
D03*
X17344D02*
D03*
Y28145D02*
D03*
X16844D02*
D03*
X16344D02*
D03*
X15844D02*
D03*
X4171Y30477D02*
D03*
X4671D02*
D03*
X5171D02*
D03*
X5671D02*
D03*
Y28342D02*
D03*
X5171D02*
D03*
X4671D02*
D03*
X4171D02*
D03*
X9939Y30398D02*
D03*
X10439D02*
D03*
X10939D02*
D03*
X11439D02*
D03*
Y28263D02*
D03*
X10939D02*
D03*
X10439D02*
D03*
X9939D02*
D03*
X21459Y30283D02*
D03*
X21959D02*
D03*
X22459D02*
D03*
X22959D02*
D03*
Y28147D02*
D03*
X22459D02*
D03*
X21959D02*
D03*
X21459D02*
D03*
D28*
X29390Y34528D02*
D03*
X28996D02*
D03*
X28406D02*
D03*
X28012D02*
D03*
X28209D02*
D03*
X28602D02*
D03*
X28799D02*
D03*
X29193D02*
D03*
D29*
X27441D02*
D03*
X27756D02*
D03*
X29646D02*
D03*
X29961D02*
D03*
D30*
X30827Y2028D02*
D03*
X31220D02*
D03*
X31614D02*
D03*
Y3169D02*
D03*
X31220D02*
D03*
X30827D02*
D03*
D31*
X31220Y2598D02*
D03*
D32*
X31713Y4778D02*
D03*
X31909D02*
D03*
X32106D02*
D03*
X32303D02*
D03*
Y5694D02*
D03*
X32106D02*
D03*
X31909D02*
D03*
X31713D02*
D03*
D33*
X32367Y5039D02*
D03*
Y5236D02*
D03*
Y5433D02*
D03*
X31648D02*
D03*
Y5236D02*
D03*
Y5039D02*
D03*
D34*
X34606Y6063D02*
D03*
Y6260D02*
D03*
Y6457D02*
D03*
X35315D02*
D03*
Y6260D02*
D03*
Y6063D02*
D03*
D35*
X34665Y6713D02*
D03*
X34862D02*
D03*
X35059D02*
D03*
X35256D02*
D03*
Y5807D02*
D03*
X35059D02*
D03*
X34862D02*
D03*
X34665D02*
D03*
D36*
X12530Y2244D02*
D03*
X11170D02*
D03*
Y3346D02*
D03*
X12530D02*
D03*
D37*
X12456Y8287D02*
D03*
Y8091D02*
D03*
Y7894D02*
D03*
Y7697D02*
D03*
X11796D02*
D03*
Y7894D02*
D03*
Y8091D02*
D03*
Y8287D02*
D03*
D38*
X12953Y6772D02*
D03*
Y4409D02*
D03*
D39*
X2598Y8346D02*
D03*
X2733Y12058D02*
D03*
D40*
X30988Y30276D02*
D03*
X31890D02*
D03*
X32791D02*
D03*
X11882Y12441D02*
D03*
X10980D02*
D03*
X10079D02*
D03*
D41*
X31890Y32874D02*
D03*
X10980Y9843D02*
D03*
D42*
X9252Y11535D02*
D03*
Y12295D02*
D03*
X33780Y30250D02*
D03*
Y31010D02*
D03*
D43*
X34189Y26181D02*
D03*
X34709D02*
D03*
X27071Y33819D02*
D03*
X26551D02*
D03*
X30213D02*
D03*
X30732D02*
D03*
X34748Y26929D02*
D03*
X34228D02*
D03*
X34748Y27559D02*
D03*
X34228D02*
D03*
D44*
X27717Y32889D02*
D03*
Y33804D02*
D03*
X33110Y27889D02*
D03*
Y28804D02*
D03*
X29646Y32889D02*
D03*
Y33804D02*
D03*
D45*
X35488Y26673D02*
D03*
Y26929D02*
D03*
Y27185D02*
D03*
Y27441D02*
D03*
Y27697D02*
D03*
D46*
X35522Y26206D02*
D03*
Y28164D02*
D03*
D47*
X36535Y25856D02*
D03*
Y28514D02*
D03*
D48*
Y26732D02*
D03*
D49*
Y27795D02*
D03*
D50*
X24631Y2705D02*
D03*
Y1072D02*
D03*
X23784Y2705D02*
D03*
Y1072D02*
D03*
D51*
X25994Y1152D02*
D03*
Y2785D02*
D03*
X26841Y1152D02*
D03*
Y2785D02*
D03*
D52*
X28976Y33803D02*
D03*
Y33283D02*
D03*
X28386Y33803D02*
D03*
Y33283D02*
D03*
D53*
X10998Y13228D02*
D03*
X11758D02*
D03*
X31837Y29370D02*
D03*
X31077D02*
D03*
D54*
X11530Y1378D02*
D03*
X12170D02*
D03*
%TF.MD5,bd127c3065456cb25c5a8f3f02082a80*%
M02*
