%TF.GenerationSoftware,Altium Limited,Altium Designer,21.7.2 (23)*%
G04 Layer_Color=0*
%FSLAX24Y24*%
%MOIN*%
%TF.SameCoordinates,F115D885-3665-466D-A638-D1939FCD3409*%
%TF.FilePolarity,Positive*%
%TF.FileFunction,Plated,1,2,PTH,Drill*%
%TF.Part,Single*%
G01*
G75*
%TA.AperFunction,ComponentDrill*%
%ADD142C,0.0394*%
%ADD143C,0.0354*%
%ADD144C,0.0276*%
%ADD145C,0.0630*%
%ADD146C,0.0598*%
%ADD147C,0.0256*%
%TA.AperFunction,OtherDrill,Pad Free-4 (3543.307mil,196.85mil)*%
%ADD148C,0.1339*%
%TA.AperFunction,OtherDrill,Pad Free-3 (196.85mil,196.85mil)*%
%ADD149C,0.1339*%
%TA.AperFunction,OtherDrill,Pad Free-2 (196.85mil,3543.307mil)*%
%ADD150C,0.1339*%
%TA.AperFunction,OtherDrill,Pad Free-1 (3543.307mil,3543.307mil)*%
%ADD151C,0.1339*%
%TA.AperFunction,ComponentDrill*%
%ADD152C,0.0276*%
%TA.AperFunction,ViaDrill,NotFilled*%
%ADD153C,0.0118*%
%ADD154C,0.0098*%
D142*
X34984Y23362D02*
D03*
X35984D02*
D03*
X34984Y22362D02*
D03*
X35984D02*
D03*
X34984Y21362D02*
D03*
X35984D02*
D03*
D143*
X22598Y19386D02*
D03*
Y17402D02*
D03*
Y18386D02*
D03*
Y21354D02*
D03*
Y20354D02*
D03*
X23740Y19386D02*
D03*
Y17402D02*
D03*
Y18386D02*
D03*
Y21354D02*
D03*
Y20354D02*
D03*
X24882Y19386D02*
D03*
Y17402D02*
D03*
Y18386D02*
D03*
Y21354D02*
D03*
Y20354D02*
D03*
X26024Y19386D02*
D03*
Y17402D02*
D03*
Y18386D02*
D03*
Y21354D02*
D03*
Y20354D02*
D03*
X36378Y16732D02*
D03*
Y14764D02*
D03*
Y15764D02*
D03*
Y17764D02*
D03*
X34488Y16728D02*
D03*
Y14760D02*
D03*
Y15760D02*
D03*
Y17760D02*
D03*
X36378Y11520D02*
D03*
Y9551D02*
D03*
Y10551D02*
D03*
Y12551D02*
D03*
X34449Y11520D02*
D03*
Y9551D02*
D03*
Y10551D02*
D03*
Y12551D02*
D03*
D144*
X13366Y32441D02*
D03*
Y31457D02*
D03*
X18957Y32362D02*
D03*
Y31378D02*
D03*
X7559Y32323D02*
D03*
Y31339D02*
D03*
X24862Y32283D02*
D03*
Y31299D02*
D03*
D145*
X26488Y36555D02*
D03*
X30913D02*
D03*
D146*
X26488Y34980D02*
D03*
X30913D02*
D03*
D147*
X10669Y25988D02*
D03*
Y25488D02*
D03*
Y24988D02*
D03*
Y24488D02*
D03*
X10630Y16892D02*
D03*
Y16392D02*
D03*
Y15892D02*
D03*
Y15392D02*
D03*
D148*
X35433Y1969D02*
D03*
D149*
X1969D02*
D03*
D150*
Y35433D02*
D03*
D151*
X35433D02*
D03*
D152*
X6693Y8346D02*
D03*
X5709D02*
D03*
D153*
X30906Y6299D02*
D03*
X33543Y6220D02*
D03*
X28583Y34134D02*
D03*
X30709Y3937D02*
D03*
X32756Y3583D02*
D03*
X30433Y5512D02*
D03*
X29724Y4094D02*
D03*
X30551Y2047D02*
D03*
X27244Y7835D02*
D03*
X27126Y7087D02*
D03*
X27520Y7126D02*
D03*
X29803Y4567D02*
D03*
X21392Y6933D02*
D03*
X28701Y11968D02*
D03*
X31969Y11929D02*
D03*
Y15039D02*
D03*
X28307Y11496D02*
D03*
X28701Y9961D02*
D03*
X35438Y14365D02*
D03*
X8307Y669D02*
D03*
X7942Y4316D02*
D03*
X7835Y7992D02*
D03*
X23017Y5372D02*
D03*
X29094Y4449D02*
D03*
X31654Y15315D02*
D03*
X31220Y15748D02*
D03*
X28701Y10984D02*
D03*
X30866Y11063D02*
D03*
X29213Y7441D02*
D03*
X30079Y9921D02*
D03*
X28209Y7988D02*
D03*
X27283Y16024D02*
D03*
X27835Y16339D02*
D03*
X29173Y9488D02*
D03*
X28110Y8465D02*
D03*
X27333Y15177D02*
D03*
X27323Y9488D02*
D03*
X26082Y11369D02*
D03*
X26575Y8701D02*
D03*
X19173Y9134D02*
D03*
X21457Y5512D02*
D03*
X19803Y5551D02*
D03*
X19055Y9488D02*
D03*
Y11024D02*
D03*
X19173Y6614D02*
D03*
X17783Y11260D02*
D03*
X18740Y7441D02*
D03*
X22514Y5496D02*
D03*
X17717Y9173D02*
D03*
X16929Y11181D02*
D03*
X17835Y16024D02*
D03*
X19961Y15433D02*
D03*
X23661Y12126D02*
D03*
X20103Y8689D02*
D03*
X17638Y8858D02*
D03*
X16575Y11496D02*
D03*
X17598Y16339D02*
D03*
X25591Y11496D02*
D03*
X23112Y13625D02*
D03*
X22936Y13394D02*
D03*
X19921Y15945D02*
D03*
X21211Y8456D02*
D03*
X16890Y8622D02*
D03*
X16496Y8661D02*
D03*
X16146Y12012D02*
D03*
X17480Y18307D02*
D03*
X21181Y8976D02*
D03*
X10945Y12362D02*
D03*
X29951Y16393D02*
D03*
X29094Y13898D02*
D03*
X29961Y16811D02*
D03*
X21102Y8031D02*
D03*
X15866Y12362D02*
D03*
X17520Y18701D02*
D03*
X21972Y12878D02*
D03*
X23110Y12126D02*
D03*
X22087Y12441D02*
D03*
X19449Y19016D02*
D03*
X19764Y18622D02*
D03*
X20787Y1570D02*
D03*
X21174Y10988D02*
D03*
X17520Y11063D02*
D03*
X21142Y10472D02*
D03*
X15200Y27657D02*
D03*
X15229Y29910D02*
D03*
X14094Y35551D02*
D03*
X14843Y27677D02*
D03*
Y29921D02*
D03*
X13819Y35276D02*
D03*
X11693Y23110D02*
D03*
X8110Y23898D02*
D03*
X6457Y23307D02*
D03*
X8110Y23465D02*
D03*
X11614Y22756D02*
D03*
X10079Y22402D02*
D03*
X11732Y18465D02*
D03*
X8307Y18110D02*
D03*
X6850Y17835D02*
D03*
X8178Y20523D02*
D03*
X30197Y28189D02*
D03*
X24528Y28150D02*
D03*
X8189Y19685D02*
D03*
X8150Y20157D02*
D03*
X6850Y18976D02*
D03*
X2500Y15730D02*
D03*
X2756Y16732D02*
D03*
X2323Y16929D02*
D03*
X25827Y8307D02*
D03*
X26260Y8268D02*
D03*
X6457Y22008D02*
D03*
X2165Y22283D02*
D03*
Y21496D02*
D03*
Y22677D02*
D03*
X2205Y26378D02*
D03*
X6220Y27283D02*
D03*
X2205Y25984D02*
D03*
X2283Y25197D02*
D03*
X24094Y36339D02*
D03*
X20000Y35866D02*
D03*
X14882Y36417D02*
D03*
X12827Y36236D02*
D03*
X8465Y35551D02*
D03*
X6142Y34685D02*
D03*
X15123Y35989D02*
D03*
X12913Y35591D02*
D03*
X11437Y28110D02*
D03*
X11994Y28858D02*
D03*
X17827Y28661D02*
D03*
X23406Y28504D02*
D03*
X28937Y14213D02*
D03*
X28543Y14409D02*
D03*
X21339Y4494D02*
D03*
X22908Y3227D02*
D03*
X28071Y3346D02*
D03*
X12165Y1378D02*
D03*
X20236Y11136D02*
D03*
X31457Y24252D02*
D03*
X31024Y24331D02*
D03*
X31063Y26850D02*
D03*
X30709Y26496D02*
D03*
X28984Y33813D02*
D03*
X28701Y31850D02*
D03*
X33858Y27165D02*
D03*
X33740Y26496D02*
D03*
X28268Y14646D02*
D03*
X21319Y6488D02*
D03*
X22362Y6614D02*
D03*
X23583Y8189D02*
D03*
X23031Y8150D02*
D03*
X19921Y1570D02*
D03*
X19094D02*
D03*
D154*
X32717Y5354D02*
D03*
X31811Y4252D02*
D03*
X33583Y5039D02*
D03*
X13504Y8780D02*
D03*
X13701Y8583D02*
D03*
Y8780D02*
D03*
X13504Y8583D02*
D03*
X15748Y8150D02*
D03*
Y7913D02*
D03*
Y8386D02*
D03*
X7362Y18386D02*
D03*
X4671Y28342D02*
D03*
X5171D02*
D03*
X3780Y7126D02*
D03*
X9016Y9134D02*
D03*
X9213D02*
D03*
X9409D02*
D03*
Y35197D02*
D03*
X16344Y28145D02*
D03*
X16844D02*
D03*
X5671Y28342D02*
D03*
X10939Y28263D02*
D03*
X10439D02*
D03*
X22459Y28147D02*
D03*
X21959D02*
D03*
X15748Y6732D02*
D03*
Y6969D02*
D03*
Y7205D02*
D03*
Y7441D02*
D03*
Y7677D02*
D03*
X15591Y8583D02*
D03*
X15433Y8740D02*
D03*
X15276Y8898D02*
D03*
X15118Y9094D02*
D03*
X14961Y9252D02*
D03*
X14803Y9409D02*
D03*
X14646Y9567D02*
D03*
X11378Y9134D02*
D03*
X9606D02*
D03*
X9803D02*
D03*
X10000D02*
D03*
X10197D02*
D03*
X10394D02*
D03*
X10591D02*
D03*
X10787D02*
D03*
X10984D02*
D03*
X11181D02*
D03*
X14803Y4291D02*
D03*
X13898Y8780D02*
D03*
Y8583D02*
D03*
X11811Y9252D02*
D03*
X12008D02*
D03*
X11811Y8661D02*
D03*
Y8858D02*
D03*
Y9055D02*
D03*
X12008D02*
D03*
Y8858D02*
D03*
Y8661D02*
D03*
X14803Y4488D02*
D03*
Y4685D02*
D03*
Y4882D02*
D03*
Y5079D02*
D03*
Y5276D02*
D03*
Y5472D02*
D03*
Y5669D02*
D03*
Y5866D02*
D03*
Y6063D02*
D03*
Y6260D02*
D03*
Y6457D02*
D03*
X14606D02*
D03*
Y6260D02*
D03*
Y6063D02*
D03*
Y5866D02*
D03*
Y5669D02*
D03*
Y5472D02*
D03*
Y5276D02*
D03*
Y5079D02*
D03*
Y4882D02*
D03*
Y4685D02*
D03*
Y4488D02*
D03*
Y4291D02*
D03*
X10984Y6811D02*
D03*
Y6614D02*
D03*
X10787Y5039D02*
D03*
Y5236D02*
D03*
Y5433D02*
D03*
Y5630D02*
D03*
Y5827D02*
D03*
Y6024D02*
D03*
Y6220D02*
D03*
X10984Y6417D02*
D03*
Y6220D02*
D03*
Y6024D02*
D03*
Y5827D02*
D03*
Y5630D02*
D03*
Y5433D02*
D03*
Y5236D02*
D03*
Y5039D02*
D03*
Y4843D02*
D03*
X10787D02*
D03*
X33819Y27874D02*
D03*
X35591Y6772D02*
D03*
X32835Y32126D02*
D03*
X24764Y10039D02*
D03*
X24173Y9409D02*
D03*
X24724Y8858D02*
D03*
X24173D02*
D03*
X23622Y9449D02*
D03*
Y10000D02*
D03*
X12953Y9252D02*
D03*
%TF.MD5,791f02645496874ff52c9ea4b49e4d88*%
M02*
