%TF.GenerationSoftware,Altium Limited,Altium Designer,21.7.2 (23)*%
G04 Layer_Physical_Order=1*
G04 Layer_Color=255*
%FSLAX24Y24*%
%MOIN*%
%TF.SameCoordinates,DA776ED6-ADCF-4D54-B547-66972558000F*%
%TF.FilePolarity,Positive*%
%TF.FileFunction,Copper,L1,Top,Signal*%
%TF.Part,Single*%
G01*
G75*
%TA.AperFunction,SMDPad,CuDef*%
%ADD10R,0.0236X0.0250*%
%ADD11R,0.0472X0.0236*%
%ADD12R,0.0787X0.0600*%
%TA.AperFunction,BGAPad,CuDef*%
%ADD13R,0.0354X0.0354*%
%TA.AperFunction,SMDPad,CuDef*%
%ADD14R,0.0591X0.0354*%
%ADD15R,0.0354X0.0591*%
%ADD16R,0.0250X0.0236*%
%ADD17R,0.0472X0.0256*%
%ADD18R,0.1181X0.1575*%
%ADD19R,0.0394X0.0380*%
%TA.AperFunction,ConnectorPad*%
%ADD20R,0.0630X0.0236*%
%ADD21R,0.0709X0.0472*%
%TA.AperFunction,SMDPad,CuDef*%
%ADD22R,0.0118X0.0226*%
%ADD23R,0.0098X0.0226*%
%ADD24R,0.0248X0.0138*%
%ADD25R,0.0709X0.1260*%
%ADD26R,0.1339X0.1067*%
%ADD27R,0.0256X0.0600*%
%ADD28R,0.0118X0.0433*%
%ADD29R,0.0236X0.0433*%
%ADD30R,0.0177X0.0335*%
%ADD31R,0.0984X0.0630*%
%ADD32R,0.0098X0.0187*%
%ADD33R,0.0187X0.0098*%
%ADD34R,0.0236X0.0118*%
%ADD35R,0.0118X0.0236*%
%ADD36R,0.0600X0.0787*%
%ADD37R,0.0187X0.0118*%
%ADD38R,0.1378X0.0906*%
%ADD39R,0.1260X0.0709*%
%ADD40R,0.0374X0.0571*%
%ADD41R,0.1280X0.0571*%
%ADD42R,0.0591X0.0450*%
%ADD43R,0.0189X0.0157*%
%ADD44R,0.0197X0.0423*%
%ADD45R,0.0543X0.0177*%
%ADD46R,0.0610X0.0561*%
%ADD47R,0.0512X0.0650*%
%ADD48R,0.0748X0.0709*%
%ADD49R,0.0748X0.0394*%
%ADD50R,0.0256X0.0413*%
%TA.AperFunction,ConnectorPad*%
%ADD51R,0.0256X0.0413*%
%TA.AperFunction,SMDPad,CuDef*%
%ADD52R,0.0157X0.0189*%
%ADD53R,0.0450X0.0591*%
%ADD54R,0.0380X0.0394*%
%TA.AperFunction,Conductor*%
%ADD55C,0.0118*%
%ADD56C,0.0079*%
%ADD57C,0.0157*%
%ADD58C,0.0236*%
%TA.AperFunction,ComponentPad*%
%ADD59C,0.0591*%
%ADD60C,0.0630*%
%ADD61R,0.0630X0.0630*%
%ADD62C,0.0433*%
%ADD63R,0.0433X0.0433*%
%ADD64O,0.0630X0.1181*%
%ADD65O,0.0748X0.0898*%
G04:AMPARAMS|DCode=66|XSize=33.5mil|YSize=33.5mil|CornerRadius=0mil|HoleSize=0mil|Usage=FLASHONLY|Rotation=270.000|XOffset=0mil|YOffset=0mil|HoleType=Round|Shape=Octagon|*
%AMOCTAGOND66*
4,1,8,-0.0084,-0.0167,0.0084,-0.0167,0.0167,-0.0084,0.0167,0.0084,0.0084,0.0167,-0.0084,0.0167,-0.0167,0.0084,-0.0167,-0.0084,-0.0084,-0.0167,0.0*
%
%ADD66OCTAGOND66*%

%ADD67C,0.0335*%
G04:AMPARAMS|DCode=68|XSize=63mil|YSize=63mil|CornerRadius=0mil|HoleSize=0mil|Usage=FLASHONLY|Rotation=90.000|XOffset=0mil|YOffset=0mil|HoleType=Round|Shape=Octagon|*
%AMOCTAGOND68*
4,1,8,0.0157,0.0315,-0.0157,0.0315,-0.0315,0.0157,-0.0315,-0.0157,-0.0157,-0.0315,0.0157,-0.0315,0.0315,-0.0157,0.0315,0.0157,0.0157,0.0315,0.0*
%
%ADD68OCTAGOND68*%

%TA.AperFunction,ViaPad*%
%ADD69C,0.2362*%
%TA.AperFunction,ComponentPad*%
%ADD70R,0.0433X0.0433*%
%TA.AperFunction,ViaPad*%
%ADD71C,0.0157*%
%ADD72C,0.0197*%
%ADD73C,0.0236*%
G36*
X37084Y318D02*
X318D01*
Y7241D01*
X315Y7244D01*
Y14911D01*
X1113D01*
Y15483D01*
X318D01*
Y17194D01*
X1113D01*
Y17767D01*
X1113D01*
Y17785D01*
X1113D01*
Y18357D01*
X318D01*
Y20068D01*
X1113D01*
Y20641D01*
X1113D01*
Y20659D01*
X1113D01*
Y21231D01*
X318D01*
Y22942D01*
X1113D01*
Y23515D01*
X318D01*
Y24359D01*
X1074D01*
Y24932D01*
X318D01*
Y26643D01*
X1074D01*
Y27215D01*
X318D01*
Y37084D01*
X26651D01*
Y34803D01*
X26662Y34721D01*
X26693Y34644D01*
X26744Y34579D01*
X26810Y34528D01*
X26886Y34496D01*
X26969Y34485D01*
X27588D01*
Y34261D01*
X27625D01*
Y34066D01*
X27568D01*
Y33930D01*
X27215D01*
Y33948D01*
X26926D01*
Y33690D01*
X27215D01*
Y33708D01*
X27568D01*
Y33542D01*
X27865D01*
Y34066D01*
X27847D01*
Y34261D01*
X27921D01*
Y32452D01*
X27863D01*
Y32102D01*
X28200D01*
Y32452D01*
X28103D01*
Y33823D01*
X28153Y33844D01*
X28203Y33794D01*
X28233Y33774D01*
X28257Y33769D01*
Y33659D01*
X28328D01*
X28333Y33634D01*
X28353Y33605D01*
X28610Y33348D01*
Y32027D01*
X28588Y32019D01*
X28533Y31963D01*
X28502Y31890D01*
Y31811D01*
X28533Y31738D01*
X28588Y31682D01*
X28661Y31652D01*
X28740D01*
X28813Y31682D01*
X28869Y31738D01*
X28899Y31811D01*
Y31890D01*
X28869Y31963D01*
X28813Y32019D01*
X28792Y32027D01*
Y33386D01*
X28785Y33421D01*
X28765Y33450D01*
X28553Y33662D01*
X28574Y33712D01*
X28615D01*
X28650Y33719D01*
X28680Y33739D01*
X28740Y33799D01*
X28786Y33779D01*
Y33774D01*
X28816Y33701D01*
X28848Y33669D01*
Y33659D01*
X28858D01*
X28872Y33645D01*
X28945Y33615D01*
X29024D01*
X29071Y33634D01*
X29121Y33604D01*
Y32452D01*
X29044D01*
Y32102D01*
X29381D01*
Y32452D01*
X29304D01*
Y34261D01*
X29534D01*
Y34066D01*
X29497D01*
Y33542D01*
X29794D01*
Y33708D01*
X30068D01*
Y33690D01*
X30357D01*
Y33948D01*
X30068D01*
Y33930D01*
X29794D01*
Y34066D01*
X29757D01*
Y34261D01*
X29814D01*
Y34485D01*
X30433D01*
X30515Y34496D01*
X30592Y34528D01*
X30658Y34579D01*
X30708Y34644D01*
X30740Y34721D01*
X30751Y34803D01*
Y37084D01*
X37084D01*
Y318D01*
D02*
G37*
%LPC*%
G36*
X15000Y37020D02*
X12953D01*
X12918Y37013D01*
X12888Y36994D01*
X12534Y36639D01*
X12514Y36610D01*
X12507Y36575D01*
Y36090D01*
X12491Y36079D01*
X12457Y36071D01*
X11607Y36922D01*
X11577Y36941D01*
X11542Y36948D01*
X11508Y36942D01*
X6575D01*
X6540Y36935D01*
X6510Y36915D01*
X5113Y35517D01*
X5093Y35488D01*
X5086Y35453D01*
Y34282D01*
X4891D01*
Y33946D01*
X5463D01*
Y34282D01*
X5268D01*
Y35415D01*
X6613Y36759D01*
X11511D01*
X12310Y35960D01*
Y35164D01*
X12317Y35129D01*
X12337Y35100D01*
X12383Y35054D01*
X12413Y35034D01*
X12448Y35027D01*
X13150D01*
X13184Y35034D01*
X13214Y35054D01*
X13325Y35165D01*
X13375Y35144D01*
X13375Y35129D01*
Y34819D01*
X13711D01*
Y34909D01*
X14055D01*
X14090Y34916D01*
X14120Y34936D01*
X14474Y35290D01*
X14494Y35319D01*
X14501Y35354D01*
Y36326D01*
X14705D01*
X14714Y36305D01*
X14769Y36249D01*
X14842Y36219D01*
X14921D01*
X14994Y36249D01*
X15050Y36305D01*
X15059Y36326D01*
X18269D01*
X18314Y36281D01*
Y36172D01*
X18119D01*
Y35836D01*
X18692D01*
X18693Y35834D01*
X18693Y35834D01*
X18729Y35810D01*
X18729Y35810D01*
X18731Y35810D01*
X18772Y35802D01*
X18808Y35770D01*
Y35685D01*
X19144D01*
Y35769D01*
X19826D01*
X19832Y35754D01*
X19888Y35698D01*
X19961Y35668D01*
X20039D01*
X20112Y35698D01*
X20168Y35754D01*
X20198Y35827D01*
Y35906D01*
X20168Y35979D01*
X20112Y36034D01*
X20039Y36065D01*
X19961D01*
X19888Y36034D01*
X19832Y35979D01*
X19820Y35951D01*
X19144D01*
Y36035D01*
X18808D01*
X18770Y36060D01*
X18728Y36069D01*
X18692Y36100D01*
Y36172D01*
X18497D01*
Y36319D01*
X18490Y36354D01*
X18470Y36383D01*
X18372Y36482D01*
X18342Y36502D01*
X18307Y36508D01*
X15059D01*
X15050Y36530D01*
X14994Y36586D01*
X14921Y36616D01*
X14842D01*
X14769Y36586D01*
X14714Y36530D01*
X14705Y36508D01*
X14501D01*
Y36568D01*
X14494Y36603D01*
X14474Y36632D01*
X14428Y36679D01*
X14398Y36698D01*
X14363Y36705D01*
X14224D01*
Y36782D01*
X13874D01*
Y36446D01*
X14224D01*
Y36523D01*
X14318D01*
Y36417D01*
Y35660D01*
X14268Y35650D01*
X14263Y35664D01*
X14207Y35719D01*
X14134Y35750D01*
X14104D01*
X13977Y35876D01*
Y35985D01*
X13666Y35985D01*
X13662Y35985D01*
X13662Y35990D01*
Y35990D01*
X13662Y35990D01*
Y36281D01*
X13654D01*
Y36446D01*
X13764D01*
Y36782D01*
X13414D01*
Y36446D01*
X13472D01*
Y36281D01*
X13464D01*
Y35954D01*
X13625Y35954D01*
X13629Y35954D01*
X13629Y35949D01*
Y35949D01*
X13629Y35949D01*
Y35778D01*
X13300D01*
Y35985D01*
X13278D01*
Y36281D01*
X13060D01*
X13060Y36281D01*
X13017Y36296D01*
X12995Y36349D01*
X12939Y36405D01*
X12866Y36435D01*
X12787D01*
X12740Y36415D01*
X12690Y36445D01*
Y36537D01*
X12990Y36838D01*
X14962D01*
X15211Y36589D01*
X15241Y36569D01*
X15276Y36562D01*
X19962D01*
X20664Y35861D01*
X20693Y35841D01*
X20728Y35834D01*
X22765D01*
Y35757D01*
X23337D01*
Y36093D01*
X22765D01*
Y36016D01*
X20766D01*
X20064Y36718D01*
X20035Y36738D01*
X20000Y36745D01*
X15313D01*
X15064Y36994D01*
X15035Y37013D01*
X15000Y37020D01*
D02*
G37*
G36*
X15163Y36188D02*
X15084D01*
X15011Y36157D01*
X14955Y36102D01*
X14925Y36029D01*
Y35950D01*
X14955Y35877D01*
X15011Y35821D01*
X15084Y35791D01*
X15163D01*
X15236Y35821D01*
X15291Y35877D01*
X15306Y35913D01*
X17135D01*
Y35836D01*
X17707D01*
Y36172D01*
X17135D01*
Y36095D01*
X15294D01*
X15291Y36102D01*
X15236Y36157D01*
X15163Y36188D01*
D02*
G37*
G36*
X24134Y36537D02*
X24055D01*
X23982Y36507D01*
X23926Y36451D01*
X23896Y36378D01*
Y36299D01*
X23926Y36226D01*
X23982Y36170D01*
X24003Y36162D01*
Y36093D01*
X23749D01*
Y35757D01*
X24322D01*
Y35871D01*
X24440D01*
X24475Y35840D01*
X24478Y35829D01*
Y35606D01*
X24814D01*
Y35956D01*
X24689D01*
X24665Y35991D01*
X24665Y35991D01*
X24596Y36061D01*
X24560Y36085D01*
X24517Y36093D01*
X24517Y36093D01*
X24322D01*
Y36093D01*
X24186D01*
Y36162D01*
X24207Y36170D01*
X24263Y36226D01*
X24293Y36299D01*
Y36378D01*
X24263Y36451D01*
X24207Y36507D01*
X24134Y36537D01*
D02*
G37*
G36*
X17707Y35424D02*
X17135D01*
Y35367D01*
X17038D01*
X17038Y35367D01*
X16995Y35359D01*
X16959Y35335D01*
X16959Y35335D01*
X16890Y35265D01*
X16866Y35229D01*
X16857Y35187D01*
X16857Y35187D01*
Y34377D01*
X16555Y34075D01*
X16531Y34039D01*
X16523Y33996D01*
X16523Y33996D01*
Y33883D01*
X15856D01*
Y33183D01*
X15856D01*
Y33156D01*
X15856D01*
Y32456D01*
X16743D01*
Y33156D01*
X16743D01*
Y33183D01*
X16743D01*
Y33763D01*
X16745Y33774D01*
X16745Y33774D01*
Y33950D01*
X17047Y34252D01*
X17047Y34252D01*
X17071Y34288D01*
X17080Y34331D01*
Y35141D01*
X17084Y35145D01*
X17135D01*
Y35088D01*
X17707D01*
Y35424D01*
D02*
G37*
G36*
X8504Y35750D02*
X8425D01*
X8352Y35719D01*
X8296Y35664D01*
X8266Y35591D01*
Y35512D01*
X8294Y35444D01*
Y35385D01*
X8119D01*
Y35328D01*
X8018D01*
X8003Y35343D01*
Y35536D01*
X7667D01*
Y35505D01*
X7510D01*
X7510Y35505D01*
X7468Y35496D01*
X7432Y35472D01*
X7432Y35472D01*
X7362Y35403D01*
X7338Y35367D01*
X7330Y35325D01*
X7330Y35325D01*
Y34092D01*
X7326Y34088D01*
X6940D01*
Y34145D01*
X6604D01*
Y34137D01*
X6554Y34116D01*
X6536Y34134D01*
X6500Y34158D01*
X6457Y34166D01*
X6448Y34215D01*
Y34282D01*
X6253D01*
Y34516D01*
X6254Y34517D01*
X6310Y34573D01*
X6340Y34646D01*
Y34725D01*
X6310Y34797D01*
X6254Y34853D01*
X6181Y34883D01*
X6102D01*
X6029Y34853D01*
X5974Y34797D01*
X5943Y34725D01*
Y34646D01*
X5974Y34573D01*
X6029Y34517D01*
X6031Y34516D01*
Y34282D01*
X5875D01*
Y33946D01*
X6210D01*
X6220Y33944D01*
X6411D01*
X6457Y33898D01*
X6493Y33874D01*
X6535Y33866D01*
X6604D01*
Y33795D01*
X6940D01*
Y33865D01*
X7372D01*
X7372Y33865D01*
X7414Y33874D01*
X7450Y33898D01*
X7520Y33967D01*
X7520Y33967D01*
X7544Y34003D01*
X7552Y34046D01*
X7552Y34046D01*
Y35278D01*
X7556Y35283D01*
X7667D01*
Y35186D01*
X7846D01*
X7893Y35138D01*
X7893Y35138D01*
X7929Y35114D01*
X7972Y35105D01*
X8119D01*
Y35048D01*
X8692D01*
Y35385D01*
X8644D01*
X8625Y35431D01*
X8633Y35439D01*
X8663Y35512D01*
Y35591D01*
X8633Y35664D01*
X8577Y35719D01*
X8504Y35750D01*
D02*
G37*
G36*
X23337Y35345D02*
X22765D01*
Y35288D01*
X22609D01*
X22609Y35288D01*
X22566Y35280D01*
X22530Y35256D01*
X22441Y35167D01*
X22417Y35131D01*
X22408Y35088D01*
X22408Y35088D01*
Y34007D01*
X22097Y33696D01*
X21367D01*
Y32996D01*
X21367D01*
Y32970D01*
X21367D01*
Y32270D01*
X22255D01*
Y32970D01*
X22255D01*
Y32996D01*
X22255D01*
Y33539D01*
X22598Y33883D01*
X22598Y33883D01*
X22622Y33919D01*
X22631Y33961D01*
X22631Y33961D01*
Y35042D01*
X22655Y35066D01*
X22765D01*
Y35009D01*
X23337D01*
Y35345D01*
D02*
G37*
G36*
X9676Y35385D02*
X9104D01*
Y35048D01*
X9305D01*
X9308Y35045D01*
X9374Y35018D01*
X9445D01*
X9511Y35045D01*
X9514Y35048D01*
X9676D01*
Y35385D01*
D02*
G37*
G36*
X35534Y36714D02*
X35332D01*
X35133Y36683D01*
X34941Y36620D01*
X34762Y36529D01*
X34598Y36410D01*
X34456Y36268D01*
X34337Y36105D01*
X34246Y35925D01*
X34184Y35733D01*
X34152Y35534D01*
Y35332D01*
X34184Y35133D01*
X34246Y34941D01*
X34337Y34762D01*
X34456Y34598D01*
X34598Y34456D01*
X34762Y34337D01*
X34941Y34246D01*
X35133Y34184D01*
X35332Y34152D01*
X35534D01*
X35733Y34184D01*
X35925Y34246D01*
X36105Y34337D01*
X36268Y34456D01*
X36410Y34598D01*
X36529Y34762D01*
X36620Y34941D01*
X36683Y35133D01*
X36714Y35332D01*
Y35534D01*
X36683Y35733D01*
X36620Y35925D01*
X36529Y36105D01*
X36410Y36268D01*
X36268Y36410D01*
X36105Y36529D01*
X35925Y36620D01*
X35733Y36683D01*
X35534Y36714D01*
D02*
G37*
G36*
X2069D02*
X1868D01*
X1669Y36683D01*
X1477Y36620D01*
X1297Y36529D01*
X1134Y36410D01*
X991Y36268D01*
X873Y36105D01*
X781Y35925D01*
X719Y35733D01*
X687Y35534D01*
Y35332D01*
X719Y35133D01*
X781Y34941D01*
X873Y34762D01*
X991Y34598D01*
X1134Y34456D01*
X1297Y34337D01*
X1477Y34246D01*
X1669Y34184D01*
X1868Y34152D01*
X2069D01*
X2269Y34184D01*
X2460Y34246D01*
X2640Y34337D01*
X2803Y34456D01*
X2946Y34598D01*
X3064Y34762D01*
X3156Y34941D01*
X3218Y35133D01*
X3250Y35332D01*
Y35534D01*
X3218Y35733D01*
X3156Y35925D01*
X3064Y36105D01*
X2946Y36268D01*
X2803Y36410D01*
X2640Y36529D01*
X2460Y36620D01*
X2269Y36683D01*
X2069Y36714D01*
D02*
G37*
G36*
X9676Y36133D02*
X9104D01*
Y35796D01*
X9676D01*
Y35853D01*
X9727D01*
X9731Y35849D01*
Y33720D01*
X9731Y33720D01*
X9740Y33677D01*
X9764Y33641D01*
X9833Y33572D01*
X9833Y33572D01*
X9869Y33548D01*
X9912Y33540D01*
X9912Y33540D01*
X9989D01*
Y33301D01*
X9989D01*
Y33263D01*
X9989D01*
Y32563D01*
X10877D01*
Y33263D01*
X10877D01*
Y33301D01*
X10877D01*
Y34001D01*
X9989D01*
X9954Y34035D01*
Y35895D01*
X9954Y35895D01*
X9945Y35938D01*
X9921Y35974D01*
X9921Y35974D01*
X9852Y36043D01*
X9816Y36067D01*
X9773Y36076D01*
X9773Y36076D01*
X9676D01*
Y36133D01*
D02*
G37*
G36*
X4696Y34001D02*
X3808D01*
Y33301D01*
X4081D01*
Y33245D01*
X3808D01*
Y32545D01*
X4696D01*
Y32764D01*
X4903D01*
X4954Y32774D01*
X4996Y32803D01*
X5211Y33017D01*
X5239Y33060D01*
X5249Y33110D01*
Y33198D01*
X5463D01*
Y33534D01*
X4891D01*
Y33198D01*
X4950D01*
X4970Y33148D01*
X4849Y33027D01*
X4696D01*
Y33245D01*
X4423D01*
Y33301D01*
X4696D01*
Y34001D01*
D02*
G37*
G36*
X32580Y33209D02*
X31200D01*
Y32539D01*
X32580D01*
Y33209D01*
D02*
G37*
G36*
X29794Y33151D02*
X29497D01*
Y32627D01*
X29555D01*
Y32481D01*
X29561Y32446D01*
X29581Y32417D01*
X29674Y32323D01*
Y32102D01*
X30011D01*
Y32186D01*
X30244D01*
X30381Y32049D01*
Y31351D01*
X27557D01*
X27217Y31691D01*
Y32049D01*
X27239Y32070D01*
X27273Y32102D01*
Y32102D01*
X27273Y32102D01*
X27609D01*
Y32452D01*
X27593D01*
X27572Y32502D01*
X27697Y32627D01*
X27865D01*
Y33151D01*
X27568D01*
Y32756D01*
X27377Y32565D01*
X27357Y32535D01*
X27350Y32500D01*
Y32452D01*
X27273D01*
Y32304D01*
X27252D01*
X27218Y32297D01*
X27188Y32278D01*
X27062Y32151D01*
X27042Y32121D01*
X27035Y32087D01*
Y31654D01*
X27042Y31619D01*
X27062Y31589D01*
X27455Y31195D01*
X27485Y31176D01*
X27520Y31169D01*
X31868D01*
X32426Y30610D01*
Y29882D01*
X32442Y29844D01*
X32480Y29828D01*
X33067D01*
X33072Y29817D01*
X33082Y29778D01*
X33061Y29747D01*
X33053Y29705D01*
X33053Y29705D01*
Y29578D01*
X32968D01*
Y29241D01*
X33016D01*
Y29066D01*
X32962D01*
Y28542D01*
X33259D01*
Y29066D01*
X33238D01*
Y29241D01*
X33318D01*
Y29578D01*
X33275D01*
Y29659D01*
X33444Y29828D01*
X33728D01*
Y28030D01*
X33717Y28026D01*
X33667Y27975D01*
X33640Y27910D01*
Y27838D01*
X33667Y27773D01*
X33717Y27722D01*
X33783Y27695D01*
X33855D01*
X33920Y27722D01*
X33971Y27773D01*
X33998Y27838D01*
Y27910D01*
X33971Y27975D01*
X33920Y28026D01*
X33910Y28030D01*
Y29828D01*
X34449D01*
X34449Y29828D01*
X34487Y29844D01*
X34487Y29844D01*
X34526Y29883D01*
X34542Y29921D01*
X34542Y29921D01*
Y30669D01*
X34526Y30708D01*
X34488Y30723D01*
X32571D01*
X31970Y31324D01*
X31940Y31344D01*
X31906Y31351D01*
X30564D01*
Y32087D01*
X30557Y32121D01*
X30537Y32151D01*
X30346Y32342D01*
X30317Y32361D01*
X30282Y32368D01*
X30011D01*
Y32452D01*
X29803D01*
X29737Y32519D01*
Y32627D01*
X29794D01*
Y33151D01*
D02*
G37*
G36*
X23633Y34656D02*
X22824D01*
Y33296D01*
X22860D01*
Y31488D01*
X22338Y30966D01*
X22331Y30956D01*
X22265Y30947D01*
X22255Y30955D01*
X22255Y30958D01*
Y31610D01*
X21367D01*
Y30910D01*
X21788D01*
Y30633D01*
X21781D01*
Y29932D01*
X22137D01*
Y30633D01*
X22130D01*
Y30874D01*
X22166Y30910D01*
X22231Y30910D01*
D01*
X22250Y30910D01*
X22287Y30894D01*
X22293Y30871D01*
X22293Y30871D01*
X22288Y30845D01*
X22288Y30823D01*
Y30633D01*
X22281D01*
Y29932D01*
X22637D01*
Y30633D01*
X22630D01*
Y30774D01*
X23153Y31296D01*
X23190Y31352D01*
X23203Y31417D01*
Y33296D01*
X23633D01*
Y34656D01*
D02*
G37*
G36*
X5877Y32570D02*
X5068D01*
Y31210D01*
X5072D01*
X5091Y31160D01*
X5050Y31119D01*
X5013Y31064D01*
X5000Y30998D01*
Y30827D01*
X4993D01*
Y30127D01*
X5349D01*
Y30827D01*
X5343D01*
Y30927D01*
X5396Y30981D01*
X5434Y31036D01*
X5447Y31102D01*
Y31210D01*
X5877D01*
Y32570D01*
D02*
G37*
G36*
X4696Y31885D02*
X3808D01*
Y31185D01*
X4356D01*
Y31142D01*
X4369Y31076D01*
X4406Y31021D01*
X4500Y30927D01*
Y30827D01*
X4493D01*
Y30127D01*
X4849D01*
Y30827D01*
X4843D01*
Y30998D01*
X4830Y31064D01*
X4792Y31119D01*
X4699Y31213D01*
Y31354D01*
X4696Y31370D01*
Y31885D01*
D02*
G37*
G36*
X3357Y32609D02*
X2548D01*
Y31249D01*
X2821D01*
Y31024D01*
X2831Y30973D01*
X2860Y30931D01*
X3185Y30606D01*
X3228Y30577D01*
X3278Y30567D01*
X3993D01*
Y30127D01*
X4349D01*
Y30827D01*
X4135D01*
X4122Y30830D01*
X3332D01*
X3084Y31078D01*
Y31249D01*
X3357D01*
Y32609D01*
D02*
G37*
G36*
X12294Y34774D02*
X11485D01*
Y34111D01*
X11482Y34094D01*
Y31685D01*
X10828Y31031D01*
X10790Y30975D01*
X10777Y30909D01*
Y30749D01*
X10761D01*
Y30048D01*
X11117D01*
Y30392D01*
X11120Y30408D01*
Y30838D01*
X11775Y31493D01*
X11812Y31549D01*
X11825Y31614D01*
Y33415D01*
X12294D01*
Y34774D01*
D02*
G37*
G36*
X10877Y31903D02*
X9989D01*
Y31203D01*
X10268D01*
Y30749D01*
X10261D01*
Y30048D01*
X10617D01*
Y30749D01*
X10610D01*
Y31203D01*
X10877D01*
Y31903D01*
D02*
G37*
G36*
X9420Y34774D02*
X8611D01*
Y33415D01*
X8962D01*
Y33150D01*
X8975Y33084D01*
X9013Y33028D01*
X9277Y32764D01*
Y31061D01*
X9290Y30995D01*
X9328Y30940D01*
X9761Y30506D01*
Y30048D01*
X10117D01*
Y30749D01*
X10003D01*
X9620Y31132D01*
Y32835D01*
X9607Y32900D01*
X9570Y32956D01*
X9305Y33221D01*
Y33415D01*
X9420D01*
Y34774D01*
D02*
G37*
G36*
X21034Y34735D02*
X20226D01*
Y33375D01*
X20459D01*
Y30669D01*
X20472Y30604D01*
X20509Y30548D01*
X20895Y30161D01*
X20951Y30124D01*
X21017Y30111D01*
X21281D01*
Y29932D01*
X21637D01*
Y30633D01*
X21281D01*
Y30454D01*
X21088D01*
X20801Y30740D01*
Y33375D01*
X21034D01*
Y34735D01*
D02*
G37*
G36*
X18003Y34932D02*
X17194D01*
Y33572D01*
X17427D01*
Y33457D01*
X17162Y33192D01*
X17125Y33136D01*
X17112Y33071D01*
Y31370D01*
X16723Y30981D01*
X16686Y30926D01*
X16673Y30860D01*
Y30631D01*
X16667D01*
Y29930D01*
X17022D01*
Y30631D01*
X17016D01*
Y30789D01*
X17405Y31178D01*
X17442Y31234D01*
X17455Y31299D01*
Y33000D01*
X17720Y33265D01*
X17757Y33320D01*
X17770Y33386D01*
Y33572D01*
X18003D01*
Y34932D01*
D02*
G37*
G36*
X16743Y31796D02*
X15856D01*
Y31096D01*
X16173D01*
Y30631D01*
X16167D01*
Y29930D01*
X16522D01*
Y30631D01*
X16516D01*
Y31096D01*
X16743D01*
Y31796D01*
D02*
G37*
G36*
X15286Y34893D02*
X14478D01*
Y33533D01*
X14710D01*
Y33150D01*
X14724Y33084D01*
X14761Y33028D01*
X15144Y32646D01*
Y30419D01*
X15157Y30353D01*
X15194Y30297D01*
X15332Y30159D01*
X15388Y30122D01*
X15453Y30109D01*
X15667D01*
Y29930D01*
X16022D01*
Y30631D01*
X15667D01*
Y30452D01*
X15524D01*
X15486Y30490D01*
Y32717D01*
X15473Y32782D01*
X15436Y32838D01*
X15053Y33221D01*
Y33533D01*
X15286D01*
Y34893D01*
D02*
G37*
G36*
X12034Y29057D02*
X11955D01*
X11882Y29026D01*
X11882Y29026D01*
X11819D01*
Y28954D01*
X11796Y28898D01*
Y28819D01*
X11819Y28762D01*
Y28690D01*
X11877D01*
Y28540D01*
X11873Y28536D01*
X11617D01*
Y28613D01*
X11261D01*
Y28204D01*
X11239Y28150D01*
Y28071D01*
X11261Y28017D01*
Y27913D01*
X11395D01*
X11398Y27912D01*
X11476D01*
X11479Y27913D01*
X11617D01*
Y28026D01*
X11635Y28071D01*
Y28150D01*
X11617Y28194D01*
Y28314D01*
X11919D01*
X11919Y28314D01*
X11962Y28322D01*
X11998Y28347D01*
X12067Y28416D01*
X12067Y28416D01*
X12091Y28452D01*
X12099Y28494D01*
X12099Y28494D01*
Y28687D01*
X12107Y28690D01*
X12107Y28690D01*
X12169D01*
Y28762D01*
X12193Y28819D01*
Y28898D01*
X12169Y28954D01*
Y29026D01*
X12107D01*
X12107Y29026D01*
X12034Y29057D01*
D02*
G37*
G36*
X32127Y30611D02*
X31653D01*
Y29940D01*
X31732D01*
Y29715D01*
X31562D01*
Y29025D01*
X31700D01*
Y28300D01*
X30366D01*
X30365Y28301D01*
X30309Y28357D01*
X30236Y28387D01*
X30157D01*
X30084Y28357D01*
X30029Y28301D01*
X29998Y28228D01*
Y28150D01*
X30029Y28077D01*
X30084Y28021D01*
X30157Y27991D01*
X30236D01*
X30309Y28021D01*
X30365Y28077D01*
X30366Y28078D01*
X31700D01*
Y24535D01*
X31700Y24535D01*
X31708Y24493D01*
X31732Y24457D01*
X34637Y21552D01*
X34616Y21515D01*
X34589Y21414D01*
Y21310D01*
X34616Y21210D01*
X34668Y21119D01*
X34742Y21046D01*
X34832Y20994D01*
X34932Y20967D01*
X35036D01*
X35137Y20994D01*
X35227Y21046D01*
X35301Y21119D01*
X35353Y21210D01*
X35380Y21310D01*
Y21414D01*
X35353Y21515D01*
X35301Y21605D01*
X35227Y21679D01*
X35137Y21731D01*
X35036Y21757D01*
X34932D01*
X34832Y21731D01*
X34795Y21709D01*
X31922Y24581D01*
Y28150D01*
X31922Y28150D01*
X31922Y28150D01*
Y29025D01*
X32112D01*
Y29715D01*
X31994D01*
Y29940D01*
X32127D01*
Y30611D01*
D02*
G37*
G36*
X23445Y28702D02*
X23366D01*
X23293Y28672D01*
X23293Y28672D01*
X23237D01*
Y28615D01*
X23207Y28543D01*
Y28464D01*
X23237Y28393D01*
Y28336D01*
X23293D01*
X23293Y28336D01*
X23294Y28335D01*
Y28258D01*
X23137D01*
Y28497D01*
X22781D01*
Y27797D01*
X23137D01*
Y28036D01*
X24361D01*
X24415Y27981D01*
X24488Y27951D01*
X24567D01*
X24640Y27981D01*
X24696Y28037D01*
X24726Y28110D01*
Y28189D01*
X24696Y28262D01*
X24640Y28318D01*
X24567Y28348D01*
X24488D01*
X24415Y28318D01*
X24359Y28262D01*
X24358Y28258D01*
X23517D01*
Y28335D01*
X23518Y28336D01*
X23518Y28336D01*
X23587D01*
Y28423D01*
X23604Y28464D01*
Y28543D01*
X23587Y28585D01*
Y28672D01*
X23518D01*
X23518Y28672D01*
X23445Y28702D01*
D02*
G37*
G36*
X17867Y28860D02*
X17788D01*
X17715Y28830D01*
X17715Y28830D01*
X17652D01*
Y28757D01*
X17629Y28701D01*
Y28622D01*
X17652Y28565D01*
Y28493D01*
X17715D01*
X17715Y28493D01*
X17716Y28493D01*
Y28366D01*
X17607Y28256D01*
X17522D01*
Y28495D01*
X17167D01*
Y27795D01*
X17522D01*
Y28034D01*
X17653D01*
X17653Y28034D01*
X17695Y28042D01*
X17731Y28066D01*
X17906Y28241D01*
X17930Y28277D01*
X17939Y28320D01*
Y28493D01*
X17940Y28493D01*
X17940Y28493D01*
X18002D01*
Y28565D01*
X18026Y28622D01*
Y28701D01*
X18002Y28757D01*
Y28830D01*
X17940D01*
X17940Y28830D01*
X17867Y28860D01*
D02*
G37*
G36*
X11117Y28613D02*
X10761D01*
Y28301D01*
X10760Y28299D01*
Y28227D01*
X10761Y28225D01*
Y27913D01*
X11117D01*
Y28225D01*
X11118Y28227D01*
Y28299D01*
X11117Y28301D01*
Y28613D01*
D02*
G37*
G36*
X10617D02*
X10261D01*
Y28301D01*
X10260Y28299D01*
Y28227D01*
X10261Y28225D01*
Y27913D01*
X10617D01*
Y28225D01*
X10618Y28227D01*
Y28299D01*
X10617Y28301D01*
Y28613D01*
D02*
G37*
G36*
X22637Y28497D02*
X22281D01*
Y28186D01*
X22280Y28183D01*
Y28111D01*
X22281Y28109D01*
Y27797D01*
X22637D01*
Y28109D01*
X22638Y28111D01*
Y28183D01*
X22637Y28186D01*
Y28497D01*
D02*
G37*
G36*
X22137D02*
X21781D01*
Y28186D01*
X21780Y28183D01*
Y28111D01*
X21781Y28109D01*
Y27797D01*
X22137D01*
Y28109D01*
X22138Y28111D01*
Y28183D01*
X22137Y28186D01*
Y28497D01*
D02*
G37*
G36*
X17022Y28495D02*
X16667D01*
Y28183D01*
X16665Y28181D01*
Y28109D01*
X16667Y28106D01*
Y27795D01*
X17022D01*
Y28106D01*
X17024Y28109D01*
Y28181D01*
X17022Y28183D01*
Y28495D01*
D02*
G37*
G36*
X16522D02*
X16167D01*
Y28183D01*
X16165Y28181D01*
Y28109D01*
X16167Y28106D01*
Y27795D01*
X16522D01*
Y28106D01*
X16524Y28109D01*
Y28181D01*
X16522Y28183D01*
Y28495D01*
D02*
G37*
G36*
X14291Y31786D02*
X14291Y31786D01*
X12815D01*
X12777Y31771D01*
X12777Y31771D01*
X11887Y30881D01*
X11262D01*
X11224Y30865D01*
X11208Y30827D01*
Y30057D01*
X11224Y30018D01*
X11224Y30018D01*
X11241Y30001D01*
X11280Y29985D01*
X11280Y29985D01*
X12500D01*
X12538Y30001D01*
X12538Y30001D01*
X12601Y30064D01*
X13051D01*
X13686Y30064D01*
Y28172D01*
X13127Y27613D01*
X9444D01*
Y30571D01*
X9428Y30609D01*
X9428Y30609D01*
X9172Y30865D01*
X9172Y30865D01*
X9171Y30866D01*
X9153Y30873D01*
X9134Y30881D01*
X9133Y30881D01*
X9133Y30881D01*
X8043Y30863D01*
X8007Y30898D01*
Y31575D01*
X8007Y31575D01*
X7991Y31613D01*
X7991Y31613D01*
X7873Y31731D01*
X7835Y31747D01*
X7835Y31747D01*
X6772D01*
X6772Y31747D01*
X6733Y31731D01*
X6733Y31731D01*
X6001Y30999D01*
X5630D01*
X5630Y30999D01*
X5592Y30983D01*
X5592Y30983D01*
X5474Y30865D01*
X5458Y30827D01*
X5458Y30827D01*
Y30118D01*
X5474Y30080D01*
X5512Y30064D01*
X6631D01*
X6812Y29883D01*
X6850Y29867D01*
X6850Y29867D01*
X8529D01*
Y18225D01*
X8479Y18215D01*
X8475Y18223D01*
X8419Y18278D01*
X8347Y18309D01*
X8268D01*
X8246Y18300D01*
X8096Y18450D01*
X8066Y18470D01*
X8031Y18477D01*
X7518D01*
X7514Y18487D01*
X7464Y18538D01*
X7398Y18565D01*
X7327D01*
X7261Y18538D01*
X7210Y18487D01*
X7183Y18421D01*
Y18350D01*
X7210Y18284D01*
X7261Y18234D01*
X7327Y18207D01*
X7398D01*
X7464Y18234D01*
X7514Y18284D01*
X7518Y18295D01*
X7994D01*
X8117Y18171D01*
X8109Y18150D01*
Y18071D01*
X8139Y17998D01*
X8195Y17942D01*
X8268Y17912D01*
X8347D01*
X8419Y17942D01*
X8475Y17998D01*
X8479Y18006D01*
X8529Y17996D01*
Y13007D01*
X6811D01*
X6811Y13007D01*
X6773Y12991D01*
X6773Y12991D01*
X6733Y12952D01*
X6718Y12913D01*
X6718Y12913D01*
Y11473D01*
X6693Y11432D01*
X6655Y11416D01*
X6635Y11397D01*
X6601Y11412D01*
X6590Y11422D01*
Y11474D01*
X6613Y11497D01*
X6626Y11528D01*
X6629Y11535D01*
X6613Y11574D01*
X6613Y11574D01*
X6590Y11597D01*
Y13465D01*
X6590Y13465D01*
Y13661D01*
X6574Y13700D01*
X6535Y13716D01*
X2913D01*
X2913Y13716D01*
X2875Y13700D01*
X1733Y12558D01*
X1718Y12520D01*
X1718Y12520D01*
Y11417D01*
X1733Y11379D01*
X1772Y11363D01*
X6531D01*
X6541Y11351D01*
X6556Y11318D01*
X6222Y10983D01*
X6206Y10945D01*
X6206Y10945D01*
Y8150D01*
X6206Y8150D01*
X6222Y8111D01*
X6655Y7678D01*
X6693Y7662D01*
X6693Y7662D01*
X11378D01*
X11416Y7678D01*
X11432Y7717D01*
Y8504D01*
X11416Y8542D01*
X11416Y8542D01*
X11180Y8778D01*
X11142Y8794D01*
X11142Y8794D01*
X8637D01*
Y11914D01*
X10354D01*
X10393Y11930D01*
X10393Y11930D01*
X10471Y12009D01*
X10487Y12047D01*
X10487Y12047D01*
Y12953D01*
X10487Y12953D01*
X10471Y12991D01*
X10471Y12991D01*
X9857Y13605D01*
Y22287D01*
X9907Y22297D01*
X9911Y22289D01*
X9966Y22233D01*
X10039Y22203D01*
X10118D01*
X10191Y22233D01*
X10247Y22289D01*
X10277Y22362D01*
Y22441D01*
X10247Y22514D01*
X10191Y22570D01*
X10170Y22579D01*
Y25286D01*
X10281Y25397D01*
X10417D01*
X10420Y25385D01*
X10455Y25324D01*
X10505Y25274D01*
X10518Y25267D01*
Y25209D01*
X10505Y25202D01*
X10455Y25152D01*
X10420Y25091D01*
X10402Y25023D01*
Y24953D01*
X10420Y24885D01*
X10455Y24824D01*
X10505Y24774D01*
X10518Y24767D01*
Y24709D01*
X10505Y24702D01*
X10455Y24652D01*
X10420Y24591D01*
X10402Y24523D01*
Y24453D01*
X10420Y24385D01*
X10455Y24324D01*
X10505Y24274D01*
X10566Y24239D01*
X10634Y24221D01*
X10704D01*
X10772Y24239D01*
X10783Y24245D01*
X11668Y23361D01*
X11671Y23359D01*
X11656Y23309D01*
X11653D01*
X11581Y23278D01*
X11525Y23223D01*
X11494Y23150D01*
Y23071D01*
X11525Y22998D01*
X11538Y22984D01*
X11529Y22935D01*
X11502Y22924D01*
X11446Y22868D01*
X11416Y22795D01*
Y22716D01*
X11446Y22644D01*
X11502Y22588D01*
X11575Y22557D01*
X11654D01*
X11727Y22588D01*
X11782Y22644D01*
X11791Y22665D01*
X13387D01*
X16759Y19293D01*
Y15906D01*
X16766Y15871D01*
X16786Y15841D01*
X17691Y14936D01*
X17721Y14916D01*
X17756Y14909D01*
X19490D01*
X21897Y12502D01*
X21888Y12480D01*
Y12401D01*
X21918Y12329D01*
X21974Y12273D01*
X22047Y12243D01*
X22126D01*
X22199Y12273D01*
X22255Y12329D01*
X22285Y12401D01*
Y12480D01*
X22255Y12553D01*
X22199Y12609D01*
X22126Y12639D01*
X22076D01*
X22068Y12649D01*
X22082Y12708D01*
X22085Y12710D01*
X22141Y12766D01*
X22171Y12839D01*
Y12917D01*
X22141Y12990D01*
X22085Y13046D01*
X22012Y13076D01*
X21933D01*
X21912Y13068D01*
X19600Y15379D01*
X19570Y15399D01*
X19536Y15406D01*
X17833D01*
X17178Y16061D01*
Y19449D01*
X17171Y19484D01*
X17151Y19513D01*
X13490Y23175D01*
X13460Y23194D01*
X13425Y23201D01*
X11870D01*
X11861Y23223D01*
X11805Y23278D01*
X11792Y23284D01*
X11802Y23334D01*
X13506D01*
X17704Y19135D01*
Y19014D01*
X17580Y18890D01*
X17559Y18899D01*
X17480D01*
X17407Y18869D01*
X17351Y18813D01*
X17321Y18740D01*
Y18661D01*
X17351Y18588D01*
X17398Y18542D01*
X17397Y18501D01*
X17391Y18485D01*
X17368Y18475D01*
X17312Y18419D01*
X17282Y18347D01*
Y18268D01*
X17312Y18195D01*
X17368Y18139D01*
X17441Y18109D01*
X17520D01*
X17593Y18139D01*
X17649Y18195D01*
X17679Y18268D01*
Y18347D01*
X17670Y18368D01*
X18135Y18833D01*
X18155Y18863D01*
X18162Y18898D01*
Y19291D01*
X18155Y19326D01*
X18135Y19356D01*
X13706Y23785D01*
X13677Y23805D01*
X13642Y23812D01*
X11987D01*
X11375Y24424D01*
Y25442D01*
X11368Y25477D01*
X11348Y25506D01*
X11302Y25553D01*
X11272Y25572D01*
X11237Y25579D01*
X10922D01*
X10918Y25591D01*
X10883Y25652D01*
X10844Y25691D01*
X10837Y25736D01*
X10839Y25757D01*
X10937Y25855D01*
Y26122D01*
X10803Y26256D01*
X10536D01*
X10402Y26122D01*
Y25855D01*
X10500Y25757D01*
X10502Y25736D01*
X10494Y25691D01*
X10455Y25652D01*
X10420Y25591D01*
X10417Y25579D01*
X10243D01*
X10208Y25572D01*
X10179Y25553D01*
X10014Y25388D01*
X9995Y25359D01*
X9988Y25324D01*
Y22579D01*
X9966Y22570D01*
X9911Y22514D01*
X9907Y22506D01*
X9857Y22516D01*
Y26521D01*
X25079D01*
X25079Y26521D01*
X25117Y26537D01*
X26062Y27481D01*
X26078Y27520D01*
X26078Y27520D01*
Y31260D01*
X26062Y31298D01*
X25708Y31652D01*
X25669Y31668D01*
X25669Y31668D01*
X23996D01*
X23996Y31668D01*
X23958Y31652D01*
X23029Y30723D01*
X22776D01*
X22737Y30708D01*
X22721Y30669D01*
Y29921D01*
X22737Y29883D01*
X22776Y29867D01*
X25155D01*
X25182Y29840D01*
X25182Y28133D01*
X24466Y27416D01*
X20172D01*
Y31693D01*
X20156Y31731D01*
X20118Y31747D01*
X18563D01*
X18563Y31747D01*
X18525Y31731D01*
X18525Y31731D01*
X17674Y30881D01*
X17382D01*
X17382Y30881D01*
X17344Y30865D01*
X17147Y30668D01*
X17131Y30630D01*
X17131Y30630D01*
Y29921D01*
X17147Y29883D01*
X17185Y29867D01*
X18012D01*
X18012Y29867D01*
X18050Y29883D01*
X18050Y29883D01*
X18152Y29985D01*
X18316D01*
Y29976D01*
X18652D01*
Y29985D01*
X19158D01*
Y27739D01*
X18915Y27495D01*
X15384D01*
X15365Y27541D01*
X15368Y27544D01*
X15398Y27617D01*
Y27696D01*
X15368Y27769D01*
X15320Y27817D01*
Y29733D01*
X15341Y29742D01*
X15397Y29798D01*
X15427Y29870D01*
Y29949D01*
X15397Y30022D01*
X15341Y30078D01*
X15269Y30108D01*
X15190D01*
X15117Y30078D01*
X15067Y30028D01*
X15013Y30028D01*
X15011Y30034D01*
X14955Y30089D01*
X14882Y30120D01*
X14803D01*
X14730Y30089D01*
X14674Y30034D01*
X14671Y30026D01*
X14621Y30036D01*
Y31457D01*
X14621Y31457D01*
X14605Y31495D01*
X14605Y31495D01*
X14330Y31771D01*
X14291Y31786D01*
D02*
G37*
G36*
X5849Y28692D02*
X5493D01*
Y28380D01*
X5492Y28377D01*
Y28306D01*
X5493Y28303D01*
Y27992D01*
X5604D01*
Y27943D01*
X5604Y27943D01*
X5612Y27901D01*
X5637Y27865D01*
X5706Y27795D01*
X5706Y27795D01*
X5742Y27771D01*
X5784Y27763D01*
X5784Y27763D01*
X6058D01*
Y27706D01*
X6109D01*
Y27452D01*
X6108Y27452D01*
X6052Y27396D01*
X6022Y27323D01*
Y27244D01*
X6052Y27171D01*
X6108Y27115D01*
X6181Y27085D01*
X6260D01*
X6333Y27115D01*
X6389Y27171D01*
X6419Y27244D01*
Y27323D01*
X6389Y27396D01*
X6333Y27452D01*
X6332Y27452D01*
Y27706D01*
X6408D01*
Y28042D01*
X6058D01*
Y27985D01*
X5897D01*
X5849Y27992D01*
Y28303D01*
X5850Y28306D01*
Y28377D01*
X5849Y28380D01*
Y28692D01*
D02*
G37*
G36*
X33259Y28151D02*
X32962D01*
Y27627D01*
X32999D01*
Y26181D01*
X32999Y26181D01*
X33008Y26139D01*
X33032Y26102D01*
X33347Y25788D01*
X33347Y25788D01*
X33383Y25763D01*
X33425Y25755D01*
X33425Y25755D01*
X34567D01*
X34567Y25755D01*
X34609Y25763D01*
X34646Y25788D01*
X34780Y25922D01*
X34804Y25958D01*
X34813Y26001D01*
X34813Y26001D01*
Y26052D01*
X34853D01*
Y26310D01*
X34853Y26310D01*
X34853D01*
X34887Y26344D01*
X35076Y26533D01*
X35459D01*
X35459Y26533D01*
X35469Y26535D01*
X35810D01*
Y26791D01*
Y27046D01*
Y27302D01*
Y27580D01*
X35167D01*
Y27356D01*
X35117Y27335D01*
X34893Y27559D01*
Y27688D01*
X34604D01*
Y27559D01*
X34380Y27335D01*
X33967D01*
X33898Y27364D01*
X33819D01*
X33746Y27334D01*
X33690Y27278D01*
X33660Y27205D01*
Y27126D01*
X33690Y27053D01*
X33746Y26997D01*
X33819Y26967D01*
X33898D01*
X33971Y26997D01*
X34026Y27053D01*
X34057Y27126D01*
Y27153D01*
X34417D01*
X34452Y27160D01*
X34482Y27180D01*
X34732Y27430D01*
X34764D01*
X35073Y27121D01*
X35103Y27101D01*
X35138Y27094D01*
X35167D01*
Y27020D01*
X34893D01*
Y27058D01*
X34604D01*
Y26980D01*
X34571Y26974D01*
X34542Y26954D01*
X34175Y26587D01*
X33917D01*
X33908Y26608D01*
X33853Y26664D01*
X33780Y26694D01*
X33701D01*
X33628Y26664D01*
X33572Y26608D01*
X33542Y26536D01*
Y26457D01*
X33572Y26384D01*
X33628Y26328D01*
X33701Y26298D01*
X33780D01*
X33853Y26328D01*
X33908Y26384D01*
X33917Y26405D01*
X34213D01*
X34247Y26412D01*
X34277Y26432D01*
X34644Y26799D01*
X34709D01*
X34717Y26800D01*
X34893D01*
Y26838D01*
X35167D01*
Y26755D01*
X35030D01*
X35030Y26755D01*
X34987Y26746D01*
X34951Y26722D01*
X34951Y26722D01*
X34653Y26424D01*
X34629Y26388D01*
X34620Y26346D01*
X34589Y26310D01*
X34564D01*
Y26052D01*
X34564D01*
X34551Y26008D01*
X34521Y25977D01*
X33471D01*
X33221Y26227D01*
Y27627D01*
X33259D01*
Y28151D01*
D02*
G37*
G36*
X2244Y26576D02*
X2165D01*
X2092Y26546D01*
X2069Y26522D01*
X2018Y26543D01*
Y26546D01*
X1289D01*
Y26210D01*
X2018D01*
Y26213D01*
X2061Y26231D01*
X2093Y26207D01*
Y26155D01*
X2061Y26132D01*
X2018Y26149D01*
Y26152D01*
X1289D01*
Y25816D01*
X2018D01*
Y25819D01*
X2069Y25840D01*
X2092Y25816D01*
X2165Y25786D01*
X2244D01*
X2317Y25816D01*
X2373Y25872D01*
X2403Y25945D01*
Y26024D01*
X2373Y26097D01*
X2317Y26152D01*
X2308Y26156D01*
Y26206D01*
X2317Y26210D01*
X2373Y26266D01*
X2403Y26338D01*
Y26417D01*
X2373Y26490D01*
X2317Y26546D01*
X2244Y26576D01*
D02*
G37*
G36*
X2323Y25395D02*
X2244D01*
X2171Y25365D01*
X2115Y25309D01*
X2106Y25288D01*
X2018D01*
Y25365D01*
X1289D01*
Y25029D01*
X2018D01*
Y25106D01*
X2106D01*
X2115Y25084D01*
X2171Y25029D01*
X2244Y24998D01*
X2323D01*
X2396Y25029D01*
X2452Y25084D01*
X2482Y25157D01*
Y25236D01*
X2452Y25309D01*
X2396Y25365D01*
X2323Y25395D01*
D02*
G37*
G36*
X31102Y27049D02*
X31024D01*
X30951Y27019D01*
X30895Y26963D01*
X30865Y26890D01*
Y26811D01*
X30895Y26738D01*
X30951Y26682D01*
X30972Y26673D01*
Y24646D01*
X30979Y24611D01*
X30983Y24605D01*
X30963Y24551D01*
X30962Y24549D01*
X30939Y24544D01*
X30800Y24683D01*
Y26319D01*
X30821Y26328D01*
X30877Y26384D01*
X30907Y26457D01*
Y26536D01*
X30877Y26608D01*
X30821Y26664D01*
X30748Y26694D01*
X30669D01*
X30596Y26664D01*
X30540Y26608D01*
X30510Y26536D01*
Y26457D01*
X30540Y26384D01*
X30596Y26328D01*
X30618Y26319D01*
Y24646D01*
X30624Y24611D01*
X30644Y24581D01*
X30834Y24391D01*
X30825Y24370D01*
Y24291D01*
X30855Y24218D01*
X30911Y24162D01*
X30984Y24132D01*
X31063D01*
X31136Y24162D01*
X31192Y24218D01*
X31208Y24258D01*
X31258Y24248D01*
Y24213D01*
X31288Y24140D01*
X31344Y24084D01*
X31417Y24054D01*
X31496D01*
X31569Y24084D01*
X31625Y24140D01*
X31655Y24213D01*
Y24291D01*
X31625Y24364D01*
X31569Y24420D01*
X31496Y24450D01*
X31417D01*
X31396Y24442D01*
X31154Y24683D01*
Y26673D01*
X31175Y26682D01*
X31231Y26738D01*
X31261Y26811D01*
Y26890D01*
X31231Y26963D01*
X31175Y27019D01*
X31102Y27049D01*
D02*
G37*
G36*
X5349Y28692D02*
X4993D01*
Y28380D01*
X4992Y28377D01*
Y28306D01*
X4993Y28303D01*
Y27992D01*
X5080D01*
Y25616D01*
X5087Y25581D01*
X5107Y25552D01*
X6825Y23833D01*
X6855Y23813D01*
X6890Y23807D01*
X7933D01*
X7942Y23785D01*
X7998Y23729D01*
X8049Y23708D01*
Y23654D01*
X7998Y23633D01*
X7942Y23577D01*
X7933Y23556D01*
X6928D01*
X4762Y25721D01*
Y27992D01*
X4849D01*
Y28303D01*
X4850Y28306D01*
Y28377D01*
X4849Y28380D01*
Y28692D01*
X4493D01*
Y28380D01*
X4492Y28377D01*
Y28306D01*
X4493Y28303D01*
Y27992D01*
X4580D01*
Y25683D01*
X4587Y25648D01*
X4607Y25619D01*
X6825Y23400D01*
X6855Y23380D01*
X6890Y23373D01*
X7933D01*
X7942Y23352D01*
X7998Y23296D01*
X8071Y23266D01*
X8150D01*
X8223Y23296D01*
X8278Y23352D01*
X8309Y23425D01*
Y23504D01*
X8278Y23577D01*
X8223Y23633D01*
X8171Y23654D01*
Y23708D01*
X8223Y23729D01*
X8278Y23785D01*
X8309Y23858D01*
Y23937D01*
X8278Y24010D01*
X8223Y24066D01*
X8150Y24096D01*
X8071D01*
X7998Y24066D01*
X7942Y24010D01*
X7933Y23989D01*
X6928D01*
X5262Y25654D01*
Y27992D01*
X5349D01*
Y28303D01*
X5350Y28306D01*
Y28377D01*
X5349Y28380D01*
Y28692D01*
D02*
G37*
G36*
X36036Y23757D02*
X35932D01*
X35832Y23731D01*
X35742Y23679D01*
X35668Y23605D01*
X35616Y23515D01*
X35589Y23414D01*
Y23310D01*
X35616Y23210D01*
X35668Y23119D01*
X35742Y23046D01*
X35832Y22994D01*
X35932Y22967D01*
X36036D01*
X36137Y22994D01*
X36227Y23046D01*
X36301Y23119D01*
X36353Y23210D01*
X36380Y23310D01*
Y23414D01*
X36353Y23515D01*
X36301Y23605D01*
X36227Y23679D01*
X36137Y23731D01*
X36036Y23757D01*
D02*
G37*
G36*
X35036D02*
X34932D01*
X34832Y23731D01*
X34742Y23679D01*
X34668Y23605D01*
X34616Y23515D01*
X34589Y23414D01*
Y23310D01*
X34616Y23210D01*
X34668Y23119D01*
X34742Y23046D01*
X34832Y22994D01*
X34932Y22967D01*
X35036D01*
X35137Y22994D01*
X35227Y23046D01*
X35301Y23119D01*
X35353Y23210D01*
X35380Y23310D01*
Y23414D01*
X35353Y23515D01*
X35301Y23605D01*
X35227Y23679D01*
X35137Y23731D01*
X35036Y23757D01*
D02*
G37*
G36*
X2205Y22876D02*
X2126D01*
X2053Y22845D01*
X2053Y22845D01*
X1328D01*
Y22509D01*
X2001D01*
X2021Y22459D01*
X2013Y22452D01*
X1328D01*
Y22115D01*
X2053D01*
X2053Y22115D01*
X2126Y22085D01*
X2205D01*
X2278Y22115D01*
X2334Y22171D01*
X2364Y22244D01*
Y22323D01*
X2334Y22396D01*
X2278Y22452D01*
X2269Y22455D01*
Y22505D01*
X2278Y22509D01*
X2334Y22565D01*
X2364Y22638D01*
Y22717D01*
X2334Y22790D01*
X2278Y22845D01*
X2205Y22876D01*
D02*
G37*
G36*
X36036Y22757D02*
X35932D01*
X35832Y22731D01*
X35742Y22678D01*
X35668Y22605D01*
X35616Y22515D01*
X35589Y22414D01*
Y22310D01*
X35616Y22210D01*
X35668Y22120D01*
X35742Y22046D01*
X35832Y21994D01*
X35932Y21967D01*
X36036D01*
X36137Y21994D01*
X36227Y22046D01*
X36301Y22120D01*
X36353Y22210D01*
X36380Y22310D01*
Y22414D01*
X36353Y22515D01*
X36301Y22605D01*
X36227Y22678D01*
X36137Y22731D01*
X36036Y22757D01*
D02*
G37*
G36*
X6496Y23506D02*
X6417D01*
X6344Y23475D01*
X6288Y23419D01*
X6258Y23347D01*
Y23268D01*
X6288Y23195D01*
X6344Y23139D01*
X6366Y23130D01*
Y22185D01*
X6344Y22176D01*
X6288Y22120D01*
X6258Y22047D01*
Y21968D01*
X6288Y21895D01*
X6344Y21840D01*
X6417Y21809D01*
X6496D01*
X6569Y21840D01*
X6625Y21895D01*
X6655Y21968D01*
Y22047D01*
X6625Y22120D01*
X6569Y22176D01*
X6548Y22185D01*
Y23130D01*
X6569Y23139D01*
X6625Y23195D01*
X6655Y23268D01*
Y23347D01*
X6625Y23419D01*
X6569Y23475D01*
X6496Y23506D01*
D02*
G37*
G36*
X26439Y21769D02*
X25609D01*
Y21486D01*
X25297D01*
Y21769D01*
X24467D01*
Y21486D01*
X24155D01*
Y21769D01*
X23325D01*
Y21486D01*
X23013D01*
Y21769D01*
X22183D01*
Y20939D01*
X23013D01*
Y21223D01*
X23325D01*
Y20939D01*
X24155D01*
Y21223D01*
X24467D01*
Y20939D01*
X25297D01*
Y21223D01*
X25609D01*
Y20939D01*
X26439D01*
Y21769D01*
D02*
G37*
G36*
X2205Y21694D02*
X2126D01*
X2053Y21664D01*
X2053Y21664D01*
X1328D01*
Y21328D01*
X2053D01*
X2053Y21328D01*
X2126Y21298D01*
X2205D01*
X2278Y21328D01*
X2334Y21384D01*
X2364Y21457D01*
Y21536D01*
X2334Y21608D01*
X2278Y21664D01*
X2205Y21694D01*
D02*
G37*
G36*
X36036Y21757D02*
X35932D01*
X35832Y21731D01*
X35742Y21679D01*
X35668Y21605D01*
X35616Y21515D01*
X35589Y21414D01*
Y21310D01*
X35616Y21210D01*
X35668Y21119D01*
X35742Y21046D01*
X35832Y20994D01*
X35932Y20967D01*
X36036D01*
X36137Y20994D01*
X36227Y21046D01*
X36301Y21119D01*
X36353Y21210D01*
X36380Y21310D01*
Y21414D01*
X36353Y21515D01*
X36301Y21605D01*
X36227Y21679D01*
X36137Y21731D01*
X36036Y21757D01*
D02*
G37*
G36*
X8218Y20721D02*
X8139D01*
X8066Y20691D01*
X8010Y20635D01*
X7980Y20562D01*
Y20483D01*
X7991Y20455D01*
X7430Y19894D01*
X2058D01*
Y19971D01*
X1328D01*
Y19635D01*
X2058D01*
Y19712D01*
X7468D01*
X7503Y19719D01*
X7532Y19739D01*
X7566Y19703D01*
X7364Y19501D01*
X2058D01*
Y19578D01*
X1328D01*
Y19241D01*
X2058D01*
Y19318D01*
X6408D01*
X6427Y19272D01*
X5868Y18713D01*
X2058D01*
Y18790D01*
X1328D01*
Y18454D01*
X2058D01*
Y18531D01*
X5906D01*
X5940Y18538D01*
X5970Y18558D01*
X6593Y19181D01*
X6704D01*
X6724Y19131D01*
X6682Y19089D01*
X6652Y19016D01*
Y18937D01*
X6682Y18864D01*
X6738Y18808D01*
X6759Y18799D01*
Y18012D01*
X6738Y18003D01*
X6682Y17947D01*
X6652Y17874D01*
Y17795D01*
X6682Y17722D01*
X6738Y17666D01*
X6811Y17636D01*
X6890D01*
X6963Y17666D01*
X7019Y17722D01*
X7049Y17795D01*
Y17874D01*
X7019Y17947D01*
X6963Y18003D01*
X6942Y18012D01*
Y18799D01*
X6963Y18808D01*
X7019Y18864D01*
X7049Y18937D01*
Y19016D01*
X7019Y19089D01*
X6977Y19131D01*
X6997Y19181D01*
X7776D01*
X7810Y19187D01*
X7840Y19207D01*
X8128Y19495D01*
X8150Y19487D01*
X8228D01*
X8301Y19517D01*
X8357Y19573D01*
X8387Y19646D01*
Y19725D01*
X8357Y19797D01*
X8301Y19853D01*
X8228Y19883D01*
X8150D01*
X8077Y19853D01*
X8021Y19797D01*
X7991Y19725D01*
Y19646D01*
X7999Y19624D01*
X7738Y19363D01*
X7549D01*
X7530Y19409D01*
X8089Y19968D01*
X8110Y19959D01*
X8189D01*
X8262Y19989D01*
X8318Y20045D01*
X8348Y20118D01*
Y20197D01*
X8318Y20270D01*
X8288Y20299D01*
X8291Y20354D01*
X8295Y20358D01*
X8346Y20410D01*
X8377Y20483D01*
Y20562D01*
X8346Y20635D01*
X8291Y20691D01*
X8218Y20721D01*
D02*
G37*
G36*
X26078Y19801D02*
X25969D01*
X25863Y19773D01*
X25769Y19718D01*
X25692Y19641D01*
X25637Y19546D01*
X25629Y19517D01*
X25276D01*
X25269Y19546D01*
X25214Y19641D01*
X25137Y19718D01*
X25042Y19773D01*
X24937Y19801D01*
X24827D01*
X24722Y19773D01*
X24627Y19718D01*
X24550Y19641D01*
X24495Y19546D01*
X24487Y19517D01*
X24135D01*
X24127Y19546D01*
X24072Y19641D01*
X23995Y19718D01*
X23900Y19773D01*
X23795Y19801D01*
X23686D01*
X23580Y19773D01*
X23485Y19718D01*
X23408Y19641D01*
X23353Y19546D01*
X23346Y19517D01*
X22993D01*
X22985Y19546D01*
X22930Y19641D01*
X22853Y19718D01*
X22759Y19773D01*
X22653Y19801D01*
X22544D01*
X22438Y19773D01*
X22344Y19718D01*
X22266Y19641D01*
X22212Y19546D01*
X22183Y19440D01*
Y19331D01*
X22212Y19226D01*
X22247Y19164D01*
X22191Y19107D01*
X19626D01*
X19617Y19128D01*
X19561Y19184D01*
X19488Y19214D01*
X19409D01*
X19336Y19184D01*
X19281Y19128D01*
X19250Y19055D01*
Y18976D01*
X19281Y18903D01*
X19336Y18848D01*
X19409Y18817D01*
X19488D01*
X19561Y18848D01*
X19617Y18903D01*
X19626Y18925D01*
X22228D01*
X22263Y18932D01*
X22293Y18951D01*
X22376Y19035D01*
X22438Y18999D01*
X22544Y18971D01*
X22653D01*
X22759Y18999D01*
X22853Y19054D01*
X22930Y19131D01*
X22985Y19226D01*
X22993Y19255D01*
X23346D01*
X23353Y19226D01*
X23408Y19131D01*
X23485Y19054D01*
X23580Y18999D01*
X23686Y18971D01*
X23795D01*
X23900Y18999D01*
X23995Y19054D01*
X24072Y19131D01*
X24127Y19226D01*
X24135Y19255D01*
X24487D01*
X24495Y19226D01*
X24550Y19131D01*
X24627Y19054D01*
X24722Y18999D01*
X24827Y18971D01*
X24937D01*
X25042Y18999D01*
X25137Y19054D01*
X25214Y19131D01*
X25269Y19226D01*
X25276Y19255D01*
X25629D01*
X25637Y19226D01*
X25692Y19131D01*
X25769Y19054D01*
X25863Y18999D01*
X25969Y18971D01*
X26078D01*
X26184Y18999D01*
X26278Y19054D01*
X26356Y19131D01*
X26410Y19226D01*
X26439Y19331D01*
Y19440D01*
X26410Y19546D01*
X26356Y19641D01*
X26278Y19718D01*
X26184Y19773D01*
X26078Y19801D01*
D02*
G37*
G36*
X19803Y18820D02*
X19724D01*
X19651Y18790D01*
X19596Y18734D01*
X19565Y18662D01*
Y18583D01*
X19596Y18510D01*
X19651Y18454D01*
X19724Y18424D01*
X19803D01*
X19825Y18432D01*
X19936Y18321D01*
X19965Y18302D01*
X20000Y18295D01*
X22193D01*
X22212Y18226D01*
X22266Y18131D01*
X22344Y18054D01*
X22438Y17999D01*
X22544Y17971D01*
X22653D01*
X22759Y17999D01*
X22853Y18054D01*
X22930Y18131D01*
X22985Y18226D01*
X22993Y18255D01*
X23346D01*
X23353Y18226D01*
X23408Y18131D01*
X23485Y18054D01*
X23580Y17999D01*
X23686Y17971D01*
X23795D01*
X23900Y17999D01*
X23995Y18054D01*
X24072Y18131D01*
X24127Y18226D01*
X24135Y18255D01*
X24487D01*
X24495Y18226D01*
X24550Y18131D01*
X24627Y18054D01*
X24722Y17999D01*
X24827Y17971D01*
X24937D01*
X25042Y17999D01*
X25137Y18054D01*
X25214Y18131D01*
X25269Y18226D01*
X25276Y18255D01*
X25629D01*
X25637Y18226D01*
X25692Y18131D01*
X25769Y18054D01*
X25863Y17999D01*
X25969Y17971D01*
X26078D01*
X26184Y17999D01*
X26278Y18054D01*
X26356Y18131D01*
X26410Y18226D01*
X26439Y18331D01*
Y18440D01*
X26410Y18546D01*
X26356Y18641D01*
X26278Y18718D01*
X26184Y18773D01*
X26078Y18801D01*
X25969D01*
X25863Y18773D01*
X25769Y18718D01*
X25692Y18641D01*
X25637Y18546D01*
X25629Y18517D01*
X25276D01*
X25269Y18546D01*
X25214Y18641D01*
X25137Y18718D01*
X25042Y18773D01*
X24937Y18801D01*
X24827D01*
X24722Y18773D01*
X24627Y18718D01*
X24550Y18641D01*
X24495Y18546D01*
X24487Y18517D01*
X24135D01*
X24127Y18546D01*
X24072Y18641D01*
X23995Y18718D01*
X23900Y18773D01*
X23795Y18801D01*
X23686D01*
X23580Y18773D01*
X23485Y18718D01*
X23408Y18641D01*
X23353Y18546D01*
X23346Y18517D01*
X22993D01*
X22985Y18546D01*
X22930Y18641D01*
X22853Y18718D01*
X22759Y18773D01*
X22653Y18801D01*
X22544D01*
X22438Y18773D01*
X22344Y18718D01*
X22266Y18641D01*
X22212Y18546D01*
X22193Y18477D01*
X20038D01*
X19953Y18561D01*
X19962Y18583D01*
Y18662D01*
X19932Y18734D01*
X19876Y18790D01*
X19803Y18820D01*
D02*
G37*
G36*
X2362Y17128D02*
X2283D01*
X2210Y17097D01*
X2155Y17042D01*
X2146Y17020D01*
X2058D01*
Y17097D01*
X1328D01*
Y16761D01*
X2058D01*
Y16838D01*
X2146D01*
X2155Y16817D01*
X2210Y16761D01*
X2283Y16731D01*
X2362D01*
X2435Y16761D01*
X2491Y16817D01*
X2521Y16890D01*
Y16969D01*
X2491Y17042D01*
X2435Y17097D01*
X2362Y17128D01*
D02*
G37*
G36*
X26078Y17817D02*
X25969D01*
X25863Y17788D01*
X25769Y17734D01*
X25692Y17656D01*
X25637Y17562D01*
X25609Y17456D01*
Y17347D01*
X25637Y17241D01*
X25692Y17147D01*
X25769Y17070D01*
X25863Y17015D01*
X25969Y16987D01*
X26078D01*
X26184Y17015D01*
X26278Y17070D01*
X26356Y17147D01*
X26410Y17241D01*
X26439Y17347D01*
Y17456D01*
X26410Y17562D01*
X26356Y17656D01*
X26278Y17734D01*
X26184Y17788D01*
X26078Y17817D01*
D02*
G37*
G36*
X24937D02*
X24827D01*
X24722Y17788D01*
X24627Y17734D01*
X24550Y17656D01*
X24495Y17562D01*
X24467Y17456D01*
Y17347D01*
X24495Y17241D01*
X24550Y17147D01*
X24627Y17070D01*
X24722Y17015D01*
X24827Y16987D01*
X24937D01*
X25042Y17015D01*
X25137Y17070D01*
X25214Y17147D01*
X25269Y17241D01*
X25297Y17347D01*
Y17456D01*
X25269Y17562D01*
X25214Y17656D01*
X25137Y17734D01*
X25042Y17788D01*
X24937Y17817D01*
D02*
G37*
G36*
X23795D02*
X23686D01*
X23580Y17788D01*
X23485Y17734D01*
X23408Y17656D01*
X23353Y17562D01*
X23325Y17456D01*
Y17347D01*
X23353Y17241D01*
X23389Y17179D01*
X22511Y16301D01*
X18021D01*
X17986Y16294D01*
X17956Y16274D01*
X17895Y16213D01*
X17874Y16222D01*
X17819D01*
X17785Y16266D01*
X17784Y16268D01*
X17797Y16299D01*
Y16378D01*
X17840Y16405D01*
X21693D01*
X21728Y16412D01*
X21757Y16432D01*
X22376Y17051D01*
X22438Y17015D01*
X22544Y16987D01*
X22653D01*
X22759Y17015D01*
X22853Y17070D01*
X22930Y17147D01*
X22985Y17241D01*
X23013Y17347D01*
Y17456D01*
X22985Y17562D01*
X22930Y17656D01*
X22853Y17734D01*
X22759Y17788D01*
X22653Y17817D01*
X22544D01*
X22438Y17788D01*
X22344Y17734D01*
X22266Y17656D01*
X22212Y17562D01*
X22183Y17456D01*
Y17347D01*
X22212Y17241D01*
X22247Y17179D01*
X21655Y16587D01*
X17756D01*
X17721Y16580D01*
X17691Y16560D01*
X17659Y16528D01*
X17638Y16537D01*
X17559D01*
X17486Y16507D01*
X17430Y16451D01*
X17400Y16378D01*
Y16299D01*
X17430Y16226D01*
X17486Y16170D01*
X17559Y16140D01*
X17614D01*
X17649Y16096D01*
X17649Y16094D01*
X17636Y16063D01*
Y15984D01*
X17666Y15911D01*
X17722Y15855D01*
X17795Y15825D01*
X17874D01*
X17947Y15855D01*
X18003Y15911D01*
X18033Y15984D01*
Y16063D01*
X18024Y16084D01*
X18059Y16119D01*
X19744D01*
X19764Y16069D01*
X19753Y16057D01*
X19723Y15984D01*
Y15905D01*
X19753Y15832D01*
X19809Y15777D01*
X19882Y15746D01*
X19961D01*
X20034Y15777D01*
X20076Y15819D01*
X22334Y13560D01*
X22364Y13541D01*
X22371Y13539D01*
X22366Y13489D01*
X22033D01*
X20150Y15372D01*
X20159Y15394D01*
Y15473D01*
X20129Y15545D01*
X20073Y15601D01*
X20000Y15632D01*
X19921D01*
X19848Y15601D01*
X19792Y15545D01*
X19762Y15473D01*
Y15394D01*
X19792Y15321D01*
X19848Y15265D01*
X19921Y15235D01*
X20000D01*
X20021Y15243D01*
X21931Y13334D01*
X21961Y13314D01*
X21996Y13307D01*
X22757D01*
X22767Y13281D01*
X22823Y13225D01*
X22896Y13195D01*
X22975D01*
X23048Y13225D01*
X23104Y13281D01*
X23134Y13354D01*
Y13426D01*
X23152D01*
X23225Y13456D01*
X23281Y13512D01*
X23311Y13585D01*
Y13664D01*
X23281Y13737D01*
X23225Y13793D01*
X23152Y13823D01*
X23073D01*
X23000Y13793D01*
X22944Y13737D01*
X22935Y13716D01*
X22437D01*
X20143Y16009D01*
X20114Y16029D01*
X20105Y16031D01*
X20081Y16075D01*
X20099Y16119D01*
X22548D01*
X22583Y16126D01*
X22613Y16145D01*
X23518Y17051D01*
X23580Y17015D01*
X23686Y16987D01*
X23795D01*
X23900Y17015D01*
X23995Y17070D01*
X24072Y17147D01*
X24127Y17241D01*
X24155Y17347D01*
Y17456D01*
X24127Y17562D01*
X24072Y17656D01*
X23995Y17734D01*
X23900Y17788D01*
X23795Y17817D01*
D02*
G37*
G36*
X11772Y18663D02*
X11693D01*
X11620Y18633D01*
X11564Y18577D01*
X11534Y18504D01*
Y18425D01*
X11564Y18352D01*
X11620Y18296D01*
X11641Y18288D01*
Y17532D01*
X10943Y16834D01*
X10897Y16853D01*
Y17025D01*
X10764Y17159D01*
X10496D01*
X10363Y17025D01*
Y16758D01*
X10460Y16660D01*
X10462Y16639D01*
X10455Y16595D01*
X10416Y16556D01*
X10381Y16495D01*
X10363Y16427D01*
Y16357D01*
X10381Y16289D01*
X10416Y16228D01*
X10466Y16178D01*
X10478Y16171D01*
Y16113D01*
X10466Y16106D01*
X10416Y16056D01*
X10381Y15995D01*
X10363Y15927D01*
Y15857D01*
X10381Y15789D01*
X10416Y15728D01*
X10466Y15678D01*
X10478Y15671D01*
Y15613D01*
X10466Y15606D01*
X10416Y15556D01*
X10381Y15495D01*
X10363Y15427D01*
Y15357D01*
X10381Y15289D01*
X10416Y15228D01*
X10466Y15178D01*
X10527Y15143D01*
X10595Y15124D01*
X10665D01*
X10733Y15143D01*
X10794Y15178D01*
X10844Y15228D01*
X10879Y15289D01*
X10882Y15301D01*
X13153D01*
X15847Y12607D01*
X15828Y12561D01*
X15827D01*
X15754Y12530D01*
X15698Y12475D01*
X15668Y12402D01*
Y12323D01*
X15698Y12250D01*
X15754Y12194D01*
X15775Y12185D01*
Y9291D01*
X15782Y9256D01*
X15802Y9227D01*
X16306Y8722D01*
X16298Y8701D01*
Y8622D01*
X16328Y8549D01*
X16384Y8493D01*
X16457Y8463D01*
X16536D01*
X16608Y8493D01*
X16655Y8540D01*
X16696Y8539D01*
X16712Y8533D01*
X16722Y8510D01*
X16777Y8454D01*
X16850Y8424D01*
X16929D01*
X17002Y8454D01*
X17058Y8510D01*
X17088Y8583D01*
Y8662D01*
X17058Y8734D01*
X17002Y8790D01*
X16929Y8820D01*
X16850D01*
X16829Y8812D01*
X16237Y9404D01*
Y11835D01*
X16258Y11844D01*
X16314Y11899D01*
X16344Y11972D01*
Y12039D01*
X16380Y12061D01*
X16390Y12063D01*
X17057Y11397D01*
X17028Y11355D01*
X16969Y11380D01*
X16890D01*
X16817Y11349D01*
X16761Y11293D01*
X16731Y11221D01*
Y11142D01*
X16761Y11069D01*
X16817Y11013D01*
X16838Y11004D01*
Y9961D01*
X16845Y9926D01*
X16865Y9896D01*
X17527Y9234D01*
X17518Y9213D01*
Y9178D01*
X17468Y9157D01*
X16666Y9959D01*
Y11319D01*
X16687Y11328D01*
X16743Y11384D01*
X16773Y11457D01*
Y11536D01*
X16743Y11608D01*
X16687Y11664D01*
X16614Y11694D01*
X16535D01*
X16462Y11664D01*
X16407Y11608D01*
X16376Y11536D01*
Y11457D01*
X16407Y11384D01*
X16462Y11328D01*
X16484Y11319D01*
Y9921D01*
X16491Y9886D01*
X16510Y9857D01*
X17448Y8919D01*
X17439Y8898D01*
Y8819D01*
X17470Y8746D01*
X17525Y8690D01*
X17598Y8660D01*
X17677D01*
X17750Y8690D01*
X17806Y8746D01*
X17836Y8819D01*
Y8898D01*
X17816Y8946D01*
X17829Y9005D01*
X17870Y9046D01*
X17920Y9026D01*
Y7552D01*
X16693D01*
X16650Y7544D01*
X16614Y7520D01*
X16614Y7520D01*
X16102Y7008D01*
X16078Y6972D01*
X16070Y6929D01*
X16070Y6929D01*
Y3393D01*
X14915Y2237D01*
X13519D01*
Y3235D01*
X14882D01*
X14882Y3235D01*
X14924Y3244D01*
X14961Y3268D01*
X15433Y3740D01*
X15433Y3740D01*
X15457Y3776D01*
X15466Y3819D01*
Y7992D01*
X15466Y7992D01*
X15457Y8035D01*
X15433Y8071D01*
X15433Y8071D01*
X14173Y9331D01*
X14137Y9355D01*
X14094Y9363D01*
X14094Y9363D01*
X13121D01*
Y9427D01*
X12998D01*
X12988Y9431D01*
X12917D01*
X12907Y9427D01*
X12785D01*
Y9314D01*
X12774Y9288D01*
Y9216D01*
X12785Y9190D01*
Y9077D01*
X12907D01*
X12917Y9073D01*
X12988D01*
X12998Y9077D01*
X13121D01*
Y9141D01*
X14048D01*
X15243Y7946D01*
Y3865D01*
X14836Y3458D01*
X13519D01*
Y3521D01*
X13936Y3938D01*
X13952Y3976D01*
X13952Y3976D01*
Y5079D01*
X13936Y5117D01*
X13898Y5133D01*
X12087D01*
X12087Y5133D01*
X12048Y5117D01*
X12048Y5117D01*
X11930Y4999D01*
X11914Y4961D01*
X11914Y4961D01*
Y1063D01*
X11930Y1025D01*
X11969Y1009D01*
X13307D01*
X13345Y1025D01*
X13503Y1182D01*
X13503Y1182D01*
X13519Y1220D01*
X13519Y1220D01*
Y2015D01*
X14961D01*
X14961Y2015D01*
X15003Y2023D01*
X15039Y2047D01*
X16260Y3268D01*
X16284Y3304D01*
X16292Y3346D01*
X16292Y3346D01*
Y6883D01*
X16739Y7330D01*
X18571D01*
X18572Y7329D01*
X18628Y7273D01*
X18701Y7243D01*
X18780D01*
X18853Y7273D01*
X18908Y7329D01*
X18939Y7401D01*
Y7480D01*
X18908Y7553D01*
X18853Y7609D01*
X18780Y7639D01*
X18701D01*
X18628Y7609D01*
X18572Y7553D01*
X18571Y7552D01*
X18143D01*
Y12115D01*
X18239D01*
Y12178D01*
X18375D01*
Y12115D01*
X18711D01*
Y12178D01*
X18848D01*
Y12115D01*
X19184D01*
Y12178D01*
X19320D01*
Y12115D01*
X19656D01*
Y12178D01*
X19909D01*
X20068Y12019D01*
Y11827D01*
X20404D01*
Y11890D01*
X20974D01*
Y11765D01*
X20974Y11761D01*
Y11715D01*
X20974Y11711D01*
Y11653D01*
X20404D01*
Y11717D01*
X20068D01*
Y11367D01*
X20125D01*
Y11311D01*
X20068D01*
Y11248D01*
X20068Y11248D01*
X20059Y11227D01*
X19927D01*
X19893Y11220D01*
X19863Y11200D01*
X19699Y11036D01*
X19680Y11007D01*
X19673Y10972D01*
Y6298D01*
X19384Y6009D01*
X19365Y5980D01*
X19358Y5945D01*
Y5157D01*
X19365Y5123D01*
X19384Y5093D01*
X20416Y4062D01*
X20445Y4042D01*
X20480Y4035D01*
X23607D01*
Y3951D01*
X23943D01*
Y4301D01*
X23607D01*
Y4217D01*
X20518D01*
X19540Y5195D01*
Y5907D01*
X19828Y6195D01*
X19848Y6225D01*
X19855Y6260D01*
Y10934D01*
X19965Y11044D01*
X20059D01*
X20068Y11023D01*
X20068Y11023D01*
Y10961D01*
X20140D01*
X20197Y10937D01*
X20276D01*
X20332Y10961D01*
X20404D01*
Y11023D01*
X20404Y11023D01*
X20435Y11096D01*
Y11175D01*
X20404Y11248D01*
X20404Y11248D01*
Y11311D01*
X20347D01*
Y11367D01*
X20404D01*
Y11430D01*
X20974D01*
Y11265D01*
X20974Y11261D01*
Y11215D01*
X20974Y11211D01*
Y10765D01*
X20974Y10761D01*
Y10715D01*
X20974Y10711D01*
Y10585D01*
X20974Y10585D01*
X20943Y10512D01*
Y10433D01*
X20974Y10360D01*
X20974Y10360D01*
Y10265D01*
X20974Y10261D01*
Y10215D01*
X20974Y10211D01*
Y9765D01*
X20974Y9761D01*
Y9715D01*
X20974Y9711D01*
Y9265D01*
X20974Y9261D01*
Y9215D01*
X20974Y9211D01*
Y8765D01*
X20974Y8761D01*
Y8715D01*
X20974Y8711D01*
Y8265D01*
X20974Y8261D01*
Y8215D01*
X20974Y8211D01*
Y8183D01*
X20934Y8144D01*
X20904Y8071D01*
Y7992D01*
X20934Y7919D01*
X20974Y7880D01*
Y7765D01*
X20974Y7761D01*
Y7715D01*
X20974Y7711D01*
Y7611D01*
X20800D01*
Y8084D01*
X20793Y8119D01*
X20773Y8148D01*
X20293Y8628D01*
X20302Y8650D01*
Y8729D01*
X20272Y8801D01*
X20216Y8857D01*
X20143Y8887D01*
X20064D01*
X19991Y8857D01*
X19935Y8801D01*
X19905Y8729D01*
Y8650D01*
X19935Y8577D01*
X19991Y8521D01*
X20064Y8491D01*
X20143D01*
X20164Y8499D01*
X20618Y8046D01*
Y7566D01*
X20624Y7531D01*
X20644Y7501D01*
X20690Y7455D01*
X20720Y7436D01*
X20755Y7429D01*
X20974D01*
Y7265D01*
X20974Y7261D01*
Y7215D01*
X20974Y7211D01*
Y6765D01*
X20974Y6761D01*
Y6715D01*
X20974Y6711D01*
Y6265D01*
X20974Y6261D01*
Y6215D01*
X20974Y6211D01*
Y5761D01*
X21664D01*
Y5926D01*
X21686D01*
X21721Y5933D01*
X21751Y5952D01*
X22072Y6274D01*
X22092Y6304D01*
X22099Y6339D01*
Y9175D01*
X22221Y9297D01*
X22271Y9276D01*
Y6791D01*
X22250Y6782D01*
X22194Y6727D01*
X22164Y6654D01*
Y6575D01*
X22194Y6502D01*
X22250Y6446D01*
X22323Y6416D01*
X22402D01*
X22475Y6446D01*
X22530Y6502D01*
X22561Y6575D01*
Y6654D01*
X22530Y6727D01*
X22475Y6782D01*
X22453Y6791D01*
Y9293D01*
X27479Y14318D01*
X28366D01*
X28375Y14297D01*
X28397Y14275D01*
X28376Y14225D01*
X28110D01*
X28075Y14218D01*
X28046Y14198D01*
X26786Y12938D01*
X26766Y12909D01*
X26759Y12874D01*
Y8868D01*
X26709Y8847D01*
X26687Y8869D01*
X26614Y8899D01*
X26535D01*
X26462Y8869D01*
X26407Y8813D01*
X26376Y8740D01*
Y8661D01*
X26407Y8588D01*
X26462Y8533D01*
X26484Y8524D01*
Y8376D01*
X26434Y8367D01*
X26428Y8380D01*
X26372Y8436D01*
X26299Y8466D01*
X26220D01*
X26147Y8436D01*
X26092Y8380D01*
X26075Y8340D01*
X26032Y8346D01*
X26024Y8348D01*
X25995Y8419D01*
X25939Y8475D01*
X25866Y8506D01*
X25787D01*
X25714Y8475D01*
X25686Y8447D01*
X25678Y8439D01*
X25635Y8467D01*
X25635Y8469D01*
X25638Y8481D01*
X25642Y8504D01*
Y10801D01*
X26021Y11180D01*
X26043Y11171D01*
X26121D01*
X26194Y11201D01*
X26250Y11257D01*
X26280Y11330D01*
Y11409D01*
X26250Y11482D01*
X26194Y11538D01*
X26121Y11568D01*
X26043D01*
X25970Y11538D01*
X25914Y11482D01*
X25884Y11409D01*
Y11330D01*
X25892Y11309D01*
X25487Y10903D01*
X25467Y10873D01*
X25460Y10839D01*
Y8542D01*
X25211Y8293D01*
X25054Y8135D01*
X25034Y8106D01*
X25027Y8071D01*
Y5841D01*
X24791D01*
X24787Y5841D01*
X24741D01*
X24697Y5867D01*
Y7954D01*
X25261Y8518D01*
X25281Y8548D01*
X25288Y8583D01*
Y11065D01*
X25530Y11306D01*
X25551Y11298D01*
X25630D01*
X25703Y11328D01*
X25759Y11384D01*
X25789Y11457D01*
Y11536D01*
X25759Y11608D01*
X25703Y11664D01*
X25630Y11694D01*
X25551D01*
X25478Y11664D01*
X25422Y11608D01*
X25392Y11536D01*
Y11457D01*
X25401Y11435D01*
X25132Y11167D01*
X25113Y11137D01*
X25106Y11102D01*
Y8620D01*
X24542Y8057D01*
X24522Y8027D01*
X24515Y7992D01*
Y5841D01*
X24291D01*
X24287Y5841D01*
X24241D01*
X24237Y5841D01*
X24105D01*
Y7758D01*
X24098Y7793D01*
X24078Y7822D01*
X23772Y8128D01*
X23781Y8150D01*
Y8228D01*
X23751Y8301D01*
X23695Y8357D01*
X23622Y8387D01*
X23543D01*
X23470Y8357D01*
X23414Y8301D01*
X23384Y8228D01*
Y8150D01*
X23414Y8077D01*
X23470Y8021D01*
X23543Y7991D01*
X23622D01*
X23643Y7999D01*
X23923Y7720D01*
Y5841D01*
X23791D01*
X23787Y5841D01*
X23741D01*
X23737Y5841D01*
X23605D01*
Y7667D01*
X23598Y7702D01*
X23578Y7732D01*
X23221Y8089D01*
X23230Y8110D01*
Y8189D01*
X23200Y8262D01*
X23144Y8318D01*
X23071Y8348D01*
X22992D01*
X22919Y8318D01*
X22863Y8262D01*
X22833Y8189D01*
Y8110D01*
X22863Y8037D01*
X22919Y7981D01*
X22992Y7951D01*
X23071D01*
X23092Y7960D01*
X23423Y7630D01*
Y5841D01*
X23291D01*
X23287Y5841D01*
X23241D01*
X23237Y5841D01*
X22791D01*
X22787Y5841D01*
X22741D01*
X22737Y5841D01*
X22291D01*
X22287Y5841D01*
X22241D01*
X22237Y5841D01*
X21787D01*
Y5151D01*
X21799D01*
X21840Y5129D01*
Y5046D01*
X21507D01*
Y5129D01*
X21170D01*
Y4779D01*
X21507D01*
Y4863D01*
X21840D01*
Y4779D01*
X22176D01*
Y5129D01*
X22217Y5151D01*
X22237D01*
X22241Y5151D01*
X22287D01*
X22291Y5151D01*
X22737D01*
X22741Y5151D01*
X22787D01*
X22791Y5151D01*
X23237D01*
X23241Y5151D01*
X23287D01*
X23291Y5151D01*
X23737D01*
X23741Y5151D01*
X23787D01*
X23791Y5151D01*
X24237D01*
X24241Y5151D01*
X24287D01*
X24291Y5151D01*
X24737D01*
X24741Y5151D01*
X24787D01*
X24791Y5151D01*
X25237D01*
X25241Y5151D01*
X25287D01*
X25291Y5151D01*
X25737D01*
X25741Y5151D01*
X25787D01*
X25791Y5151D01*
X26237D01*
X26241Y5151D01*
X26287D01*
X26291Y5151D01*
X26737D01*
X26741Y5151D01*
X26787D01*
X26791Y5151D01*
X27237D01*
X27241Y5151D01*
X27287D01*
X27291Y5151D01*
X27741D01*
Y5841D01*
X27574D01*
Y5863D01*
X27567Y5898D01*
X27548Y5928D01*
X26666Y6809D01*
Y8524D01*
X26687Y8533D01*
X26709Y8555D01*
X26759Y8534D01*
Y6890D01*
X26766Y6855D01*
X26786Y6825D01*
X27688Y5924D01*
X27717Y5904D01*
X27752Y5897D01*
X27863D01*
Y5761D01*
X28118D01*
Y4862D01*
X28124Y4827D01*
X28144Y4798D01*
X28688Y4254D01*
Y3515D01*
X28611D01*
Y3165D01*
X28948D01*
Y3515D01*
X28871D01*
Y4291D01*
X28864Y4326D01*
X28844Y4356D01*
X28300Y4900D01*
Y5761D01*
X28554D01*
Y6211D01*
X28554Y6215D01*
Y6261D01*
X28554Y6265D01*
Y6711D01*
X28554Y6715D01*
Y6761D01*
X28554Y6765D01*
Y7211D01*
X28554Y7215D01*
Y7261D01*
X28554Y7265D01*
Y7711D01*
X28554Y7715D01*
Y7761D01*
X28554Y7765D01*
Y7859D01*
X28801D01*
Y7824D01*
X29151D01*
Y8160D01*
X28801D01*
Y8121D01*
X28554D01*
Y8211D01*
X28554Y8215D01*
Y8261D01*
X28554Y8265D01*
Y8412D01*
X28808D01*
Y8375D01*
X29158D01*
Y8711D01*
X28808D01*
Y8675D01*
X28587D01*
X28554Y8715D01*
Y8761D01*
X28554Y8765D01*
Y9211D01*
X28554Y9215D01*
Y9261D01*
X28554Y9265D01*
Y9711D01*
X28554Y9715D01*
Y9762D01*
X28604Y9786D01*
X28661Y9762D01*
X28740D01*
X28813Y9792D01*
X28869Y9848D01*
X28899Y9921D01*
Y10000D01*
X28869Y10073D01*
X28813Y10129D01*
X28740Y10159D01*
X28661D01*
X28604Y10135D01*
X28554Y10160D01*
Y10211D01*
X28554Y10215D01*
Y10261D01*
X28554Y10265D01*
Y10711D01*
X28554Y10715D01*
Y10761D01*
X28554Y10765D01*
Y10785D01*
X28604Y10810D01*
X28661Y10786D01*
X28740D01*
X28813Y10816D01*
X28869Y10872D01*
X28899Y10945D01*
Y11024D01*
X28869Y11097D01*
X28813Y11152D01*
X28740Y11183D01*
X28661D01*
X28604Y11159D01*
X28554Y11183D01*
Y11211D01*
X28554Y11215D01*
Y11261D01*
X28554Y11265D01*
Y11711D01*
X28554Y11715D01*
Y11761D01*
X28554Y11769D01*
X28604Y11794D01*
X28661Y11770D01*
X28740D01*
X28813Y11800D01*
X28869Y11856D01*
X28899Y11929D01*
Y12008D01*
X28869Y12081D01*
X28813Y12137D01*
X28740Y12167D01*
X28661D01*
X28604Y12143D01*
X28554Y12168D01*
Y12215D01*
X27863D01*
Y11765D01*
X27863Y11761D01*
Y11715D01*
X27863Y11711D01*
Y11265D01*
X27863Y11261D01*
Y11215D01*
X27863Y11211D01*
Y10765D01*
X27863Y10761D01*
Y10715D01*
X27863Y10711D01*
Y10579D01*
X27778D01*
X27729Y10628D01*
Y12915D01*
X28620Y13807D01*
X28917D01*
X28926Y13785D01*
X28982Y13729D01*
X29055Y13699D01*
X29134D01*
X29207Y13729D01*
X29263Y13785D01*
X29293Y13858D01*
Y13937D01*
X29263Y14010D01*
X29207Y14066D01*
X29134Y14096D01*
X29124Y14146D01*
X29135Y14173D01*
Y14252D01*
X29105Y14325D01*
X29049Y14381D01*
X28976Y14411D01*
X28898D01*
X28825Y14381D01*
X28783Y14339D01*
X28741Y14368D01*
X28742Y14370D01*
Y14449D01*
X28712Y14522D01*
X28656Y14578D01*
X28583Y14608D01*
X28504D01*
X28466Y14646D01*
Y14685D01*
X28436Y14758D01*
X28380Y14814D01*
X28307Y14844D01*
X28228D01*
X28155Y14814D01*
X28100Y14758D01*
X28091Y14737D01*
X27441D01*
X27406Y14730D01*
X27377Y14710D01*
X21943Y9277D01*
X21924Y9247D01*
X21917Y9213D01*
Y6376D01*
X21710Y6170D01*
X21664Y6189D01*
Y6211D01*
X21664Y6215D01*
Y6261D01*
X21664Y6265D01*
Y6711D01*
X21664Y6715D01*
Y6761D01*
X21664Y6765D01*
Y7211D01*
X21664Y7215D01*
Y7261D01*
X21664Y7265D01*
Y7711D01*
X21664Y7715D01*
Y7761D01*
X21664Y7765D01*
Y8211D01*
X21664Y8215D01*
Y8261D01*
X21664Y8265D01*
Y8711D01*
X21664Y8715D01*
Y8761D01*
X21664Y8765D01*
Y9211D01*
X21664Y9215D01*
Y9261D01*
X21664Y9265D01*
Y9397D01*
X21732D01*
X21767Y9404D01*
X21797Y9424D01*
X23726Y11353D01*
X23746Y11382D01*
X23753Y11417D01*
Y11949D01*
X23774Y11958D01*
X23830Y12014D01*
X23860Y12087D01*
Y12165D01*
X23830Y12238D01*
X23774Y12294D01*
X23701Y12324D01*
X23622D01*
X23549Y12294D01*
X23493Y12238D01*
X23463Y12165D01*
Y12087D01*
X23493Y12014D01*
X23549Y11958D01*
X23570Y11949D01*
Y11455D01*
X21714Y9599D01*
X21664Y9620D01*
Y9711D01*
X21664Y9715D01*
Y9761D01*
X21664Y9765D01*
Y9897D01*
X21760D01*
X21795Y9904D01*
X21824Y9924D01*
X23175Y11274D01*
X23194Y11304D01*
X23201Y11339D01*
Y11949D01*
X23223Y11958D01*
X23278Y12014D01*
X23309Y12087D01*
Y12165D01*
X23278Y12238D01*
X23223Y12294D01*
X23150Y12324D01*
X23071D01*
X22998Y12294D01*
X22942Y12238D01*
X22912Y12165D01*
Y12087D01*
X22942Y12014D01*
X22998Y11958D01*
X23019Y11949D01*
Y11376D01*
X21722Y10079D01*
X21664D01*
Y10211D01*
X21664Y10215D01*
Y10261D01*
X21664Y10265D01*
Y10711D01*
X21664Y10715D01*
Y10761D01*
X21664Y10765D01*
Y11211D01*
X21664Y11215D01*
Y11261D01*
X21664Y11265D01*
Y11398D01*
X21686D01*
X21721Y11405D01*
X21751Y11425D01*
X27046Y16720D01*
X29784D01*
X29792Y16699D01*
X29848Y16643D01*
X29876Y16631D01*
Y16577D01*
X29838Y16562D01*
X29782Y16506D01*
X29774Y16484D01*
X27969D01*
X27947Y16507D01*
X27874Y16537D01*
X27795D01*
X27722Y16507D01*
X27666Y16451D01*
X27636Y16378D01*
Y16299D01*
X27666Y16226D01*
X27722Y16170D01*
X27795Y16140D01*
X27874D01*
X27947Y16170D01*
X28003Y16226D01*
X28033Y16299D01*
Y16302D01*
X29774D01*
X29782Y16281D01*
X29838Y16225D01*
X29911Y16195D01*
X29990D01*
X30063Y16225D01*
X30119Y16281D01*
X30149Y16354D01*
Y16433D01*
X30119Y16506D01*
X30063Y16562D01*
X30035Y16573D01*
Y16627D01*
X30073Y16643D01*
X30129Y16699D01*
X30159Y16772D01*
Y16850D01*
X30129Y16923D01*
X30073Y16979D01*
X30000Y17009D01*
X29921D01*
X29848Y16979D01*
X29792Y16923D01*
X29784Y16902D01*
X27008D01*
X26973Y16895D01*
X26943Y16875D01*
X21710Y11642D01*
X21664Y11662D01*
Y11711D01*
X21664Y11715D01*
Y11761D01*
X21664Y11765D01*
Y12215D01*
X20974D01*
Y12113D01*
X20404D01*
Y12177D01*
X20225D01*
X20034Y12368D01*
X19998Y12392D01*
X19955Y12401D01*
X19955Y12401D01*
X19656D01*
Y12465D01*
X19320D01*
Y12401D01*
X19184D01*
Y12465D01*
X18848D01*
Y12401D01*
X18711D01*
Y12465D01*
X18375D01*
Y12401D01*
X18239D01*
Y12465D01*
X17903D01*
Y12115D01*
X17920D01*
Y11469D01*
X17870Y11439D01*
X17823Y11458D01*
X17744D01*
X17731Y11453D01*
X12728Y16456D01*
X12698Y16476D01*
X12663Y16483D01*
X10921D01*
X10900Y16533D01*
X11797Y17430D01*
X11816Y17459D01*
X11823Y17494D01*
Y18288D01*
X11845Y18296D01*
X11901Y18352D01*
X11931Y18425D01*
Y18504D01*
X11901Y18577D01*
X11845Y18633D01*
X11772Y18663D01*
D02*
G37*
G36*
X2795Y16931D02*
X2716D01*
X2644Y16901D01*
X2588Y16845D01*
X2557Y16772D01*
Y16693D01*
X2566Y16672D01*
X2521Y16627D01*
X2058D01*
Y16704D01*
X1328D01*
Y16367D01*
X2058D01*
Y16444D01*
X2559D01*
X2594Y16451D01*
X2623Y16471D01*
X2695Y16543D01*
X2716Y16534D01*
X2795D01*
X2868Y16564D01*
X2924Y16620D01*
X2954Y16693D01*
Y16772D01*
X2924Y16845D01*
X2868Y16901D01*
X2795Y16931D01*
D02*
G37*
G36*
X36433Y17147D02*
X36323D01*
X36218Y17119D01*
X36123Y17064D01*
X36046Y16987D01*
X35991Y16892D01*
X35963Y16787D01*
Y16678D01*
X35991Y16572D01*
X36046Y16477D01*
X36123Y16400D01*
X36218Y16346D01*
X36323Y16317D01*
X36433D01*
X36538Y16346D01*
X36633Y16400D01*
X36710Y16477D01*
X36765Y16572D01*
X36793Y16678D01*
Y16787D01*
X36765Y16892D01*
X36710Y16987D01*
X36633Y17064D01*
X36538Y17119D01*
X36433Y17147D01*
D02*
G37*
G36*
X34543Y17143D02*
X34434D01*
X34328Y17115D01*
X34233Y17060D01*
X34156Y16983D01*
X34102Y16889D01*
X34073Y16783D01*
Y16674D01*
X34102Y16568D01*
X34156Y16474D01*
X34233Y16396D01*
X34328Y16342D01*
X34434Y16313D01*
X34543D01*
X34648Y16342D01*
X34743Y16396D01*
X34820Y16474D01*
X34875Y16568D01*
X34903Y16674D01*
Y16783D01*
X34875Y16889D01*
X34820Y16983D01*
X34743Y17060D01*
X34648Y17115D01*
X34543Y17143D01*
D02*
G37*
G36*
X36433Y16179D02*
X36323D01*
X36218Y16150D01*
X36123Y16096D01*
X36046Y16019D01*
X35991Y15924D01*
X35972Y15851D01*
X35438D01*
X35438Y15851D01*
X34893D01*
X34875Y15920D01*
X34820Y16015D01*
X34743Y16092D01*
X34648Y16147D01*
X34543Y16175D01*
X34434D01*
X34328Y16147D01*
X34233Y16092D01*
X34156Y16015D01*
X34102Y15920D01*
X34073Y15814D01*
Y15705D01*
X34102Y15600D01*
X34156Y15505D01*
X34233Y15428D01*
X34328Y15373D01*
X34434Y15345D01*
X34543D01*
X34648Y15373D01*
X34743Y15428D01*
X34820Y15505D01*
X34875Y15600D01*
X34893Y15669D01*
X35347D01*
Y14542D01*
X35326Y14533D01*
X35270Y14477D01*
X35240Y14404D01*
Y14325D01*
X35270Y14252D01*
X35326Y14196D01*
X35399Y14166D01*
X35477D01*
X35550Y14196D01*
X35606Y14252D01*
X35636Y14325D01*
Y14404D01*
X35606Y14477D01*
X35550Y14533D01*
X35529Y14542D01*
Y15669D01*
X35974D01*
X35991Y15604D01*
X36046Y15509D01*
X36123Y15432D01*
X36218Y15377D01*
X36323Y15349D01*
X36433D01*
X36538Y15377D01*
X36633Y15432D01*
X36710Y15509D01*
X36765Y15604D01*
X36793Y15709D01*
Y15818D01*
X36765Y15924D01*
X36710Y16019D01*
X36633Y16096D01*
X36538Y16150D01*
X36433Y16179D01*
D02*
G37*
G36*
X2539Y15929D02*
X2460D01*
X2387Y15898D01*
X2331Y15843D01*
X2330Y15839D01*
X2058D01*
Y15916D01*
X1328D01*
Y15580D01*
X2058D01*
Y15657D01*
X2315D01*
X2331Y15618D01*
X2387Y15562D01*
X2460Y15532D01*
X2539D01*
X2612Y15562D01*
X2668Y15618D01*
X2698Y15691D01*
Y15770D01*
X2668Y15843D01*
X2612Y15898D01*
X2539Y15929D01*
D02*
G37*
G36*
X36585Y15179D02*
X36170D01*
X35963Y14971D01*
Y14556D01*
X36170Y14349D01*
X36585D01*
X36793Y14556D01*
Y14971D01*
X36585Y15179D01*
D02*
G37*
G36*
X34696Y15175D02*
X34281D01*
X34073Y14967D01*
Y14552D01*
X34281Y14345D01*
X34696D01*
X34903Y14552D01*
Y14967D01*
X34696Y15175D01*
D02*
G37*
G36*
X10709Y13834D02*
X10670Y13818D01*
Y13818D01*
X10631Y13778D01*
X10615Y13740D01*
X10615Y13740D01*
Y12008D01*
X10631Y11970D01*
X10669Y11954D01*
X11339D01*
X11377Y11970D01*
X11393Y12008D01*
Y13780D01*
X11377Y13818D01*
X11339Y13834D01*
X10709D01*
X10709Y13834D01*
D02*
G37*
G36*
X31693Y15513D02*
X31614D01*
X31541Y15483D01*
X31485Y15427D01*
X31455Y15354D01*
Y15275D01*
X31485Y15203D01*
X31541Y15147D01*
X31562Y15138D01*
Y7872D01*
X29030Y5340D01*
X29010Y5310D01*
X29003Y5276D01*
Y4626D01*
X28982Y4617D01*
X28926Y4561D01*
X28896Y4488D01*
Y4409D01*
X28926Y4336D01*
X28982Y4281D01*
X29055Y4250D01*
X29134D01*
X29207Y4281D01*
X29263Y4336D01*
X29293Y4409D01*
Y4488D01*
X29263Y4561D01*
X29207Y4617D01*
X29186Y4626D01*
Y5238D01*
X31718Y7770D01*
X31738Y7800D01*
X31745Y7835D01*
Y11820D01*
X31795Y11830D01*
X31800Y11817D01*
X31856Y11761D01*
X31929Y11731D01*
X32008D01*
X32081Y11761D01*
X32137Y11817D01*
X32167Y11890D01*
Y11969D01*
X32137Y12042D01*
X32081Y12097D01*
X32060Y12106D01*
Y14862D01*
X32081Y14871D01*
X32137Y14927D01*
X32167Y15000D01*
Y15079D01*
X32137Y15152D01*
X32081Y15208D01*
X32008Y15238D01*
X31929D01*
X31882Y15219D01*
X31844Y15257D01*
X31852Y15275D01*
Y15354D01*
X31822Y15427D01*
X31766Y15483D01*
X31693Y15513D01*
D02*
G37*
G36*
X31260Y15946D02*
X31181D01*
X31108Y15916D01*
X31052Y15860D01*
X31022Y15788D01*
Y15709D01*
X31052Y15636D01*
X31108Y15580D01*
X31129Y15571D01*
Y11455D01*
X30927Y11253D01*
X30906Y11261D01*
X30827D01*
X30754Y11231D01*
X30698Y11175D01*
X30668Y11102D01*
Y11024D01*
X30698Y10951D01*
X30754Y10895D01*
X30827Y10865D01*
X30906D01*
X30979Y10895D01*
X31034Y10951D01*
X31065Y11024D01*
Y11102D01*
X31056Y11124D01*
X31285Y11353D01*
X31305Y11382D01*
X31312Y11417D01*
Y15571D01*
X31333Y15580D01*
X31389Y15636D01*
X31419Y15709D01*
Y15788D01*
X31389Y15860D01*
X31333Y15916D01*
X31260Y15946D01*
D02*
G37*
G36*
X36433Y11935D02*
X36323D01*
X36218Y11906D01*
X36123Y11852D01*
X36046Y11774D01*
X35991Y11680D01*
X35963Y11574D01*
Y11465D01*
X35991Y11360D01*
X36027Y11298D01*
X35862Y11133D01*
X34709D01*
X34695Y11183D01*
X34704Y11188D01*
X34781Y11265D01*
X34836Y11360D01*
X34864Y11465D01*
Y11574D01*
X34836Y11680D01*
X34781Y11774D01*
X34704Y11852D01*
X34609Y11906D01*
X34503Y11935D01*
X34394D01*
X34289Y11906D01*
X34194Y11852D01*
X34117Y11774D01*
X34062Y11680D01*
X34034Y11574D01*
Y11465D01*
X34062Y11360D01*
X34117Y11265D01*
X34194Y11188D01*
X34202Y11183D01*
X34189Y11133D01*
X32577D01*
X32542Y11126D01*
X32513Y11106D01*
X31983Y10576D01*
X31963Y10547D01*
X31956Y10512D01*
Y7872D01*
X29739Y5655D01*
X29719Y5625D01*
X29712Y5591D01*
Y4744D01*
X29691Y4735D01*
X29635Y4679D01*
X29605Y4606D01*
Y4527D01*
X29635Y4455D01*
X29691Y4399D01*
X29764Y4369D01*
X29807D01*
X29811Y4369D01*
X29816Y4319D01*
X29815Y4318D01*
X29800Y4315D01*
X29765Y4292D01*
X29764Y4293D01*
X29685D01*
X29612Y4263D01*
X29556Y4207D01*
X29526Y4134D01*
Y4055D01*
X29556Y3982D01*
X29612Y3926D01*
X29685Y3896D01*
X29764D01*
X29837Y3926D01*
X29893Y3982D01*
X29923Y4055D01*
Y4101D01*
X30527D01*
X30546Y4055D01*
X30540Y4049D01*
X30510Y3976D01*
Y3898D01*
X30519Y3876D01*
X30447Y3805D01*
X30428Y3775D01*
X30421Y3740D01*
Y3235D01*
X30428Y3200D01*
X30447Y3171D01*
X30494Y3125D01*
X30523Y3105D01*
X30558Y3098D01*
X30688D01*
Y2952D01*
X30965D01*
Y3387D01*
X30688D01*
Y3280D01*
X30603D01*
Y3702D01*
X30648Y3747D01*
X30669Y3739D01*
X30748D01*
X30821Y3769D01*
X30877Y3825D01*
X30907Y3898D01*
Y3976D01*
X30877Y4049D01*
X30871Y4055D01*
X30890Y4101D01*
X31109D01*
Y3858D01*
Y3387D01*
X31082D01*
Y2952D01*
X31359D01*
Y3387D01*
X31332D01*
Y3747D01*
X32559D01*
X32559Y3747D01*
X32571Y3750D01*
X32596Y3703D01*
X32588Y3695D01*
X32557Y3622D01*
Y3543D01*
X32588Y3470D01*
X32644Y3414D01*
X32716Y3384D01*
X32795D01*
X32868Y3414D01*
X32924Y3470D01*
X32941Y3511D01*
X32972D01*
X33007Y3518D01*
X33037Y3538D01*
X34080Y4581D01*
X34100Y4611D01*
X34107Y4646D01*
Y5972D01*
X34438D01*
Y5954D01*
X34556D01*
Y5639D01*
X35365D01*
Y5878D01*
X35411Y5897D01*
X35546Y5762D01*
X35575Y5743D01*
X35610Y5736D01*
X35691D01*
Y5659D01*
X36041D01*
Y5995D01*
X35957D01*
Y6210D01*
X36041D01*
Y6546D01*
X35997D01*
Y7036D01*
X36074D01*
Y7386D01*
X35737D01*
Y7302D01*
X35522D01*
Y7386D01*
X35186D01*
Y7322D01*
X32959D01*
X32959Y7322D01*
X32916Y7314D01*
X32880Y7290D01*
X32723Y7132D01*
X32699Y7096D01*
X32690Y7053D01*
X32690Y7053D01*
Y6457D01*
Y5877D01*
X32627D01*
Y5800D01*
X32402D01*
Y5838D01*
X31613D01*
Y5576D01*
X31613Y5551D01*
X31570Y5534D01*
X31549D01*
X31518Y5584D01*
X31537Y5630D01*
Y5709D01*
X31507Y5782D01*
X31451Y5838D01*
X31378Y5868D01*
X31299D01*
X31226Y5838D01*
X31170Y5782D01*
X31140Y5709D01*
Y5630D01*
X31170Y5557D01*
X31226Y5501D01*
X31247Y5492D01*
Y5489D01*
X31254Y5454D01*
X31274Y5425D01*
X31320Y5378D01*
X31322Y5377D01*
X31307Y5327D01*
X31140D01*
X30918Y5550D01*
Y5728D01*
X30939Y5737D01*
X30995Y5793D01*
X31025Y5866D01*
Y5945D01*
X30995Y6018D01*
X30939Y6074D01*
X30866Y6104D01*
X30787D01*
X30714Y6074D01*
X30659Y6018D01*
X30628Y5945D01*
Y5866D01*
X30659Y5793D01*
X30714Y5737D01*
X30736Y5728D01*
Y5512D01*
X30743Y5477D01*
X30762Y5447D01*
X31029Y5180D01*
X31021Y5147D01*
X31010Y5130D01*
X30936D01*
X30621Y5446D01*
X30631Y5472D01*
Y5551D01*
X30601Y5624D01*
X30545Y5680D01*
X30473Y5710D01*
X30394D01*
X30321Y5680D01*
X30265Y5624D01*
X30235Y5551D01*
Y5472D01*
X30265Y5399D01*
X30321Y5344D01*
X30394Y5313D01*
X30473D01*
X30489Y5320D01*
X30834Y4975D01*
X30863Y4955D01*
X30898Y4948D01*
X31020D01*
X31045Y4898D01*
X31022Y4843D01*
Y4764D01*
X31052Y4691D01*
X31108Y4635D01*
X31109Y4634D01*
Y4324D01*
X29866D01*
X29865Y4324D01*
X29855Y4374D01*
X29860Y4376D01*
X29916Y4399D01*
X29971Y4455D01*
X30002Y4527D01*
Y4606D01*
X29971Y4679D01*
X29916Y4735D01*
X29894Y4744D01*
Y5553D01*
X32112Y7770D01*
X32131Y7800D01*
X32138Y7835D01*
Y10474D01*
X32615Y10951D01*
X34211D01*
X34224Y10901D01*
X34194Y10883D01*
X34117Y10806D01*
X34062Y10711D01*
X34034Y10606D01*
Y10497D01*
X34062Y10391D01*
X34117Y10296D01*
X34194Y10219D01*
X34289Y10165D01*
X34394Y10136D01*
X34503D01*
X34609Y10165D01*
X34704Y10219D01*
X34781Y10296D01*
X34836Y10391D01*
X34864Y10497D01*
Y10606D01*
X34836Y10711D01*
X34781Y10806D01*
X34704Y10883D01*
X34673Y10901D01*
X34687Y10951D01*
X35900D01*
X35935Y10958D01*
X35964Y10977D01*
X36156Y11169D01*
X36218Y11133D01*
X36323Y11105D01*
X36433D01*
X36538Y11133D01*
X36633Y11188D01*
X36710Y11265D01*
X36765Y11360D01*
X36793Y11465D01*
Y11574D01*
X36765Y11680D01*
X36710Y11774D01*
X36633Y11852D01*
X36538Y11906D01*
X36433Y11935D01*
D02*
G37*
G36*
Y10966D02*
X36323D01*
X36218Y10938D01*
X36123Y10883D01*
X36046Y10806D01*
X35991Y10711D01*
X35963Y10606D01*
Y10497D01*
X35991Y10391D01*
X36046Y10296D01*
X36123Y10219D01*
X36218Y10165D01*
X36323Y10136D01*
X36433D01*
X36538Y10165D01*
X36633Y10219D01*
X36710Y10296D01*
X36765Y10391D01*
X36793Y10497D01*
Y10606D01*
X36765Y10711D01*
X36710Y10806D01*
X36633Y10883D01*
X36538Y10938D01*
X36433Y10966D01*
D02*
G37*
G36*
X27323Y16222D02*
X27244D01*
X27171Y16192D01*
X27115Y16136D01*
X27085Y16063D01*
Y15984D01*
X27115Y15911D01*
X27171Y15855D01*
X27244Y15825D01*
X27296D01*
X27506Y15616D01*
X27548Y15587D01*
X27598Y15577D01*
X29316D01*
X30184Y14709D01*
Y10213D01*
X30091Y10120D01*
X30039D01*
X30015Y10110D01*
X29971Y10146D01*
X29974Y10157D01*
Y14094D01*
X29964Y14145D01*
X29935Y14187D01*
X28853Y15270D01*
X28810Y15298D01*
X28760Y15308D01*
X27482D01*
X27445Y15345D01*
X27373Y15376D01*
X27294D01*
X27221Y15345D01*
X27165Y15290D01*
X27135Y15217D01*
Y15138D01*
X27165Y15065D01*
X27221Y15009D01*
X27294Y14979D01*
X27373D01*
X27445Y15009D01*
X27482Y15046D01*
X28705D01*
X29711Y14040D01*
Y10212D01*
X29186Y9687D01*
X29134D01*
X29061Y9656D01*
X29005Y9601D01*
X28975Y9528D01*
Y9449D01*
X29005Y9376D01*
X29061Y9320D01*
X29134Y9290D01*
X29213D01*
X29286Y9320D01*
X29341Y9376D01*
X29372Y9449D01*
Y9501D01*
X29830Y9960D01*
X29880Y9939D01*
Y9882D01*
X29911Y9809D01*
X29966Y9753D01*
X30039Y9723D01*
X30118D01*
X30191Y9753D01*
X30247Y9809D01*
X30277Y9882D01*
Y9935D01*
X30408Y10065D01*
X30436Y10108D01*
X30446Y10158D01*
Y14764D01*
X30436Y14814D01*
X30408Y14857D01*
X29463Y15801D01*
X29420Y15830D01*
X29370Y15840D01*
X27653D01*
X27482Y16011D01*
Y16063D01*
X27452Y16136D01*
X27396Y16192D01*
X27323Y16222D01*
D02*
G37*
G36*
X11670Y10178D02*
X10291D01*
Y9507D01*
X11670D01*
Y10178D01*
D02*
G37*
G36*
X36585Y9966D02*
X36170D01*
X35963Y9759D01*
Y9344D01*
X36170Y9136D01*
X36585D01*
X36793Y9344D01*
Y9759D01*
X36585Y9966D01*
D02*
G37*
G36*
X34656D02*
X34241D01*
X34034Y9759D01*
Y9344D01*
X34241Y9136D01*
X34656D01*
X34864Y9344D01*
Y9759D01*
X34656Y9966D01*
D02*
G37*
G36*
X13121Y8967D02*
X12785D01*
Y8903D01*
X12648D01*
Y8967D01*
X12312D01*
Y8617D01*
X12357D01*
Y8396D01*
X12312D01*
Y8178D01*
Y7834D01*
X12285Y7823D01*
X12269Y7785D01*
Y7621D01*
X12088Y7440D01*
X12072Y7402D01*
X12072Y7402D01*
Y6181D01*
X12072Y6181D01*
X12088Y6143D01*
X12088Y6143D01*
X12127Y6103D01*
X12165Y6088D01*
X12165Y6088D01*
X13740D01*
X13778Y6103D01*
X13778Y6103D01*
X14629Y6954D01*
X14921D01*
X14960Y6970D01*
X14975Y7008D01*
X14975Y7402D01*
X14960Y7440D01*
X14921Y7456D01*
X14916D01*
X14893Y7496D01*
X14893Y7506D01*
Y7846D01*
X14556D01*
Y7785D01*
X14460D01*
Y7845D01*
X14110D01*
Y7509D01*
X14460D01*
Y7563D01*
X14556D01*
Y7506D01*
X14556Y7496D01*
X14533Y7456D01*
X13211D01*
X12911Y7756D01*
X12930Y7803D01*
X13564D01*
X13650Y7716D01*
Y7509D01*
X14000D01*
Y7845D01*
X13779D01*
X13666Y7958D01*
X13637Y7978D01*
X13602Y7985D01*
X13168D01*
X13134Y8021D01*
Y8357D01*
X12784D01*
Y8202D01*
X12599D01*
Y8396D01*
X12579D01*
Y8617D01*
X12648D01*
Y8681D01*
X12785D01*
Y8617D01*
X13121D01*
Y8967D01*
D02*
G37*
G36*
X11940Y8396D02*
X11653D01*
Y8178D01*
Y7785D01*
X11940D01*
Y8178D01*
Y8396D01*
D02*
G37*
G36*
X29618Y8711D02*
X29268D01*
Y8375D01*
X29328D01*
Y8160D01*
X29261D01*
Y7824D01*
X29331D01*
Y7717D01*
X29253Y7639D01*
X29252Y7639D01*
X29173D01*
X29100Y7609D01*
X29044Y7553D01*
X29014Y7480D01*
Y7401D01*
X29044Y7329D01*
X29100Y7273D01*
X29173Y7243D01*
X29252D01*
X29325Y7273D01*
X29381Y7329D01*
X29411Y7401D01*
Y7480D01*
X29411Y7482D01*
X29521Y7592D01*
X29545Y7628D01*
X29554Y7671D01*
Y7824D01*
X29611D01*
Y8160D01*
X29551D01*
Y8375D01*
X29618D01*
Y8711D01*
D02*
G37*
G36*
X19095Y11222D02*
X19016D01*
X18943Y11192D01*
X18887Y11136D01*
X18857Y11063D01*
Y10984D01*
X18887Y10911D01*
X18943Y10855D01*
X18964Y10847D01*
Y9665D01*
X18943Y9656D01*
X18887Y9601D01*
X18857Y9528D01*
Y9449D01*
X18887Y9376D01*
X18943Y9320D01*
X18989Y9301D01*
X19005Y9247D01*
X19004Y9244D01*
X18975Y9173D01*
Y9094D01*
X19005Y9021D01*
X19061Y8966D01*
X19082Y8957D01*
Y6791D01*
X19061Y6782D01*
X19005Y6727D01*
X18975Y6654D01*
Y6575D01*
X19005Y6502D01*
X19061Y6446D01*
X19134Y6416D01*
X19213D01*
X19286Y6446D01*
X19341Y6502D01*
X19372Y6575D01*
Y6654D01*
X19341Y6727D01*
X19286Y6782D01*
X19264Y6791D01*
Y8957D01*
X19286Y8966D01*
X19341Y9021D01*
X19372Y9094D01*
Y9173D01*
X19341Y9246D01*
X19286Y9302D01*
X19239Y9321D01*
X19223Y9375D01*
X19224Y9378D01*
X19254Y9449D01*
Y9528D01*
X19223Y9601D01*
X19168Y9656D01*
X19146Y9665D01*
Y10847D01*
X19168Y10855D01*
X19223Y10911D01*
X19254Y10984D01*
Y11063D01*
X19223Y11136D01*
X19168Y11192D01*
X19095Y11222D01*
D02*
G37*
G36*
X19843Y5750D02*
X19764D01*
X19691Y5719D01*
X19635Y5664D01*
X19605Y5591D01*
Y5512D01*
X19635Y5439D01*
X19691Y5383D01*
X19764Y5353D01*
X19843D01*
X19916Y5383D01*
X19971Y5439D01*
X19980Y5460D01*
X21263D01*
X21288Y5399D01*
X21344Y5344D01*
X21417Y5313D01*
X21496D01*
X21569Y5344D01*
X21625Y5399D01*
X21655Y5472D01*
Y5551D01*
X21625Y5624D01*
X21569Y5680D01*
X21496Y5710D01*
X21417D01*
X21344Y5680D01*
X21307Y5642D01*
X19980D01*
X19971Y5664D01*
X19916Y5719D01*
X19843Y5750D01*
D02*
G37*
G36*
X21378Y4693D02*
X21299D01*
X21243Y4669D01*
X21170D01*
Y4607D01*
X21170Y4607D01*
X21140Y4534D01*
Y4455D01*
X21170Y4382D01*
X21170Y4382D01*
Y4319D01*
X21243D01*
X21299Y4296D01*
X21378D01*
X21435Y4319D01*
X21507D01*
Y4382D01*
X21507Y4382D01*
X21537Y4455D01*
Y4534D01*
X21507Y4607D01*
X21507Y4607D01*
Y4669D01*
X21435D01*
X21378Y4693D01*
D02*
G37*
G36*
X28110Y3545D02*
X28031D01*
X27960Y3515D01*
X27903D01*
Y3459D01*
X27903Y3459D01*
X27872Y3386D01*
Y3307D01*
X27903Y3234D01*
X27903Y3234D01*
Y3165D01*
X27990D01*
X28031Y3148D01*
X28110D01*
X28152Y3165D01*
X28239D01*
Y3234D01*
X28239Y3234D01*
X28269Y3307D01*
Y3386D01*
X28239Y3459D01*
X28239Y3459D01*
Y3515D01*
X28182D01*
X28110Y3545D01*
D02*
G37*
G36*
X22948Y3425D02*
X22869D01*
X22812Y3402D01*
X22740D01*
Y3340D01*
X22740Y3339D01*
X22710Y3267D01*
Y3188D01*
X22740Y3115D01*
X22740Y3115D01*
Y3052D01*
X22812D01*
X22869Y3029D01*
X22948D01*
X23004Y3052D01*
X23077D01*
Y3115D01*
X23077Y3115D01*
X23107Y3188D01*
Y3267D01*
X23077Y3339D01*
X23077Y3340D01*
Y3402D01*
X23004D01*
X22948Y3425D01*
D02*
G37*
G36*
X28239Y3055D02*
X27903D01*
Y2971D01*
X27018D01*
Y3042D01*
X26663D01*
Y2529D01*
X26749D01*
Y1408D01*
X26663D01*
Y895D01*
X27018D01*
Y1408D01*
X26932D01*
Y2529D01*
X27018D01*
Y2789D01*
X27903D01*
Y2705D01*
X27980D01*
Y2374D01*
X27903D01*
Y2024D01*
X28239D01*
Y2374D01*
X28162D01*
Y2705D01*
X28239D01*
Y2782D01*
X28611D01*
Y2705D01*
X28948D01*
Y3055D01*
X28611D01*
Y2964D01*
X28239D01*
Y3055D01*
D02*
G37*
G36*
X31753Y3387D02*
X31476D01*
Y2952D01*
X31753D01*
Y3387D01*
D02*
G37*
G36*
X23943Y3841D02*
X23607D01*
Y3491D01*
X23668D01*
Y2962D01*
X23607D01*
Y2878D01*
X23077D01*
Y2942D01*
X22740D01*
Y2592D01*
X22797D01*
Y2293D01*
X22740D01*
Y1943D01*
X23077D01*
Y2293D01*
X23020D01*
Y2592D01*
X23077D01*
Y2656D01*
X23607D01*
Y2449D01*
X23673D01*
Y1328D01*
X23607D01*
Y815D01*
X23962D01*
Y1328D01*
X23896D01*
Y2449D01*
X23962D01*
Y2962D01*
X23891D01*
Y3491D01*
X23943D01*
Y3841D01*
D02*
G37*
G36*
X20956Y3246D02*
X20619D01*
Y2896D01*
X20696D01*
Y2450D01*
X20541D01*
Y1970D01*
X21034D01*
Y2450D01*
X20879D01*
Y2896D01*
X20956D01*
Y3246D01*
D02*
G37*
G36*
X20089Y3252D02*
X19753D01*
Y2902D01*
X19830D01*
Y2450D01*
X19674D01*
Y1970D01*
X20168D01*
Y2450D01*
X20012D01*
Y2902D01*
X20089D01*
Y3252D01*
D02*
G37*
G36*
X19263D02*
X18926D01*
Y2902D01*
X19003D01*
Y2450D01*
X18848D01*
Y1970D01*
X19341D01*
Y2450D01*
X19186D01*
Y2902D01*
X19263D01*
Y3252D01*
D02*
G37*
G36*
X31753Y2245D02*
X31476D01*
Y1810D01*
X31753D01*
Y2245D01*
D02*
G37*
G36*
X30591Y2246D02*
X30512D01*
X30439Y2215D01*
X30383Y2160D01*
X30353Y2087D01*
Y2008D01*
X30383Y1935D01*
X30439Y1879D01*
X30512Y1849D01*
X30591D01*
X30638Y1869D01*
X30688Y1838D01*
Y1810D01*
X30965D01*
Y2245D01*
X30688D01*
Y2245D01*
X30638Y2226D01*
X30591Y2246D01*
D02*
G37*
G36*
X21034Y1810D02*
X20541D01*
Y1330D01*
X21034D01*
Y1810D01*
D02*
G37*
G36*
X20168D02*
X19674D01*
Y1330D01*
X20168D01*
Y1810D01*
D02*
G37*
G36*
X19341D02*
X18848D01*
Y1330D01*
X19243D01*
X19252Y1328D01*
X19261Y1330D01*
X19341D01*
Y1410D01*
X19343Y1419D01*
X19341Y1428D01*
Y1810D01*
D02*
G37*
G36*
X35534Y3250D02*
X35332D01*
X35133Y3218D01*
X34941Y3156D01*
X34762Y3064D01*
X34598Y2946D01*
X34456Y2803D01*
X34337Y2640D01*
X34246Y2460D01*
X34184Y2269D01*
X34152Y2069D01*
Y1868D01*
X34184Y1669D01*
X34246Y1477D01*
X34337Y1297D01*
X34456Y1134D01*
X34598Y991D01*
X34762Y873D01*
X34941Y781D01*
X35133Y719D01*
X35332Y687D01*
X35534D01*
X35733Y719D01*
X35925Y781D01*
X36105Y873D01*
X36268Y991D01*
X36410Y1134D01*
X36529Y1297D01*
X36620Y1477D01*
X36683Y1669D01*
X36714Y1868D01*
Y2069D01*
X36683Y2269D01*
X36620Y2460D01*
X36529Y2640D01*
X36410Y2803D01*
X36268Y2946D01*
X36105Y3064D01*
X35925Y3156D01*
X35733Y3218D01*
X35534Y3250D01*
D02*
G37*
G36*
X2069D02*
X1868D01*
X1669Y3218D01*
X1477Y3156D01*
X1297Y3064D01*
X1134Y2946D01*
X991Y2803D01*
X873Y2640D01*
X781Y2460D01*
X719Y2269D01*
X687Y2069D01*
Y1868D01*
X719Y1669D01*
X781Y1477D01*
X873Y1297D01*
X991Y1134D01*
X1134Y991D01*
X1297Y873D01*
X1477Y781D01*
X1669Y719D01*
X1868Y687D01*
X2069D01*
X2269Y719D01*
X2460Y781D01*
X2640Y873D01*
X2803Y991D01*
X2946Y1134D01*
X3064Y1297D01*
X3156Y1477D01*
X3218Y1669D01*
X3250Y1868D01*
Y2069D01*
X3218Y2269D01*
X3156Y2460D01*
X3064Y2640D01*
X2946Y2803D01*
X2803Y2946D01*
X2640Y3064D01*
X2460Y3156D01*
X2269Y3218D01*
X2069Y3250D01*
D02*
G37*
G36*
X7981Y4514D02*
X7902D01*
X7830Y4484D01*
X7774Y4428D01*
X7744Y4355D01*
Y4276D01*
X7774Y4203D01*
X7830Y4148D01*
X7851Y4139D01*
Y1034D01*
X7858Y1000D01*
X7878Y970D01*
X8117Y730D01*
X8109Y709D01*
Y630D01*
X8139Y557D01*
X8195Y501D01*
X8268Y471D01*
X8347D01*
X8419Y501D01*
X8475Y557D01*
X8506Y630D01*
Y709D01*
X8475Y782D01*
X8419Y838D01*
X8347Y868D01*
X8268D01*
X8246Y859D01*
X8033Y1072D01*
Y4139D01*
X8054Y4148D01*
X8110Y4203D01*
X8140Y4276D01*
Y4355D01*
X8110Y4428D01*
X8054Y4484D01*
X7981Y4514D01*
D02*
G37*
%LPD*%
G36*
X12731Y35802D02*
X12756Y35785D01*
X12761Y35777D01*
X12771Y35729D01*
X12745Y35703D01*
X12715Y35630D01*
Y35551D01*
X12745Y35478D01*
X12801Y35422D01*
X12874Y35392D01*
X12953D01*
X13026Y35422D01*
X13026Y35422D01*
X13041Y35436D01*
X13060Y35452D01*
X13275D01*
Y35372D01*
X13112Y35209D01*
X12493D01*
Y35971D01*
X12509Y35982D01*
X12543Y35990D01*
X12731Y35802D01*
D02*
G37*
G36*
X34488Y29921D02*
X34449Y29882D01*
X32480D01*
Y30669D01*
X34488D01*
Y29921D01*
D02*
G37*
G36*
X15061Y29798D02*
X15117Y29742D01*
X15138Y29733D01*
Y27846D01*
X15087Y27825D01*
X15061Y27799D01*
X15011Y27790D01*
X14999Y27802D01*
X14955Y27845D01*
X14934Y27854D01*
Y29744D01*
X14955Y29753D01*
X15005Y29803D01*
X15058Y29803D01*
X15061Y29798D01*
D02*
G37*
G36*
X14674Y29809D02*
X14730Y29753D01*
X14751Y29744D01*
Y27854D01*
X14730Y27845D01*
X14674Y27790D01*
X14671Y27782D01*
X14621Y27792D01*
Y29807D01*
X14671Y29817D01*
X14674Y29809D01*
D02*
G37*
G36*
X14567Y31457D02*
Y27441D01*
X18937D01*
X19213Y27717D01*
Y30039D01*
X18130D01*
X18012Y29921D01*
X17185D01*
Y30630D01*
X17382Y30827D01*
X17697D01*
X18563Y31693D01*
X20118D01*
Y27362D01*
X24488D01*
X25236Y28110D01*
X25236Y29862D01*
X25177Y29921D01*
X22776D01*
Y30669D01*
X23051D01*
X23996Y31614D01*
X25669D01*
X26024Y31260D01*
Y27520D01*
X25079Y26575D01*
X9803D01*
Y13583D01*
X10433Y12953D01*
Y12047D01*
X10354Y11968D01*
X8583D01*
Y8740D01*
X11142D01*
X11378Y8504D01*
Y7717D01*
X6693D01*
X6260Y8150D01*
Y10945D01*
X6693Y11378D01*
X6772D01*
Y12913D01*
X6811Y12953D01*
X8583D01*
Y29921D01*
X6850D01*
X6654Y30118D01*
X5512D01*
Y30827D01*
X5630Y30945D01*
X6024D01*
X6772Y31693D01*
X7835D01*
X7953Y31575D01*
Y30807D01*
X9134Y30827D01*
X9390Y30571D01*
Y27559D01*
X13150D01*
X13740Y28150D01*
Y30118D01*
X13051Y30118D01*
X12579D01*
X12500Y30039D01*
X11280D01*
X11262Y30057D01*
Y30827D01*
X11909D01*
X12815Y31732D01*
X14291D01*
X14567Y31457D01*
D02*
G37*
G36*
X11192Y24386D02*
X11199Y24351D01*
X11219Y24321D01*
X11884Y23656D01*
X11914Y23636D01*
X11949Y23629D01*
X13604D01*
X17980Y19254D01*
Y18935D01*
X17793Y18748D01*
X17738Y18764D01*
X17733Y18785D01*
X17860Y18912D01*
X17879Y18942D01*
X17886Y18976D01*
Y19173D01*
X17879Y19208D01*
X17860Y19238D01*
X13608Y23490D01*
X13578Y23509D01*
X13543Y23516D01*
X11770D01*
X10912Y24374D01*
X10918Y24385D01*
X10937Y24453D01*
Y24523D01*
X10918Y24591D01*
X10883Y24652D01*
X10833Y24702D01*
X10821Y24709D01*
Y24767D01*
X10833Y24774D01*
X10883Y24824D01*
X10918Y24885D01*
X10937Y24953D01*
Y25023D01*
X10918Y25091D01*
X10883Y25152D01*
X10833Y25202D01*
X10821Y25209D01*
Y25267D01*
X10833Y25274D01*
X10883Y25324D01*
X10918Y25385D01*
X10922Y25397D01*
X11192D01*
Y24386D01*
D02*
G37*
G36*
X16995Y19411D02*
Y16024D01*
X17002Y15989D01*
X17022Y15959D01*
X17731Y15251D01*
X17760Y15231D01*
X17795Y15224D01*
X19498D01*
X19607Y15114D01*
X19575Y15076D01*
X19562Y15084D01*
X19528Y15091D01*
X17794D01*
X16942Y15943D01*
Y19331D01*
X16935Y19366D01*
X16915Y19395D01*
X13490Y22820D01*
X13460Y22840D01*
X13425Y22847D01*
X11801D01*
X11773Y22885D01*
X11784Y22933D01*
X11805Y22942D01*
X11861Y22998D01*
X11870Y23019D01*
X13387D01*
X16995Y19411D01*
D02*
G37*
G36*
X6535Y13465D02*
X6535D01*
Y11575D01*
X6535D01*
X6575Y11535D01*
X6535Y11496D01*
Y11417D01*
X1772D01*
Y12520D01*
X2913Y13661D01*
X6535D01*
Y13465D01*
D02*
G37*
G36*
X17597Y11329D02*
X17585Y11299D01*
Y11279D01*
X17559Y11261D01*
X17480D01*
X17459Y11253D01*
X13255Y15456D01*
X13226Y15476D01*
X13191Y15483D01*
X10882D01*
X10879Y15495D01*
X10844Y15556D01*
X10794Y15606D01*
X10782Y15613D01*
Y15671D01*
X10794Y15678D01*
X10844Y15728D01*
X10879Y15789D01*
X10897Y15857D01*
Y15927D01*
X10879Y15995D01*
X10844Y16056D01*
X10794Y16106D01*
X10782Y16113D01*
Y16171D01*
X10794Y16178D01*
X10844Y16228D01*
X10879Y16289D01*
X10882Y16301D01*
X12626D01*
X17597Y11329D01*
D02*
G37*
G36*
X28791Y14039D02*
X28768Y13989D01*
X28583D01*
X28548Y13982D01*
X28518Y13962D01*
X27573Y13017D01*
X27554Y12988D01*
X27547Y12953D01*
Y10591D01*
X27554Y10556D01*
X27573Y10526D01*
X27676Y10424D01*
X27705Y10404D01*
X27740Y10397D01*
X27863D01*
Y10265D01*
X27863Y10261D01*
Y10215D01*
X27863Y10211D01*
Y9765D01*
X27863Y9761D01*
Y9715D01*
X27863Y9711D01*
Y9579D01*
X27500D01*
X27491Y9601D01*
X27435Y9656D01*
X27362Y9687D01*
X27283D01*
X27210Y9656D01*
X27155Y9601D01*
X27124Y9528D01*
Y9449D01*
X27155Y9376D01*
X27210Y9320D01*
X27283Y9290D01*
X27362D01*
X27435Y9320D01*
X27491Y9376D01*
X27500Y9397D01*
X27863D01*
Y9265D01*
X27863Y9261D01*
Y9215D01*
X27863Y9211D01*
Y8765D01*
X27863Y8761D01*
Y8715D01*
X27863Y8711D01*
Y8556D01*
X27717D01*
X27682Y8549D01*
X27652Y8529D01*
X27455Y8332D01*
X27436Y8303D01*
X27429Y8268D01*
Y8001D01*
X27379Y7981D01*
X27356Y8003D01*
X27284Y8033D01*
X27205D01*
X27132Y8003D01*
X27076Y7947D01*
X27046Y7874D01*
Y7795D01*
X27064Y7751D01*
X27062Y7749D01*
X27042Y7719D01*
X27035Y7685D01*
Y7264D01*
X27014Y7255D01*
X26992Y7233D01*
X26942Y7253D01*
Y12836D01*
X28148Y14043D01*
X28788D01*
X28791Y14039D01*
D02*
G37*
G36*
X17330Y11124D02*
X17321Y11102D01*
Y11024D01*
X17351Y10951D01*
X17407Y10895D01*
X17480Y10865D01*
X17559D01*
X17632Y10895D01*
X17688Y10951D01*
X17716Y11019D01*
X17744Y11061D01*
X17823D01*
X17870Y11081D01*
X17920Y11051D01*
Y9321D01*
X17870Y9300D01*
X17829Y9341D01*
X17756Y9372D01*
X17677D01*
X17656Y9363D01*
X17020Y9998D01*
Y11004D01*
X17042Y11013D01*
X17097Y11069D01*
X17128Y11142D01*
Y11221D01*
X17103Y11280D01*
X17145Y11309D01*
X17330Y11124D01*
D02*
G37*
G36*
X16033Y11844D02*
X16055Y11835D01*
Y9366D01*
X16062Y9331D01*
X16081Y9302D01*
X16449Y8934D01*
X16433Y8880D01*
X16412Y8875D01*
X15957Y9329D01*
Y11849D01*
X16007Y11870D01*
X16033Y11844D01*
D02*
G37*
G36*
X26022Y8151D02*
X26018Y8145D01*
X26011Y8110D01*
Y5841D01*
X25791D01*
X25787Y5841D01*
X25741D01*
X25737Y5841D01*
X25682D01*
Y8066D01*
X25700Y8084D01*
X25702Y8085D01*
X25743Y8127D01*
X25787Y8109D01*
X25866D01*
X25939Y8139D01*
X25983Y8183D01*
X26022Y8151D01*
D02*
G37*
G36*
X27863Y8265D02*
X27863Y8261D01*
Y8215D01*
X27863Y8211D01*
Y7765D01*
X27863Y7761D01*
Y7715D01*
X27863Y7711D01*
Y7265D01*
X27863Y7261D01*
Y7215D01*
X27863Y7211D01*
Y6765D01*
X27863Y6761D01*
Y6715D01*
X27863Y6711D01*
Y6265D01*
X27863Y6261D01*
Y6215D01*
X27863Y6211D01*
Y6079D01*
X27790D01*
X26998Y6871D01*
X27027Y6913D01*
X27087Y6888D01*
X27165D01*
X27238Y6918D01*
X27294Y6974D01*
X27304Y6998D01*
X27320Y7003D01*
X27361Y7004D01*
X27407Y6958D01*
X27480Y6928D01*
X27559D01*
X27632Y6958D01*
X27688Y7014D01*
X27718Y7087D01*
Y7165D01*
X27688Y7238D01*
X27632Y7294D01*
X27611Y7303D01*
Y8230D01*
X27754Y8373D01*
X27863D01*
Y8265D01*
D02*
G37*
G36*
X26484Y8159D02*
Y6772D01*
X26491Y6737D01*
X26510Y6707D01*
X27330Y5888D01*
X27311Y5841D01*
X27291D01*
X27287Y5841D01*
X27241D01*
X27237Y5841D01*
X26791D01*
X26787Y5841D01*
X26741D01*
X26737Y5841D01*
X26291D01*
X26287Y5841D01*
X26241D01*
X26193Y5858D01*
Y8026D01*
X26220Y8069D01*
X26299D01*
X26372Y8099D01*
X26428Y8155D01*
X26434Y8169D01*
X26484Y8159D01*
D02*
G37*
G36*
X25655Y8410D02*
X25628Y8347D01*
Y8269D01*
X25574Y8215D01*
X25572Y8214D01*
X25526Y8168D01*
X25506Y8138D01*
X25499Y8103D01*
Y5841D01*
X25291D01*
X25287Y5841D01*
X25241D01*
X25209Y5880D01*
Y8033D01*
X25340Y8164D01*
X25601Y8425D01*
X25616Y8439D01*
X25655Y8410D01*
D02*
G37*
G36*
X13898Y3976D02*
X13465Y3543D01*
Y1220D01*
X13307Y1063D01*
X11969D01*
Y4961D01*
X12087Y5079D01*
X13898D01*
Y3976D01*
D02*
G37*
G36*
X11339Y12008D02*
X10669D01*
Y13740D01*
X10709Y13780D01*
X11339D01*
Y12008D01*
D02*
G37*
G36*
X31800Y14927D02*
X31856Y14871D01*
X31877Y14862D01*
Y12106D01*
X31856Y12097D01*
X31800Y12042D01*
X31795Y12028D01*
X31745Y12038D01*
Y14931D01*
X31795Y14941D01*
X31800Y14927D01*
D02*
G37*
G36*
X35737Y7036D02*
X35814D01*
Y6546D01*
X35691D01*
Y6210D01*
X35775D01*
Y5995D01*
X35691D01*
Y5934D01*
X35641Y5925D01*
X35483Y6083D01*
Y6172D01*
X35147D01*
Y5975D01*
X34774D01*
Y6151D01*
Y6544D01*
X35365D01*
Y6881D01*
X35365D01*
X35369Y6929D01*
X35389Y6950D01*
X35409Y6979D01*
X35416Y7014D01*
Y7036D01*
X35522D01*
Y7120D01*
X35737D01*
Y7036D01*
D02*
G37*
G36*
X35186Y7036D02*
X35186Y7036D01*
X35178Y6989D01*
X35172Y6980D01*
X35165Y6945D01*
Y6881D01*
X34556D01*
Y6566D01*
X34438D01*
Y6548D01*
X32913D01*
Y7007D01*
X33005Y7100D01*
X35186D01*
Y7036D01*
D02*
G37*
G36*
X32627Y5541D02*
X32690D01*
Y5207D01*
X32627D01*
Y5130D01*
X32511D01*
Y5139D01*
X32224D01*
X32224Y4940D01*
X32181Y4922D01*
X31834D01*
X31792Y4940D01*
X31792Y4972D01*
Y5137D01*
Y5532D01*
X31834Y5551D01*
X32402D01*
Y5618D01*
X32627D01*
Y5541D01*
D02*
G37*
G36*
Y4871D02*
X32690D01*
Y4147D01*
X32513Y3969D01*
X31332D01*
Y4213D01*
Y4634D01*
X31333Y4635D01*
X31389Y4691D01*
X31419Y4764D01*
Y4843D01*
X31396Y4898D01*
X31421Y4948D01*
X31505D01*
Y4940D01*
X31571D01*
X31613Y4922D01*
X31613Y4890D01*
Y4635D01*
X32402D01*
X32402Y4922D01*
X32445Y4940D01*
X32511D01*
Y4948D01*
X32627D01*
Y4871D01*
D02*
G37*
G36*
X33132Y6316D02*
X33109Y6260D01*
Y6181D01*
X33139Y6108D01*
X33195Y6052D01*
X33268Y6022D01*
X33347D01*
X33419Y6052D01*
X33475Y6108D01*
X33492Y6149D01*
X33948D01*
X33969Y6099D01*
X33951Y6081D01*
X33932Y6052D01*
X33925Y6017D01*
Y4683D01*
X32963Y3722D01*
X32924Y3695D01*
X32868Y3751D01*
X32795Y3781D01*
X32716D01*
X32705Y3776D01*
X32677Y3819D01*
X32880Y4022D01*
X32880Y4022D01*
X32904Y4058D01*
X32913Y4101D01*
X32913Y4101D01*
Y4871D01*
X32977D01*
Y5207D01*
X32913D01*
Y5541D01*
X32977D01*
Y5877D01*
X32913D01*
Y6366D01*
X33106D01*
X33132Y6316D01*
D02*
G37*
G36*
X13189Y7402D02*
X14921D01*
X14921Y7008D01*
X14606D01*
X13740Y6142D01*
X12165D01*
X12126Y6181D01*
Y7402D01*
X12323Y7598D01*
Y7785D01*
X12599D01*
Y7795D01*
X12795D01*
X13189Y7402D01*
D02*
G37*
D10*
X24646Y35321D02*
D03*
Y35781D02*
D03*
X18976Y35400D02*
D03*
Y35860D02*
D03*
X7835Y35821D02*
D03*
Y35361D02*
D03*
X28780Y3340D02*
D03*
Y2880D02*
D03*
X19094Y3537D02*
D03*
Y3077D02*
D03*
X19921Y3537D02*
D03*
Y3077D02*
D03*
X20787Y3531D02*
D03*
Y3071D02*
D03*
X13543Y34534D02*
D03*
Y34994D02*
D03*
X7598Y30112D02*
D03*
Y29652D02*
D03*
X12815Y30269D02*
D03*
Y29809D02*
D03*
X18484Y30151D02*
D03*
Y29691D02*
D03*
X6772Y33510D02*
D03*
Y33970D02*
D03*
X23775Y4126D02*
D03*
Y3666D02*
D03*
X28071Y2199D02*
D03*
Y1739D02*
D03*
Y2880D02*
D03*
Y3340D02*
D03*
X22908Y2767D02*
D03*
Y3227D02*
D03*
Y2118D02*
D03*
Y1658D02*
D03*
X27441Y32277D02*
D03*
Y31817D02*
D03*
X29843Y32277D02*
D03*
Y31817D02*
D03*
X20236Y11542D02*
D03*
Y12002D02*
D03*
Y11136D02*
D03*
Y10676D02*
D03*
X19488Y12290D02*
D03*
Y12750D02*
D03*
X19016Y12290D02*
D03*
Y12750D02*
D03*
X18543D02*
D03*
Y12290D02*
D03*
X18071D02*
D03*
Y12750D02*
D03*
X28031Y31817D02*
D03*
Y32277D02*
D03*
X29213Y31817D02*
D03*
Y32277D02*
D03*
X21339Y4494D02*
D03*
Y4954D02*
D03*
X22008D02*
D03*
Y4494D02*
D03*
X35354Y7671D02*
D03*
Y7211D02*
D03*
X35906Y7671D02*
D03*
Y7211D02*
D03*
X14724Y7211D02*
D03*
Y7671D02*
D03*
X12953Y8792D02*
D03*
Y9252D02*
D03*
X12480Y8792D02*
D03*
Y9252D02*
D03*
D11*
X24035Y35925D02*
D03*
Y35177D02*
D03*
X23051D02*
D03*
Y35551D02*
D03*
Y35925D02*
D03*
X18406Y36004D02*
D03*
Y35256D02*
D03*
X17421D02*
D03*
Y35630D02*
D03*
Y36004D02*
D03*
X8406Y35217D02*
D03*
Y35965D02*
D03*
X9390D02*
D03*
Y35591D02*
D03*
Y35217D02*
D03*
X6161Y34114D02*
D03*
Y33366D02*
D03*
X5177D02*
D03*
Y33740D02*
D03*
Y34114D02*
D03*
D12*
X21811Y32620D02*
D03*
Y31260D02*
D03*
X16299Y32806D02*
D03*
Y31446D02*
D03*
X10433Y32913D02*
D03*
Y31553D02*
D03*
X4252Y32895D02*
D03*
Y31535D02*
D03*
X10433Y33651D02*
D03*
Y35011D02*
D03*
X16299Y33533D02*
D03*
Y34893D02*
D03*
X4252Y33651D02*
D03*
Y35011D02*
D03*
X21811Y33346D02*
D03*
Y34706D02*
D03*
X9134Y6918D02*
D03*
Y8278D02*
D03*
X10236Y6918D02*
D03*
Y8278D02*
D03*
D13*
X24173Y10000D02*
D03*
X24724D02*
D03*
Y9449D02*
D03*
Y8898D02*
D03*
X24173D02*
D03*
X23622D02*
D03*
Y9449D02*
D03*
Y10000D02*
D03*
X24173Y9449D02*
D03*
D14*
X28209Y12488D02*
D03*
Y11988D02*
D03*
Y11488D02*
D03*
Y10988D02*
D03*
Y10488D02*
D03*
Y9988D02*
D03*
Y9488D02*
D03*
Y8988D02*
D03*
Y8488D02*
D03*
Y7988D02*
D03*
Y7488D02*
D03*
Y6988D02*
D03*
Y6488D02*
D03*
Y5988D02*
D03*
X21319D02*
D03*
Y6488D02*
D03*
Y6988D02*
D03*
Y7488D02*
D03*
Y7988D02*
D03*
Y8488D02*
D03*
Y8988D02*
D03*
Y9488D02*
D03*
Y9988D02*
D03*
Y10488D02*
D03*
Y10988D02*
D03*
Y11488D02*
D03*
Y11988D02*
D03*
Y12488D02*
D03*
D15*
X27514Y5496D02*
D03*
X27014D02*
D03*
X26514D02*
D03*
X26014D02*
D03*
X25514D02*
D03*
X25014D02*
D03*
X24514D02*
D03*
X24014D02*
D03*
X23514D02*
D03*
X23014D02*
D03*
X22514D02*
D03*
X22014D02*
D03*
D16*
X32801Y5709D02*
D03*
X33261D02*
D03*
Y5039D02*
D03*
X32801D02*
D03*
X29443Y8543D02*
D03*
X28983D02*
D03*
X29436Y7992D02*
D03*
X28976D02*
D03*
X14049Y36614D02*
D03*
X13589D02*
D03*
X6233Y27874D02*
D03*
X6693D02*
D03*
X11994Y28858D02*
D03*
X12454D02*
D03*
X17827Y28661D02*
D03*
X18287D02*
D03*
X23412Y28504D02*
D03*
X23872D02*
D03*
X33143Y29409D02*
D03*
X32683D02*
D03*
X36326Y6378D02*
D03*
X35866D02*
D03*
X36326Y5827D02*
D03*
X35866D02*
D03*
X13419Y8189D02*
D03*
X12959D02*
D03*
X13825Y7677D02*
D03*
X14285D02*
D03*
D17*
X7130Y11770D02*
D03*
Y12270D02*
D03*
Y12770D02*
D03*
Y13270D02*
D03*
D18*
X5748Y12520D02*
D03*
D19*
X20787Y1570D02*
D03*
Y2210D02*
D03*
X24154Y30163D02*
D03*
Y29523D02*
D03*
X19921Y1570D02*
D03*
Y2210D02*
D03*
X19094D02*
D03*
Y1570D02*
D03*
X11102Y7357D02*
D03*
Y7997D02*
D03*
D20*
X1654Y25984D02*
D03*
Y25197D02*
D03*
Y25591D02*
D03*
Y26378D02*
D03*
X1693Y22283D02*
D03*
Y21496D02*
D03*
Y21890D02*
D03*
Y22677D02*
D03*
Y19409D02*
D03*
Y18622D02*
D03*
Y19016D02*
D03*
Y19803D02*
D03*
Y16535D02*
D03*
Y15748D02*
D03*
Y16142D02*
D03*
Y16929D02*
D03*
D21*
X669Y26929D02*
D03*
Y24646D02*
D03*
X709Y23228D02*
D03*
Y20945D02*
D03*
Y20354D02*
D03*
Y18071D02*
D03*
Y17480D02*
D03*
Y15197D02*
D03*
D22*
X13760Y36117D02*
D03*
X13169D02*
D03*
Y35615D02*
D03*
X13760D02*
D03*
D23*
X13563Y36117D02*
D03*
X13366D02*
D03*
Y35615D02*
D03*
X13563D02*
D03*
D24*
X13126Y35866D02*
D03*
X13803D02*
D03*
D25*
X14882Y34213D02*
D03*
X11890Y34094D02*
D03*
X9016D02*
D03*
X2953Y31929D02*
D03*
X17598Y34252D02*
D03*
X5472Y31890D02*
D03*
X20630Y34055D02*
D03*
X23228Y33976D02*
D03*
D26*
X16594Y29213D02*
D03*
X4921Y29409D02*
D03*
X10689Y29331D02*
D03*
X22209Y29215D02*
D03*
D27*
X15844Y30280D02*
D03*
X16344D02*
D03*
X16844D02*
D03*
X17344D02*
D03*
Y28145D02*
D03*
X16844D02*
D03*
X16344D02*
D03*
X15844D02*
D03*
X4171Y30477D02*
D03*
X4671D02*
D03*
X5171D02*
D03*
X5671D02*
D03*
Y28342D02*
D03*
X5171D02*
D03*
X4671D02*
D03*
X4171D02*
D03*
X9939Y30398D02*
D03*
X10439D02*
D03*
X10939D02*
D03*
X11439D02*
D03*
Y28263D02*
D03*
X10939D02*
D03*
X10439D02*
D03*
X9939D02*
D03*
X21459Y30283D02*
D03*
X21959D02*
D03*
X22459D02*
D03*
X22959D02*
D03*
Y28147D02*
D03*
X22459D02*
D03*
X21959D02*
D03*
X21459D02*
D03*
D28*
X29390Y34528D02*
D03*
X28996D02*
D03*
X28406D02*
D03*
X28012D02*
D03*
X28209D02*
D03*
X28602D02*
D03*
X28799D02*
D03*
X29193D02*
D03*
D29*
X27441D02*
D03*
X27756D02*
D03*
X29646D02*
D03*
X29961D02*
D03*
D30*
X30827Y2028D02*
D03*
X31220D02*
D03*
X31614D02*
D03*
Y3169D02*
D03*
X31220D02*
D03*
X30827D02*
D03*
D31*
X31220Y2598D02*
D03*
D32*
X31713Y4778D02*
D03*
X31909D02*
D03*
X32106D02*
D03*
X32303D02*
D03*
Y5694D02*
D03*
X32106D02*
D03*
X31909D02*
D03*
X31713D02*
D03*
D33*
X32367Y5039D02*
D03*
Y5236D02*
D03*
Y5433D02*
D03*
X31648D02*
D03*
Y5236D02*
D03*
Y5039D02*
D03*
D34*
X34606Y6063D02*
D03*
Y6260D02*
D03*
Y6457D02*
D03*
X35315D02*
D03*
Y6260D02*
D03*
Y6063D02*
D03*
D35*
X34665Y6713D02*
D03*
X34862D02*
D03*
X35059D02*
D03*
X35256D02*
D03*
Y5807D02*
D03*
X35059D02*
D03*
X34862D02*
D03*
X34665D02*
D03*
D36*
X12530Y2244D02*
D03*
X11170D02*
D03*
Y3346D02*
D03*
X12530D02*
D03*
D37*
X12456Y8287D02*
D03*
Y8091D02*
D03*
Y7894D02*
D03*
Y7697D02*
D03*
X11796D02*
D03*
Y7894D02*
D03*
Y8091D02*
D03*
Y8287D02*
D03*
D38*
X12953Y6772D02*
D03*
Y4409D02*
D03*
D39*
X2598Y8346D02*
D03*
X2733Y12058D02*
D03*
D40*
X30988Y30276D02*
D03*
X31890D02*
D03*
X32791D02*
D03*
X11882Y12441D02*
D03*
X10980D02*
D03*
X10079D02*
D03*
D41*
X31890Y32874D02*
D03*
X10980Y9843D02*
D03*
D42*
X9252Y11535D02*
D03*
Y12295D02*
D03*
X33780Y30250D02*
D03*
Y31010D02*
D03*
D43*
X34189Y26181D02*
D03*
X34709D02*
D03*
X27071Y33819D02*
D03*
X26551D02*
D03*
X30213D02*
D03*
X30732D02*
D03*
X34748Y26929D02*
D03*
X34228D02*
D03*
X34748Y27559D02*
D03*
X34228D02*
D03*
D44*
X27717Y32889D02*
D03*
Y33804D02*
D03*
X33110Y27889D02*
D03*
Y28804D02*
D03*
X29646Y32889D02*
D03*
Y33804D02*
D03*
D45*
X35488Y26673D02*
D03*
Y26929D02*
D03*
Y27185D02*
D03*
Y27441D02*
D03*
Y27697D02*
D03*
D46*
X35522Y26206D02*
D03*
Y28164D02*
D03*
D47*
X36535Y25856D02*
D03*
Y28514D02*
D03*
D48*
Y26732D02*
D03*
D49*
Y27795D02*
D03*
D50*
X24631Y2705D02*
D03*
Y1072D02*
D03*
X23784Y2705D02*
D03*
Y1072D02*
D03*
D51*
X25994Y1152D02*
D03*
Y2785D02*
D03*
X26841Y1152D02*
D03*
Y2785D02*
D03*
D52*
X28976Y33803D02*
D03*
Y33283D02*
D03*
X28386Y33803D02*
D03*
Y33283D02*
D03*
D53*
X10998Y13228D02*
D03*
X11758D02*
D03*
X31837Y29370D02*
D03*
X31077D02*
D03*
D54*
X11530Y1378D02*
D03*
X12170D02*
D03*
D55*
X31220Y3858D02*
X32559D01*
X32801Y4101D02*
Y5039D01*
X32559Y3858D02*
X32801Y4101D01*
X31220Y3858D02*
Y4213D01*
Y3169D02*
Y3858D01*
Y4213D02*
Y4803D01*
X29843Y4213D02*
X31220D01*
X29724Y4094D02*
X29843Y4213D01*
X32801Y6457D02*
Y7053D01*
Y5709D02*
Y6457D01*
Y7053D02*
X32959Y7211D01*
X35354D01*
X32801Y5039D02*
Y5709D01*
X23406Y28147D02*
Y28504D01*
X29443Y7671D02*
Y7995D01*
X11437Y28110D02*
Y28354D01*
X6535Y33977D02*
X6772D01*
X29213Y7441D02*
X29443Y7671D01*
X29439Y7995D02*
Y8540D01*
X29443Y8543D01*
X18032Y7441D02*
Y12250D01*
X18071Y12290D01*
X18032Y7441D02*
X18740D01*
X16181Y6929D02*
X16693Y7441D01*
X18032D01*
X23406Y28147D02*
X24525D01*
X22959D02*
X23406D01*
X31811Y28150D02*
Y29331D01*
Y24535D02*
Y28150D01*
X30197Y28189D02*
X31772D01*
X31811Y28150D01*
X24525Y28147D02*
X24528Y28150D01*
X20236Y11181D02*
Y11542D01*
Y11136D02*
Y11181D01*
X29436Y7992D02*
X29439Y7995D01*
X6161Y34114D02*
X6220Y34055D01*
X6142Y34134D02*
X6161Y34114D01*
X14961Y2126D02*
X16181Y3346D01*
Y6929D01*
X13071Y2126D02*
X14961D01*
X12992Y3346D02*
X14882D01*
X15354Y3819D01*
X1693Y22677D02*
X1693Y22677D01*
X6220Y27283D02*
Y27862D01*
X6233Y27874D01*
X24092Y35982D02*
X24517D01*
X24587Y35840D02*
Y35913D01*
X24517Y35982D02*
X24587Y35913D01*
Y35840D02*
X24646Y35781D01*
X18406Y36004D02*
X18452Y35957D01*
X18728D02*
X18772Y35913D01*
X18923D01*
X18976Y35860D01*
X18452Y35957D02*
X18728D01*
X8406Y35217D02*
Y35471D01*
X8465Y35530D01*
Y35551D01*
X6457Y34055D02*
X6535Y33977D01*
X6220Y34055D02*
X6457D01*
X7510Y35394D02*
X7801D01*
X7441Y35325D02*
X7510Y35394D01*
X7441Y34046D02*
Y35325D01*
X7801Y35394D02*
X7835Y35361D01*
X6778Y33976D02*
X7372D01*
X7441Y34046D01*
X6772Y33970D02*
X6778Y33976D01*
X6142Y34134D02*
Y34685D01*
X22609Y35177D02*
X23051D01*
X22520Y35088D02*
X22609Y35177D01*
X22520Y33961D02*
Y35088D01*
X21811Y33346D02*
X21905D01*
X22520Y33961D01*
X17038Y35256D02*
X17421D01*
X16968Y35187D02*
X17038Y35256D01*
X16968Y34331D02*
Y35187D01*
X16634Y33996D02*
X16968Y34331D01*
X16393Y33533D02*
X16634Y33774D01*
Y33996D01*
X16299Y33533D02*
X16393D01*
X9843Y33720D02*
Y35895D01*
X9390Y35965D02*
X9773D01*
X9843Y35895D01*
X7835Y35354D02*
Y35361D01*
X7972Y35217D02*
X8406D01*
X7835Y35354D02*
X7972Y35217D01*
X9912Y33651D02*
X10433D01*
X9843Y33720D02*
X9912Y33651D01*
X5715Y27943D02*
X5784Y27874D01*
X6233D01*
X5715Y27943D02*
Y28298D01*
X5671Y28342D02*
X5715Y28298D01*
X11988Y28852D02*
X11994Y28858D01*
X11437Y28354D02*
X11508Y28425D01*
X11919D02*
X11988Y28494D01*
X11508Y28425D02*
X11919D01*
X11988Y28494D02*
Y28852D01*
X17344Y28145D02*
X17653D01*
X17827Y28320D02*
Y28661D01*
X17653Y28145D02*
X17827Y28320D01*
X23775Y3666D02*
X23780Y3661D01*
Y2710D02*
X23784Y2705D01*
X23780Y2710D02*
Y3661D01*
X22908Y2767D02*
X23723D01*
X23784Y1072D02*
Y2705D01*
X22908Y2118D02*
Y2767D01*
X15354Y3819D02*
Y7992D01*
X12953Y9252D02*
X14094D01*
X15354Y7992D01*
X12301Y1240D02*
X12308D01*
X12170Y1371D02*
X12301Y1240D01*
X12953Y4409D02*
X13228Y4685D01*
X33110Y26181D02*
X33425Y25866D01*
X33110Y26181D02*
Y27889D01*
X33164Y29705D02*
X33709Y30250D01*
X33780D01*
X33143Y29409D02*
X33164Y29430D01*
Y29705D01*
X33127Y28821D02*
Y29393D01*
X33143Y29409D01*
X33110Y28804D02*
X33127Y28821D01*
X20236Y11542D02*
X21265D01*
X21319Y11488D01*
X21305Y12002D02*
X21319Y11988D01*
X20236Y12002D02*
X21305D01*
X20236D02*
Y12009D01*
X19488Y12290D02*
X19955D01*
X20236Y12009D01*
X19016Y12290D02*
X19488D01*
X18543D02*
X19016D01*
X18071D02*
X18543D01*
X29646Y33804D02*
X29661Y33819D01*
X30213D01*
X27702D02*
X27717Y33804D01*
X27071Y33819D02*
X27702D01*
X27736Y33824D02*
Y34469D01*
X27717Y33804D02*
X27736Y33824D01*
Y34469D02*
X27756Y34488D01*
X33425Y25866D02*
X34567D01*
X34701Y26174D02*
X34709Y26181D01*
X34701Y26001D02*
Y26174D01*
X34567Y25866D02*
X34701Y26001D01*
X34709Y26181D02*
X34712D01*
X34732Y26201D02*
Y26346D01*
X35030Y26644D01*
X35459D01*
X34712Y26181D02*
X34732Y26201D01*
X35459Y26644D02*
X35488Y26673D01*
X29646Y33804D02*
Y34488D01*
X31811Y24535D02*
X34984Y21362D01*
X35859Y5827D02*
X35866D01*
X12468Y8287D02*
Y8780D01*
X14721Y7674D02*
X14724Y7671D01*
X14285Y7677D02*
X14288Y7674D01*
X14721D01*
X12480Y8792D02*
X12953D01*
X12468Y8780D02*
X12480Y8792D01*
X12456Y8287D02*
X12468D01*
X12456Y8091D02*
X12854D01*
X12952Y8189D02*
X12959D01*
X12854Y8091D02*
X12952Y8189D01*
D56*
X15000Y36929D02*
X15276Y36654D01*
X12953Y36929D02*
X15000D01*
X12598Y36575D02*
X12953Y36929D01*
X28417Y33669D02*
Y33772D01*
X28386Y33803D02*
X28417Y33772D01*
X28701Y31850D02*
Y33386D01*
X28417Y33669D02*
X28701Y33386D01*
X28386Y34252D02*
Y34350D01*
X28189Y34055D02*
X28386Y34252D01*
X28189Y33937D02*
Y34055D01*
X28406Y34370D02*
Y34488D01*
X28386Y34350D02*
X28406Y34370D01*
X28189Y33937D02*
X28268Y33858D01*
X28346D01*
X28386Y33803D02*
Y33819D01*
X28346Y33858D02*
X28386Y33819D01*
X28012Y32297D02*
Y34488D01*
Y32297D02*
X28031Y32277D01*
X28984Y33811D02*
X28986Y33813D01*
Y34478D01*
X28593Y34144D02*
Y34518D01*
X28583Y34134D02*
X28593Y34144D01*
Y34518D02*
X28602Y34528D01*
X28615Y33803D02*
X28811Y33999D01*
Y34350D01*
X28799Y34362D02*
Y34488D01*
Y34362D02*
X28811Y34350D01*
X30898Y5039D02*
X31648D01*
X30433Y5504D02*
X30898Y5039D01*
X30512Y3235D02*
Y3740D01*
X30709Y3937D01*
X32776Y3602D02*
X32972D01*
X32756Y3583D02*
X32776Y3602D01*
X32972D02*
X34016Y4646D01*
X30433Y5504D02*
Y5512D01*
X34016Y6017D02*
X34062Y6063D01*
X34016Y4646D02*
Y6017D01*
X34062Y6063D02*
X34606D01*
X34587Y6240D02*
X34606Y6260D01*
X33327Y6240D02*
X34587D01*
X33307Y6220D02*
X33327Y6240D01*
X32801Y6457D02*
X34606D01*
X31102Y5236D02*
X31648D01*
X30827Y5512D02*
Y5906D01*
Y5512D02*
X31102Y5236D01*
X31339Y5489D02*
Y5669D01*
X31639Y5443D02*
X31648Y5433D01*
X31339Y5489D02*
X31385Y5443D01*
X31639D01*
X32047Y7835D02*
Y10512D01*
X29803Y4567D02*
Y5591D01*
X32047Y7835D01*
X29094Y4449D02*
Y5276D01*
X31654Y7835D02*
Y15315D01*
X29094Y5276D02*
X31654Y7835D01*
X30807Y3189D02*
X30827Y3169D01*
X30558Y3189D02*
X30807D01*
X30512Y3235D02*
X30558Y3189D01*
X30807Y2047D02*
X30827Y2028D01*
X30551Y2047D02*
X30807D01*
X27244Y7803D02*
Y7835D01*
X27126Y7087D02*
Y7685D01*
X27244Y7803D01*
X27520Y7126D02*
Y8268D01*
X26850Y12874D02*
X28110Y14134D01*
X26850Y6890D02*
X27752Y5988D01*
X26850Y6890D02*
Y12874D01*
X27717Y8465D02*
X28110D01*
X27520Y8268D02*
X27717Y8465D01*
X32367Y5039D02*
X32801D01*
X32303Y5699D02*
X32313Y5709D01*
X32801D01*
X32303Y5694D02*
Y5699D01*
X32047Y10512D02*
X32577Y11042D01*
X35900D01*
X36378Y11520D01*
X28209Y11988D02*
X28228Y11968D01*
X28701D01*
X31969Y11929D02*
Y15039D01*
X28236Y9961D02*
X28701D01*
X28209Y9988D02*
X28236Y9961D01*
X35438Y15760D02*
X36374D01*
X35438D02*
X35438Y15760D01*
X35438Y14365D02*
Y15760D01*
X34488Y15760D02*
X35438D01*
X7942Y1034D02*
Y4316D01*
Y1034D02*
X8307Y669D01*
X31220Y11417D02*
Y15748D01*
X30866Y11063D02*
X31220Y11417D01*
X28213Y10984D02*
X28701D01*
X28209Y10988D02*
X28213Y10984D01*
X27483Y5527D02*
Y5863D01*
X26575Y6772D02*
X27483Y5863D01*
X26575Y6772D02*
Y8701D01*
X27483Y5527D02*
X27514Y5496D01*
X28209Y4862D02*
X28780Y4291D01*
Y3340D02*
Y4291D01*
X26929Y2880D02*
X28071D01*
Y2873D02*
X28773D01*
X28780Y2880D01*
X27008Y16811D02*
X29961D01*
X21686Y11489D02*
X27008Y16811D01*
X27835Y16339D02*
X27889Y16393D01*
X29951D01*
X27323Y9488D02*
X28209D01*
X25551Y10839D02*
X26082Y11369D01*
X27752Y5988D02*
X28209D01*
X21320Y11489D02*
X21686D01*
X22008Y6339D02*
Y9213D01*
X27441Y14646D01*
X28268D01*
X27441Y14409D02*
X28543D01*
X22362Y6614D02*
Y9331D01*
X27441Y14409D01*
X21693Y16496D02*
X22598Y17402D01*
X17598Y16339D02*
X17756Y16496D01*
X21693D01*
X19173Y6614D02*
Y9134D01*
X21425Y5512D02*
X21457D01*
X19803Y5551D02*
X21385D01*
X21425Y5512D01*
X19449Y5157D02*
Y5945D01*
X19764Y6260D02*
Y10972D01*
X19449Y5945D02*
X19764Y6260D01*
X19449Y5157D02*
X20480Y4126D01*
X19055Y9488D02*
Y11024D01*
X19764Y10972D02*
X19927Y11136D01*
X12663Y16392D02*
X17783Y11272D01*
Y11260D02*
Y11272D01*
X19927Y11136D02*
X20236D01*
X16929Y9961D02*
X17717Y9173D01*
X16929Y9961D02*
Y11181D01*
X18021Y16210D02*
X22548D01*
X23740Y17402D01*
X17835Y16024D02*
X18021Y16210D01*
X17087Y16024D02*
X17795Y15315D01*
X16850Y15906D02*
X17756Y15000D01*
X19528D01*
X17795Y15315D02*
X19536D01*
X17087Y16024D02*
Y19449D01*
X16850Y15906D02*
Y19331D01*
X19528Y15000D02*
X22087Y12441D01*
X19536Y15315D02*
X21972Y12878D01*
X19961Y15433D02*
X21996Y13398D01*
X20079Y15945D02*
X22399Y13625D01*
X19921Y15945D02*
X20079D01*
X21996Y13398D02*
X22931D01*
X22399Y13625D02*
X23112D01*
X23661Y11417D02*
Y12126D01*
X21287Y7520D02*
X21319Y7488D01*
X20755Y7520D02*
X21287D01*
X20709Y7566D02*
X20755Y7520D01*
X20709Y7566D02*
Y8084D01*
X20103Y8689D02*
X20709Y8084D01*
X16575Y9921D02*
X17638Y8858D01*
X16575Y9921D02*
Y11496D01*
X13191Y15392D02*
X17520Y11063D01*
X10630Y15392D02*
X13191D01*
X25551Y8504D02*
Y10839D01*
X25276Y8228D02*
X25551Y8504D01*
X25197Y8583D02*
Y11102D01*
X25591Y11496D01*
X24606Y7992D02*
X25197Y8583D01*
X24606Y5589D02*
Y7992D01*
X22931Y13398D02*
X22936Y13394D01*
X18071Y18898D02*
Y19291D01*
X13642Y23720D02*
X18071Y19291D01*
X17480Y18307D02*
X18071Y18898D01*
X16146Y9366D02*
Y12012D01*
Y9366D02*
X16890Y8622D01*
X15866Y9291D02*
X16496Y8661D01*
X17480Y18307D02*
X17480D01*
X10630Y16392D02*
X12663D01*
X28583Y13898D02*
X29094D01*
X15866Y9291D02*
Y12362D01*
X17795Y18976D02*
Y19173D01*
X17520Y18701D02*
X17795Y18976D01*
X23110Y11339D02*
Y12126D01*
X13425Y23110D02*
X17087Y19449D01*
X19449Y19016D02*
X22228D01*
X22598Y19386D01*
X20000Y18386D02*
X22598D01*
X19764Y18622D02*
X20000Y18386D01*
X13543Y23425D02*
X17795Y19173D01*
X11693Y23110D02*
X13425D01*
X13425Y22756D02*
X16850Y19331D01*
X15200Y27657D02*
X15229Y27686D01*
Y29910D01*
X14072Y35574D02*
Y35653D01*
X13803Y35866D02*
X13858D01*
X14072Y35653D01*
Y35574D02*
X14094Y35551D01*
X14843Y27677D02*
Y29921D01*
X13760Y35335D02*
X13819Y35276D01*
X13760Y35335D02*
Y35615D01*
X10669Y25488D02*
X11237D01*
X11283Y25442D01*
Y24386D02*
Y25442D01*
Y24386D02*
X11949Y23720D01*
X13642D01*
X10669Y24488D02*
X11732Y23425D01*
X13543D01*
X6890Y23898D02*
X8110D01*
X5171Y25616D02*
X6890Y23898D01*
X5171Y25616D02*
Y28342D01*
X4671Y25683D02*
Y28342D01*
Y25683D02*
X6890Y23465D01*
X6457Y22008D02*
Y23307D01*
X6890Y23465D02*
X8110D01*
X11614Y22756D02*
X13425D01*
X10079Y22402D02*
Y25324D01*
X10243Y25488D01*
X10630Y16392D02*
X11732Y17494D01*
Y18465D01*
X7362Y18386D02*
X8031D01*
X8307Y18110D01*
X6850Y17835D02*
Y18976D01*
X7468Y19803D02*
X8178Y20513D01*
Y20523D01*
X10243Y25488D02*
X10669D01*
X7776Y19272D02*
X8189Y19685D01*
X6555Y19272D02*
X7776D01*
X5906Y18622D02*
X6555Y19272D01*
X1693Y18622D02*
X5906D01*
X1693Y19803D02*
X7468D01*
X7402Y19409D02*
X8150Y20157D01*
X1693Y19409D02*
X7402D01*
X2482Y15748D02*
X2500Y15730D01*
X1693Y15748D02*
X2482D01*
X1693Y16535D02*
X2559D01*
X2756Y16732D01*
X1693Y16929D02*
X1693Y16929D01*
X2323D01*
X25591Y5573D02*
Y8103D01*
X25637Y8150D01*
X25637D01*
X25795Y8307D01*
X25827D01*
X26102Y8110D02*
X26260Y8268D01*
X26102Y5585D02*
Y8110D01*
X26014Y5496D02*
X26102Y5585D01*
X25514Y5496D02*
X25591Y5573D01*
X25118Y8071D02*
X25276Y8228D01*
X25014Y5496D02*
X25118Y5600D01*
Y8071D01*
X24514Y5496D02*
X24606Y5589D01*
X20480Y4126D02*
X23775D01*
X22008Y4954D02*
Y5490D01*
X22014Y5496D01*
X20787Y2210D02*
Y3071D01*
X1693Y22283D02*
X2165D01*
X1693Y21496D02*
X2165D01*
X1693Y22677D02*
X2165D01*
X1693Y25984D02*
X1693Y25984D01*
X2205D01*
X1693Y26378D02*
X2205D01*
X1693Y25197D02*
X1693Y25197D01*
X2283D01*
X1693Y26378D02*
X1693Y26378D01*
X24092Y35982D02*
X24094Y35984D01*
X24035Y35925D02*
X24092Y35982D01*
X24094Y35984D02*
Y36339D01*
X19994Y35860D02*
X20000Y35866D01*
X18976Y35860D02*
X19994D01*
X18406Y36004D02*
Y36319D01*
X14882Y36417D02*
X18307D01*
X18406Y36319D01*
X14409Y36417D02*
Y36568D01*
Y35354D02*
Y36417D01*
X14882D01*
X12598Y36063D02*
Y36575D01*
X11542Y36857D02*
X12402Y35998D01*
X11535Y36850D02*
X11542Y36857D01*
X12402Y35164D02*
Y35998D01*
X6575Y36850D02*
X11535D01*
X12448Y35118D02*
X13150D01*
X12402Y35164D02*
X12448Y35118D01*
X12598Y36063D02*
X12795Y35866D01*
X12827Y36236D02*
X12859D01*
X12978Y36117D01*
X13169D01*
X15123Y35989D02*
X15138Y36004D01*
X17421D01*
X14363Y36614D02*
X14409Y36568D01*
X14049Y36614D02*
X14363D01*
X14055Y35000D02*
X14409Y35354D01*
X13550Y35000D02*
X13563Y35013D01*
X13550Y35000D02*
X14055D01*
X13543Y34994D02*
X13550Y35000D01*
X13563Y35013D02*
Y35615D01*
Y36117D02*
Y36588D01*
X13589Y36614D01*
X15276Y36654D02*
X20000D01*
X12795Y35866D02*
X13126D01*
X20000Y36654D02*
X20728Y35925D01*
X23051D01*
X13366Y35335D02*
Y35615D01*
X13150Y35118D02*
X13366Y35335D01*
X5177Y35453D02*
X6575Y36850D01*
X5177Y34114D02*
Y35453D01*
X13169Y35610D02*
Y35615D01*
X13150Y35591D02*
X13169Y35610D01*
X12913Y35591D02*
X13150D01*
X27638Y10591D02*
Y12953D01*
Y10591D02*
X27740Y10488D01*
X28209D01*
X28110Y14134D02*
X28826D01*
X28905Y14213D02*
X28937D01*
X28826Y14134D02*
X28905Y14213D01*
X27638Y12953D02*
X28583Y13898D01*
X28209Y4862D02*
Y5988D01*
X26841Y2792D02*
X26929Y2880D01*
X26841Y1152D02*
Y2792D01*
X28071Y2199D02*
Y2873D01*
X35325Y7182D02*
X35354Y7211D01*
X35325Y7014D02*
Y7182D01*
X19094Y1570D02*
X19101D01*
X19252Y1419D01*
X28071Y3340D02*
Y3346D01*
X27252Y32213D02*
X27377D01*
X27126Y32087D02*
X27252Y32213D01*
X27377D02*
X27441Y32277D01*
X27126Y31654D02*
Y32087D01*
X27441Y32277D02*
Y32500D01*
X27126Y31654D02*
X27520Y31260D01*
X27441Y32500D02*
X27717Y32776D01*
Y32889D01*
X30472Y31260D02*
Y32087D01*
X30282Y32277D02*
X30472Y32087D01*
X29843Y32277D02*
X30282D01*
X29646Y32481D02*
X29843Y32284D01*
Y32277D02*
Y32284D01*
X29646Y32481D02*
Y32889D01*
X31063Y24646D02*
X31457Y24252D01*
X31063Y24646D02*
Y26850D01*
X31024Y24331D02*
Y24331D01*
X30709Y24646D02*
X31024Y24331D01*
X30709Y24646D02*
Y26496D01*
X28984Y33811D02*
Y33813D01*
X28976Y33803D02*
X28984Y33811D01*
X29213Y32277D02*
Y34469D01*
X29193Y34488D02*
X29213Y34469D01*
X27520Y31260D02*
X30472D01*
X31906D01*
X32791Y30374D01*
Y30276D02*
Y30374D01*
X28986Y34478D02*
X28996Y34488D01*
X28386Y33803D02*
X28615D01*
X33885Y27165D02*
X33963Y27244D01*
X34417D01*
X34732Y27559D01*
X33858Y27165D02*
X33885D01*
X34732Y27559D02*
X34748D01*
X35138Y27185D02*
X35488D01*
X34764Y27559D02*
X35138Y27185D01*
X34748Y27559D02*
X34764D01*
X34606Y26890D02*
X34709D01*
X34213Y26496D02*
X34606Y26890D01*
X33740Y26496D02*
X34213D01*
X34709Y26890D02*
X34748Y26929D01*
X35449D02*
X35468Y26949D01*
X34748Y26929D02*
X35449D01*
X33780Y30250D02*
X33819Y30211D01*
Y27874D02*
Y30211D01*
X35468Y26949D02*
X35488Y26929D01*
X35866Y6378D02*
X35906Y6417D01*
Y7211D01*
X35354D02*
X35906D01*
X35610Y5827D02*
X35859D01*
X21319Y11488D02*
X21320Y11489D01*
X21732Y9488D02*
X23661Y11417D01*
X21319Y5988D02*
X21348Y6017D01*
X21686D01*
X22008Y6339D01*
X21319Y9488D02*
X21732D01*
X21319Y9988D02*
X21760D01*
X23110Y11339D01*
X23583Y8189D02*
X24014Y7758D01*
Y5496D02*
Y7758D01*
X23031Y8150D02*
X23514Y7667D01*
Y5496D02*
Y7667D01*
X19094Y2210D02*
Y3077D01*
X19921Y2210D02*
Y3077D01*
X19921Y2210D02*
X19921Y2210D01*
X21339Y4954D02*
X22008D01*
X21339D02*
X21398Y5013D01*
X35256Y6945D02*
X35325Y7014D01*
X35256Y6713D02*
Y6945D01*
X35374Y6063D02*
X35610Y5827D01*
X35315Y6063D02*
X35374D01*
X35866Y5827D02*
Y6378D01*
X12456Y7894D02*
X13602D01*
X13818Y7677D02*
X13825D01*
X13602Y7894D02*
X13818Y7677D01*
D57*
X30079Y9921D02*
Y9922D01*
X30315Y10158D01*
Y14764D01*
X29370Y15709D02*
X30315Y14764D01*
X29173Y9488D02*
X29843Y10157D01*
Y14094D01*
X28760Y15177D02*
X29843Y14094D01*
X27598Y15709D02*
X29370D01*
X27283Y16024D02*
X27598Y15709D01*
X27333Y15177D02*
X28760D01*
X29173Y9488D02*
X29173D01*
X24882Y21354D02*
X26024D01*
X23740D02*
X24882D01*
X22598D02*
X23740D01*
X24882Y18386D02*
X26024D01*
X23740D02*
X24882D01*
X22598D02*
X23740D01*
X24882Y19386D02*
X26024D01*
X23740D02*
X24882D01*
X22598D02*
X23740D01*
X28264Y8543D02*
X28983D01*
X28209Y8488D02*
X28264Y8543D01*
X28974Y7990D02*
X28976Y7992D01*
X28209Y7988D02*
X28211Y7990D01*
X28974D01*
X5118Y33327D02*
X5157Y33366D01*
X5177D01*
X5118Y33110D02*
Y33327D01*
X4903Y32895D02*
X5118Y33110D01*
X4252Y32895D02*
X4903D01*
X2953Y31024D02*
Y31929D01*
X4122Y30699D02*
X4171Y30649D01*
X2953Y31024D02*
X3278Y30699D01*
X4171Y30477D02*
Y30649D01*
X3278Y30699D02*
X4122D01*
X31863Y29397D02*
Y30249D01*
X31890Y30276D01*
D58*
X21811Y32620D02*
Y33346D01*
X23031Y33780D02*
X23228Y33976D01*
X22459Y30845D02*
X23031Y31417D01*
Y33780D01*
X22459Y30283D02*
Y30845D01*
X21959Y30283D02*
Y31112D01*
X21811Y31260D02*
X21959Y31112D01*
X20630Y30669D02*
Y34055D01*
X21017Y30283D02*
X21459D01*
X20630Y30669D02*
X21017Y30283D01*
X16299Y32806D02*
Y33533D01*
X17598Y33386D02*
Y34252D01*
X17283Y33071D02*
X17598Y33386D01*
X17283Y31299D02*
Y33071D01*
X16844Y30860D02*
X17283Y31299D01*
X16844Y30280D02*
Y30860D01*
X14882Y33150D02*
Y34213D01*
Y33150D02*
X15315Y32717D01*
Y30419D02*
X15453Y30280D01*
X15844D01*
X15315Y30419D02*
Y32717D01*
X16344Y30280D02*
Y31401D01*
X16299Y31446D02*
X16344Y31401D01*
X10433Y32913D02*
Y33651D01*
X9016Y34094D02*
X9134Y33976D01*
Y33150D02*
Y33976D01*
Y33150D02*
X9449Y32835D01*
X9939Y30398D02*
Y30571D01*
X9449Y31061D02*
X9939Y30571D01*
X9449Y31061D02*
Y32835D01*
X10949Y30909D02*
X11654Y31614D01*
Y34094D01*
X10949Y30408D02*
Y30909D01*
X10939Y30398D02*
X10949Y30408D01*
X10433Y31553D02*
X10439Y31547D01*
Y30398D02*
Y31547D01*
X4252Y32895D02*
Y33651D01*
X5275Y31693D02*
X5472Y31890D01*
X5171Y30998D02*
X5275Y31102D01*
Y31693D01*
X5171Y30477D02*
Y30998D01*
X4528Y31142D02*
Y31354D01*
X4252Y31535D02*
X4346D01*
X4528Y31354D01*
Y31142D02*
X4671Y30998D01*
Y30477D02*
Y30998D01*
D59*
X34984Y23362D02*
D03*
X35984D02*
D03*
X34984Y22362D02*
D03*
X35984D02*
D03*
X34984Y21362D02*
D03*
X35984D02*
D03*
D60*
X22598Y19386D02*
D03*
Y17402D02*
D03*
Y18386D02*
D03*
Y20354D02*
D03*
X23740Y19386D02*
D03*
Y17402D02*
D03*
Y18386D02*
D03*
Y20354D02*
D03*
X24882Y19386D02*
D03*
Y17402D02*
D03*
Y18386D02*
D03*
Y20354D02*
D03*
X26024Y19386D02*
D03*
Y17402D02*
D03*
Y18386D02*
D03*
Y20354D02*
D03*
X36378Y16732D02*
D03*
Y15764D02*
D03*
Y17764D02*
D03*
X34488Y16728D02*
D03*
Y15760D02*
D03*
Y17760D02*
D03*
X36378Y11520D02*
D03*
Y10551D02*
D03*
Y12551D02*
D03*
X34449Y11520D02*
D03*
Y10551D02*
D03*
Y12551D02*
D03*
D61*
X22598Y21354D02*
D03*
X23740D02*
D03*
X24882D02*
D03*
X26024D02*
D03*
D62*
X13366Y32441D02*
D03*
X18957Y32362D02*
D03*
X7559Y32323D02*
D03*
X24862Y32283D02*
D03*
X5709Y8346D02*
D03*
D63*
X13366Y31457D02*
D03*
X18957Y31378D02*
D03*
X7559Y31339D02*
D03*
X24862Y31299D02*
D03*
D64*
X26488Y36555D02*
D03*
X30913D02*
D03*
D65*
X26488Y34980D02*
D03*
X30913D02*
D03*
D66*
X10669Y25988D02*
D03*
X10630Y16892D02*
D03*
D67*
X10669Y25488D02*
D03*
Y24988D02*
D03*
Y24488D02*
D03*
X10630Y16392D02*
D03*
Y15892D02*
D03*
Y15392D02*
D03*
D68*
X36378Y14764D02*
D03*
X34488Y14760D02*
D03*
X36378Y9551D02*
D03*
X34449D02*
D03*
D69*
X35433Y1969D02*
D03*
X1969D02*
D03*
Y35433D02*
D03*
X35433D02*
D03*
D70*
X6693Y8346D02*
D03*
D71*
X32008Y5197D02*
D03*
X31811Y4252D02*
D03*
X33268Y5039D02*
D03*
X13504Y8780D02*
D03*
X13701Y8583D02*
D03*
Y8780D02*
D03*
X13504Y8583D02*
D03*
X15748Y8150D02*
D03*
Y7913D02*
D03*
Y8386D02*
D03*
X7362Y18386D02*
D03*
X4671Y28342D02*
D03*
X5171D02*
D03*
X3780Y7126D02*
D03*
X9016Y9134D02*
D03*
X9213D02*
D03*
X9409D02*
D03*
Y35197D02*
D03*
X16344Y28145D02*
D03*
X16844D02*
D03*
X5671Y28342D02*
D03*
X10939Y28263D02*
D03*
X10439D02*
D03*
X22459Y28147D02*
D03*
X21959D02*
D03*
X15748Y6732D02*
D03*
Y6969D02*
D03*
Y7205D02*
D03*
Y7441D02*
D03*
Y7677D02*
D03*
X15591Y8583D02*
D03*
X15433Y8740D02*
D03*
X15276Y8898D02*
D03*
X15118Y9094D02*
D03*
X14961Y9252D02*
D03*
X14803Y9409D02*
D03*
X14646Y9567D02*
D03*
X11378Y9134D02*
D03*
X9606D02*
D03*
X9803D02*
D03*
X10000D02*
D03*
X10197D02*
D03*
X10394D02*
D03*
X10591D02*
D03*
X10787D02*
D03*
X10984D02*
D03*
X11181D02*
D03*
X14803Y4291D02*
D03*
X13898Y8780D02*
D03*
Y8583D02*
D03*
X11811Y9252D02*
D03*
X12008D02*
D03*
X11811Y8661D02*
D03*
Y8858D02*
D03*
Y9055D02*
D03*
X12008D02*
D03*
Y8858D02*
D03*
Y8661D02*
D03*
X14803Y4488D02*
D03*
Y4685D02*
D03*
Y4882D02*
D03*
Y5079D02*
D03*
Y5276D02*
D03*
Y5472D02*
D03*
Y5669D02*
D03*
Y5866D02*
D03*
Y6063D02*
D03*
Y6260D02*
D03*
Y6457D02*
D03*
X14606D02*
D03*
Y6260D02*
D03*
Y6063D02*
D03*
Y5866D02*
D03*
Y5669D02*
D03*
Y5472D02*
D03*
Y5276D02*
D03*
Y5079D02*
D03*
Y4882D02*
D03*
Y4685D02*
D03*
Y4488D02*
D03*
Y4291D02*
D03*
X10984Y6811D02*
D03*
Y6614D02*
D03*
X10787Y5039D02*
D03*
Y5236D02*
D03*
Y5433D02*
D03*
Y5630D02*
D03*
Y5827D02*
D03*
Y6024D02*
D03*
Y6220D02*
D03*
X10984Y6417D02*
D03*
Y6220D02*
D03*
Y6024D02*
D03*
Y5827D02*
D03*
Y5630D02*
D03*
Y5433D02*
D03*
Y5236D02*
D03*
Y5039D02*
D03*
Y4843D02*
D03*
X10787D02*
D03*
X33819Y27874D02*
D03*
X35591Y6772D02*
D03*
X32835Y32126D02*
D03*
X24764Y10039D02*
D03*
X24173Y9409D02*
D03*
X24724Y8858D02*
D03*
X24173D02*
D03*
X23622Y9449D02*
D03*
Y10000D02*
D03*
X12953Y9252D02*
D03*
D72*
X28583Y34134D02*
D03*
X31220Y4803D02*
D03*
X30709Y3937D02*
D03*
X32756Y3583D02*
D03*
X30433Y5512D02*
D03*
X33307Y6220D02*
D03*
X31339Y5669D02*
D03*
X30827Y5906D02*
D03*
X29724Y4094D02*
D03*
X30551Y2047D02*
D03*
X27244Y7835D02*
D03*
X27126Y7087D02*
D03*
X27520Y7126D02*
D03*
X29803Y4567D02*
D03*
X21392Y6933D02*
D03*
X28701Y11968D02*
D03*
X31969Y11929D02*
D03*
Y15039D02*
D03*
X28307Y11496D02*
D03*
X28701Y9961D02*
D03*
X35438Y14365D02*
D03*
X8307Y669D02*
D03*
X7942Y4316D02*
D03*
X7835Y7992D02*
D03*
X23017Y5372D02*
D03*
X29094Y4449D02*
D03*
X31654Y15315D02*
D03*
X31220Y15748D02*
D03*
X28701Y10984D02*
D03*
X30866Y11063D02*
D03*
X29213Y7441D02*
D03*
X30079Y9921D02*
D03*
X28209Y7988D02*
D03*
X27283Y16024D02*
D03*
X27835Y16339D02*
D03*
X29173Y9488D02*
D03*
X28110Y8465D02*
D03*
X27333Y15177D02*
D03*
X27323Y9488D02*
D03*
X26082Y11369D02*
D03*
X26575Y8701D02*
D03*
X19173Y9134D02*
D03*
X21457Y5512D02*
D03*
X19803Y5551D02*
D03*
X19055Y9488D02*
D03*
Y11024D02*
D03*
X19173Y6614D02*
D03*
X17783Y11260D02*
D03*
X18740Y7441D02*
D03*
X22514Y5496D02*
D03*
X17717Y9173D02*
D03*
X16929Y11181D02*
D03*
X17835Y16024D02*
D03*
X19961Y15433D02*
D03*
X23661Y12126D02*
D03*
X20103Y8689D02*
D03*
X17638Y8858D02*
D03*
X16575Y11496D02*
D03*
X17598Y16339D02*
D03*
X25591Y11496D02*
D03*
X23112Y13625D02*
D03*
X22936Y13394D02*
D03*
X19921Y15945D02*
D03*
X21211Y8456D02*
D03*
X16890Y8622D02*
D03*
X16496Y8661D02*
D03*
X16146Y12012D02*
D03*
X17480Y18307D02*
D03*
X21181Y8976D02*
D03*
X10945Y12362D02*
D03*
X29951Y16393D02*
D03*
X29094Y13898D02*
D03*
X29961Y16811D02*
D03*
X21102Y8031D02*
D03*
X15866Y12362D02*
D03*
X17520Y18701D02*
D03*
X21972Y12878D02*
D03*
X23110Y12126D02*
D03*
X22087Y12441D02*
D03*
X19449Y19016D02*
D03*
X19764Y18622D02*
D03*
X20787Y1570D02*
D03*
X21174Y10988D02*
D03*
X17520Y11063D02*
D03*
X21142Y10472D02*
D03*
X15200Y27657D02*
D03*
X15229Y29910D02*
D03*
X14094Y35551D02*
D03*
X14843Y27677D02*
D03*
Y29921D02*
D03*
X13819Y35276D02*
D03*
X11693Y23110D02*
D03*
X8110Y23898D02*
D03*
X6457Y23307D02*
D03*
X8110Y23465D02*
D03*
X11614Y22756D02*
D03*
X10079Y22402D02*
D03*
X11732Y18465D02*
D03*
X8307Y18110D02*
D03*
X6850Y17835D02*
D03*
X8178Y20523D02*
D03*
X30197Y28189D02*
D03*
X24528Y28150D02*
D03*
X8189Y19685D02*
D03*
X8150Y20157D02*
D03*
X6850Y18976D02*
D03*
X2500Y15730D02*
D03*
X2756Y16732D02*
D03*
X2323Y16929D02*
D03*
X25827Y8307D02*
D03*
X26260Y8268D02*
D03*
X6457Y22008D02*
D03*
X2165Y22283D02*
D03*
Y21496D02*
D03*
Y22677D02*
D03*
X2205Y26378D02*
D03*
X6220Y27283D02*
D03*
X2205Y25984D02*
D03*
X2283Y25197D02*
D03*
X24094Y36339D02*
D03*
X20000Y35866D02*
D03*
X14882Y36417D02*
D03*
X12827Y36236D02*
D03*
X8465Y35551D02*
D03*
X6142Y34685D02*
D03*
X15123Y35989D02*
D03*
X12913Y35591D02*
D03*
X11437Y28110D02*
D03*
X11994Y28858D02*
D03*
X17827Y28661D02*
D03*
X23406Y28504D02*
D03*
X28937Y14213D02*
D03*
X28543Y14409D02*
D03*
X21339Y4494D02*
D03*
X22908Y3227D02*
D03*
X28071Y3346D02*
D03*
X20236Y11136D02*
D03*
X31457Y24252D02*
D03*
X31024Y24331D02*
D03*
X31063Y26850D02*
D03*
X30709Y26496D02*
D03*
X28984Y33813D02*
D03*
X28701Y31850D02*
D03*
X33858Y27165D02*
D03*
X33740Y26496D02*
D03*
X28268Y14646D02*
D03*
X21319Y6488D02*
D03*
X22362Y6614D02*
D03*
X23583Y8189D02*
D03*
X23031Y8150D02*
D03*
X19921Y1570D02*
D03*
X19094D02*
D03*
D73*
X12165Y1378D02*
D03*
%TF.MD5,07d8ec96ebc36d35b30dd3ba318afb63*%
M02*
