%TF.GenerationSoftware,Altium Limited,Altium Designer,21.7.2 (23)*%
G04 Layer_Color=16711935*
%FSLAX24Y24*%
%MOIN*%
%TF.SameCoordinates,DA776ED6-ADCF-4D54-B547-66972558000F*%
%TF.FilePolarity,Positive*%
%TF.FileFunction,Other,Mechanical_13*%
%TF.Part,Single*%
G01*
G75*
%TA.AperFunction,NonConductor*%
%ADD77C,0.0079*%
%ADD94C,0.0039*%
D77*
X33732Y19331D02*
X37236D01*
Y25394D01*
X33732D02*
X37236D01*
X33732Y19331D02*
Y25394D01*
X13071Y35571D02*
X13858D01*
X13071D02*
Y36161D01*
X13858D01*
Y35571D02*
Y36161D01*
X34469Y5669D02*
X35453D01*
Y6850D01*
X34469D02*
X35453D01*
X34469Y5669D02*
Y6850D01*
X34213Y26339D02*
X34685D01*
Y26024D02*
Y26339D01*
X34213Y26024D02*
X34685D01*
X34213D02*
Y26339D01*
X35413Y25709D02*
Y28661D01*
X37382D01*
Y25709D02*
Y28661D01*
X35413Y25709D02*
X37382D01*
X24838Y1062D02*
Y2715D01*
X23578Y1062D02*
X24838D01*
X23578D02*
Y2715D01*
X24838D01*
X25787Y1142D02*
Y2795D01*
X27047D01*
Y1142D02*
Y2795D01*
X25787Y1142D02*
X27047D01*
X26575Y33661D02*
Y33976D01*
Y33661D02*
X27047D01*
Y33976D01*
X26575D02*
X27047D01*
X30709Y33661D02*
Y33976D01*
X30236D02*
X30709D01*
X30236Y33661D02*
Y33976D01*
Y33661D02*
X30709D01*
X34252Y26772D02*
Y27087D01*
Y26772D02*
X34724D01*
Y27087D01*
X34252D02*
X34724D01*
X34252Y27402D02*
Y27717D01*
Y27402D02*
X34724D01*
Y27717D01*
X34252D02*
X34724D01*
X28819Y33307D02*
X29134D01*
Y33780D01*
X28819D02*
X29134D01*
X28819Y33307D02*
Y33780D01*
X28228Y33307D02*
X28543D01*
Y33780D01*
X28228D02*
X28543D01*
X28228Y33307D02*
Y33780D01*
D94*
X14656Y31949D02*
G03*
X14656Y31949I-1289J0D01*
G01*
X20246Y31870D02*
G03*
X20246Y31870I-1289J0D01*
G01*
X8848Y31831D02*
G03*
X8848Y31831I-1289J0D01*
G01*
X26152Y31791D02*
G03*
X26152Y31791I-1289J0D01*
G01*
X7490Y8346D02*
G03*
X7490Y8346I-1289J0D01*
G01*
X23228Y35748D02*
X23602Y36122D01*
X23228Y34980D02*
Y36122D01*
Y34980D02*
X23858D01*
Y36122D01*
X23228D02*
X23858D01*
X17598Y35827D02*
X17972Y36201D01*
X17598Y35059D02*
Y36201D01*
Y35059D02*
X18228D01*
Y36201D01*
X17598D02*
X18228D01*
X8839Y35020D02*
X9213Y35394D01*
Y35020D02*
Y36161D01*
X8583D02*
X9213D01*
X8583Y35020D02*
Y36161D01*
Y35020D02*
X9213D01*
X21220Y5398D02*
Y15437D01*
Y5398D02*
X28307D01*
Y15437D01*
X21220D02*
X28307D01*
X11319Y18406D02*
X12854D01*
Y22303D01*
X11319D02*
X12854D01*
X11319Y18406D02*
Y22303D01*
Y18906D02*
X11819Y18406D01*
X9626Y19114D02*
X10138D01*
X9626Y17972D02*
Y19114D01*
Y17972D02*
X10138D01*
Y19114D01*
X9764D02*
X10138Y18740D01*
X5768Y18681D02*
X7303D01*
Y22579D01*
X5768D02*
X7303D01*
X5768Y18681D02*
Y22579D01*
Y19181D02*
X6268Y18681D01*
X3957Y15059D02*
X4469D01*
X3957Y13917D02*
Y15059D01*
Y13917D02*
X4469D01*
Y15059D01*
X4094D02*
X4469Y14685D01*
X3602Y19665D02*
X4114D01*
X3602Y18524D02*
Y19665D01*
Y18524D02*
X4114D01*
Y19665D01*
X3740D02*
X4114Y19291D01*
X5768Y14193D02*
X7303D01*
Y18091D01*
X5768D02*
X7303D01*
X5768Y14193D02*
Y18091D01*
Y14693D02*
X6268Y14193D01*
X4035Y23839D02*
X4547D01*
X4035Y22697D02*
Y23839D01*
Y22697D02*
X4547D01*
Y23839D01*
X4173D02*
X4547Y23465D01*
X5728Y22776D02*
X7264D01*
Y26673D01*
X5728D02*
X7264D01*
X5728Y22776D02*
Y26673D01*
Y23276D02*
X6228Y22776D01*
X15630Y28945D02*
X16130Y28445D01*
X15630D02*
X17559D01*
Y29980D01*
X15630D02*
X17559D01*
X15630Y28445D02*
Y29980D01*
X3957Y29142D02*
X4457Y28642D01*
X3957D02*
X5886D01*
Y30177D01*
X3957D02*
X5886D01*
X3957Y28642D02*
Y30177D01*
X9724Y29063D02*
X10224Y28563D01*
X9724D02*
X11654D01*
Y30098D01*
X9724D02*
X11654D01*
X9724Y28563D02*
Y30098D01*
X30461Y34823D02*
Y37382D01*
X26941D02*
X30461D01*
X26941Y34823D02*
Y37382D01*
Y34823D02*
X30461D01*
X21244Y28947D02*
X21744Y28447D01*
X21244D02*
X23174D01*
Y29983D01*
X21244D02*
X23174D01*
X21244Y28447D02*
Y29983D01*
X30630Y2008D02*
Y3189D01*
X31811D01*
Y2008D02*
Y3189D01*
X30630Y2008D02*
X31811D01*
X30630Y2303D02*
X30925Y2008D01*
X5354Y33937D02*
X5728Y34311D01*
X5354Y33169D02*
Y34311D01*
Y33169D02*
X5984D01*
Y34311D01*
X5354D02*
X5984D01*
X31516Y5827D02*
X32500D01*
X31516Y4636D02*
Y5827D01*
X32500Y4636D02*
Y5827D01*
X31516Y4636D02*
X32500D01*
X11890Y8209D02*
X12087Y8406D01*
X11890Y7579D02*
Y8406D01*
Y7579D02*
X12362D01*
Y8406D01*
X11890D02*
X12362D01*
X30609Y30885D02*
Y32265D01*
X33170D01*
Y30885D02*
Y32265D01*
X30609Y30885D02*
X33170D01*
X30609Y31787D02*
X31511Y30885D01*
X27461Y33012D02*
Y33681D01*
X27972D01*
Y33012D02*
Y33681D01*
X27461Y33012D02*
X27972D01*
X27461Y33224D02*
X27672Y33012D01*
X25231Y471D02*
Y3503D01*
X23184Y471D02*
X25231D01*
X23184D02*
Y3503D01*
X25231D01*
X25394Y354D02*
Y3386D01*
X27441D01*
Y354D02*
Y3386D01*
X25394Y354D02*
X27441D01*
X33154Y28681D02*
X33366Y28469D01*
X32854Y28681D02*
X33366D01*
X32854Y28012D02*
Y28681D01*
Y28012D02*
X33366D01*
Y28681D01*
X29390Y33224D02*
X29602Y33012D01*
X29390D02*
X29902D01*
Y33681D01*
X29390D02*
X29902D01*
X29390Y33012D02*
Y33681D01*
X12261Y10452D02*
Y11832D01*
X9700Y10452D02*
X12261D01*
X9700D02*
Y11832D01*
X12261D01*
X11359D02*
X12261Y10930D01*
%TF.MD5,b4925838c8201f7972eba724a1220a6a*%
M02*
