%TF.GenerationSoftware,Altium Limited,Altium Designer,21.7.2 (23)*%
G04 Layer_Color=2752767*
%FSLAX24Y24*%
%MOIN*%
%TF.SameCoordinates,DA776ED6-ADCF-4D54-B547-66972558000F*%
%TF.FilePolarity,Positive*%
%TF.FileFunction,Drawing*%
%TF.Part,Single*%
G01*
G75*
%TA.AperFunction,NonConductor*%
%ADD76C,0.0050*%
%ADD156C,0.0067*%
D76*
X34784Y23162D02*
Y23562D01*
X35184D01*
Y23162D01*
X34784D01*
X35784D02*
Y23562D01*
X36184D01*
Y23162D01*
X35784D01*
X34784Y22162D02*
Y22562D01*
X35184D01*
Y22162D01*
X34784D01*
X35784D02*
Y22562D01*
X36184D01*
Y22162D01*
X35784D01*
X34784Y21162D02*
Y21562D01*
X35184D01*
Y21162D01*
X34784D01*
X35784D02*
Y21562D01*
X36184D01*
Y21162D01*
X35784D01*
X13366Y32241D02*
X13166Y32641D01*
X13566D01*
X13366Y32241D01*
Y31257D02*
X13166Y31657D01*
X13566D01*
X13366Y31257D01*
X18957Y32162D02*
X18757Y32562D01*
X19157D01*
X18957Y32162D01*
Y31178D02*
X18757Y31578D01*
X19157D01*
X18957Y31178D01*
X7559Y32123D02*
X7359Y32523D01*
X7759D01*
X7559Y32123D01*
Y31139D02*
X7359Y31539D01*
X7759D01*
X7559Y31139D01*
X26488Y36355D02*
X26588Y36455D01*
X26688D01*
X26588Y36555D01*
X26688Y36655D01*
X26588D01*
X26488Y36755D01*
X26388Y36655D01*
X26288D01*
X26388Y36555D01*
X26288Y36455D01*
X26388D01*
X26488Y36355D01*
X30913D02*
X31013Y36455D01*
X31113D01*
X31013Y36555D01*
X31113Y36655D01*
X31013D01*
X30913Y36755D01*
X30813Y36655D01*
X30713D01*
X30813Y36555D01*
X30713Y36455D01*
X30813D01*
X30913Y36355D01*
X26288Y34780D02*
X26388Y34980D01*
X26288Y35180D01*
X26488Y35080D01*
X26688Y35180D01*
X26588Y34980D01*
X26688Y34780D01*
X26488Y34880D01*
X26288Y34780D01*
X30713D02*
X30813Y34980D01*
X30713Y35180D01*
X30913Y35080D01*
X31113Y35180D01*
X31013Y34980D01*
X31113Y34780D01*
X30913Y34880D01*
X30713Y34780D01*
X24862Y32083D02*
X24662Y32483D01*
X25062D01*
X24862Y32083D01*
Y31099D02*
X24662Y31499D01*
X25062D01*
X24862Y31099D01*
X10569Y25888D02*
Y25788D01*
X10769D01*
Y25888D01*
X10869D01*
Y26088D01*
X10769D01*
Y26188D01*
X10569D01*
Y26088D01*
X10469D01*
Y25888D01*
X10569D01*
Y25388D02*
Y25288D01*
X10769D01*
Y25388D01*
X10869D01*
Y25588D01*
X10769D01*
Y25688D01*
X10569D01*
Y25588D01*
X10469D01*
Y25388D01*
X10569D01*
Y24888D02*
Y24788D01*
X10769D01*
Y24888D01*
X10869D01*
Y25088D01*
X10769D01*
Y25188D01*
X10569D01*
Y25088D01*
X10469D01*
Y24888D01*
X10569D01*
Y24388D02*
Y24288D01*
X10769D01*
Y24388D01*
X10869D01*
Y24588D01*
X10769D01*
Y24688D01*
X10569D01*
Y24588D01*
X10469D01*
Y24388D01*
X10569D01*
X10530Y16792D02*
Y16692D01*
X10730D01*
Y16792D01*
X10830D01*
Y16992D01*
X10730D01*
Y17092D01*
X10530D01*
Y16992D01*
X10430D01*
Y16792D01*
X10530D01*
Y16292D02*
Y16192D01*
X10730D01*
Y16292D01*
X10830D01*
Y16492D01*
X10730D01*
Y16592D01*
X10530D01*
Y16492D01*
X10430D01*
Y16292D01*
X10530D01*
Y15792D02*
Y15692D01*
X10730D01*
Y15792D01*
X10830D01*
Y15992D01*
X10730D01*
Y16092D01*
X10530D01*
Y15992D01*
X10430D01*
Y15792D01*
X10530D01*
Y15292D02*
Y15192D01*
X10730D01*
Y15292D01*
X10830D01*
Y15492D01*
X10730D01*
Y15592D01*
X10530D01*
Y15492D01*
X10430D01*
Y15292D01*
X10530D01*
X35233Y1769D02*
X35333D01*
X35433Y1868D01*
X35533Y1769D01*
X35633D01*
Y1868D01*
X35533Y1969D01*
X35633Y2069D01*
Y2168D01*
X35533D01*
X35433Y2069D01*
X35333Y2168D01*
X35233D01*
Y2069D01*
X35333Y1969D01*
X35233Y1868D01*
Y1769D01*
X1769D02*
X1868D01*
X1969Y1868D01*
X2069Y1769D01*
X2168D01*
Y1868D01*
X2069Y1969D01*
X2168Y2069D01*
Y2168D01*
X2069D01*
X1969Y2069D01*
X1868Y2168D01*
X1769D01*
Y2069D01*
X1868Y1969D01*
X1769Y1868D01*
Y1769D01*
Y35233D02*
X1868D01*
X1969Y35333D01*
X2069Y35233D01*
X2168D01*
Y35333D01*
X2069Y35433D01*
X2168Y35533D01*
Y35633D01*
X2069D01*
X1969Y35533D01*
X1868Y35633D01*
X1769D01*
Y35533D01*
X1868Y35433D01*
X1769Y35333D01*
Y35233D01*
X35233D02*
X35333D01*
X35433Y35333D01*
X35533Y35233D01*
X35633D01*
Y35333D01*
X35533Y35433D01*
X35633Y35533D01*
Y35633D01*
X35533D01*
X35433Y35533D01*
X35333Y35633D01*
X35233D01*
Y35533D01*
X35333Y35433D01*
X35233Y35333D01*
Y35233D01*
X6693Y8146D02*
X6493Y8546D01*
X6893D01*
X6693Y8146D01*
X5709D02*
X5509Y8546D01*
X5909D01*
X5709Y8146D01*
X31808Y5197D02*
X32008Y5397D01*
X32208Y5197D01*
X32008Y4997D01*
X31808Y5197D01*
X31611Y4252D02*
X31811Y4452D01*
X32011Y4252D01*
X31811Y4052D01*
X31611Y4252D01*
X33068Y5039D02*
X33268Y5239D01*
X33468Y5039D01*
X33268Y4839D01*
X33068Y5039D01*
X28383Y33934D02*
Y34334D01*
X28783D01*
Y33934D01*
X28383D01*
X28463Y34014D02*
Y34254D01*
X28703D01*
Y34014D01*
X28463D01*
X31020Y4603D02*
Y5003D01*
X31420D01*
Y4603D01*
X31020D01*
X31100Y4683D02*
Y4923D01*
X31340D01*
Y4683D01*
X31100D01*
X30509Y3737D02*
Y4137D01*
X30909D01*
Y3737D01*
X30509D01*
X30589Y3817D02*
Y4057D01*
X30829D01*
Y3817D01*
X30589D01*
X32556Y3383D02*
Y3783D01*
X32956D01*
Y3383D01*
X32556D01*
X32636Y3463D02*
Y3703D01*
X32876D01*
Y3463D01*
X32636D01*
X30233Y5312D02*
Y5712D01*
X30633D01*
Y5312D01*
X30233D01*
X30313Y5392D02*
Y5632D01*
X30553D01*
Y5392D01*
X30313D01*
X33107Y6020D02*
Y6420D01*
X33507D01*
Y6020D01*
X33107D01*
X33187Y6100D02*
Y6340D01*
X33427D01*
Y6100D01*
X33187D01*
X31139Y5469D02*
Y5869D01*
X31539D01*
Y5469D01*
X31139D01*
X31219Y5549D02*
Y5789D01*
X31459D01*
Y5549D01*
X31219D01*
X30627Y5706D02*
Y6106D01*
X31027D01*
Y5706D01*
X30627D01*
X30707Y5786D02*
Y6026D01*
X30947D01*
Y5786D01*
X30707D01*
X29524Y3894D02*
Y4294D01*
X29924D01*
Y3894D01*
X29524D01*
X29604Y3974D02*
Y4214D01*
X29844D01*
Y3974D01*
X29604D01*
X30351Y1847D02*
Y2247D01*
X30751D01*
Y1847D01*
X30351D01*
X30431Y1927D02*
Y2167D01*
X30671D01*
Y1927D01*
X30431D01*
X27044Y7635D02*
Y8035D01*
X27444D01*
Y7635D01*
X27044D01*
X27124Y7715D02*
Y7955D01*
X27364D01*
Y7715D01*
X27124D01*
X26926Y6887D02*
Y7287D01*
X27326D01*
Y6887D01*
X26926D01*
X27006Y6967D02*
Y7207D01*
X27246D01*
Y6967D01*
X27006D01*
X27320Y6926D02*
Y7326D01*
X27720D01*
Y6926D01*
X27320D01*
X27400Y7006D02*
Y7246D01*
X27640D01*
Y7006D01*
X27400D01*
X29603Y4367D02*
Y4767D01*
X30003D01*
Y4367D01*
X29603D01*
X29683Y4447D02*
Y4687D01*
X29923D01*
Y4447D01*
X29683D01*
X21192Y6733D02*
Y7133D01*
X21592D01*
Y6733D01*
X21192D01*
X21272Y6813D02*
Y7053D01*
X21512D01*
Y6813D01*
X21272D01*
X28501Y11768D02*
Y12169D01*
X28901D01*
Y11768D01*
X28501D01*
X28581Y11848D02*
Y12089D01*
X28821D01*
Y11848D01*
X28581D01*
X31769Y11729D02*
Y12129D01*
X32169D01*
Y11729D01*
X31769D01*
X31848Y11809D02*
Y12049D01*
X32088D01*
Y11809D01*
X31848D01*
X31769Y14839D02*
Y15239D01*
X32169D01*
Y14839D01*
X31769D01*
X31848Y14919D02*
Y15159D01*
X32088D01*
Y14919D01*
X31848D01*
X28107Y11296D02*
Y11696D01*
X28507D01*
Y11296D01*
X28107D01*
X28187Y11376D02*
Y11616D01*
X28427D01*
Y11376D01*
X28187D01*
X28501Y9761D02*
Y10161D01*
X28901D01*
Y9761D01*
X28501D01*
X28581Y9841D02*
Y10081D01*
X28821D01*
Y9841D01*
X28581D01*
X35238Y14165D02*
Y14565D01*
X35638D01*
Y14165D01*
X35238D01*
X35318Y14245D02*
Y14485D01*
X35558D01*
Y14245D01*
X35318D01*
X8107Y469D02*
Y869D01*
X8507D01*
Y469D01*
X8107D01*
X8187Y549D02*
Y789D01*
X8427D01*
Y549D01*
X8187D01*
X7742Y4116D02*
Y4516D01*
X8142D01*
Y4116D01*
X7742D01*
X7822Y4196D02*
Y4436D01*
X8062D01*
Y4196D01*
X7822D01*
X7635Y7792D02*
Y8192D01*
X8035D01*
Y7792D01*
X7635D01*
X7715Y7872D02*
Y8112D01*
X7955D01*
Y7872D01*
X7715D01*
X22817Y5172D02*
Y5572D01*
X23217D01*
Y5172D01*
X22817D01*
X22897Y5252D02*
Y5492D01*
X23137D01*
Y5252D01*
X22897D01*
X28894Y4249D02*
Y4649D01*
X29294D01*
Y4249D01*
X28894D01*
X28974Y4329D02*
Y4569D01*
X29214D01*
Y4329D01*
X28974D01*
X31454Y15115D02*
Y15515D01*
X31854D01*
Y15115D01*
X31454D01*
X31534Y15195D02*
Y15435D01*
X31774D01*
Y15195D01*
X31534D01*
X31020Y15548D02*
Y15948D01*
X31420D01*
Y15548D01*
X31020D01*
X31100Y15628D02*
Y15868D01*
X31340D01*
Y15628D01*
X31100D01*
X28501Y10784D02*
Y11184D01*
X28901D01*
Y10784D01*
X28501D01*
X28581Y10864D02*
Y11104D01*
X28821D01*
Y10864D01*
X28581D01*
X30666Y10863D02*
Y11263D01*
X31066D01*
Y10863D01*
X30666D01*
X30746Y10943D02*
Y11183D01*
X30986D01*
Y10943D01*
X30746D01*
X29013Y7241D02*
Y7641D01*
X29413D01*
Y7241D01*
X29013D01*
X29093Y7321D02*
Y7561D01*
X29333D01*
Y7321D01*
X29093D01*
X29879Y9721D02*
Y10121D01*
X30279D01*
Y9721D01*
X29879D01*
X29959Y9801D02*
Y10041D01*
X30199D01*
Y9801D01*
X29959D01*
X28009Y7788D02*
Y8188D01*
X28409D01*
Y7788D01*
X28009D01*
X28089Y7868D02*
Y8108D01*
X28329D01*
Y7868D01*
X28089D01*
X27083Y15824D02*
Y16224D01*
X27483D01*
Y15824D01*
X27083D01*
X27163Y15904D02*
Y16144D01*
X27403D01*
Y15904D01*
X27163D01*
X27635Y16139D02*
Y16539D01*
X28035D01*
Y16139D01*
X27635D01*
X27715Y16219D02*
Y16459D01*
X27955D01*
Y16219D01*
X27715D01*
X28973Y9288D02*
Y9688D01*
X29373D01*
Y9288D01*
X28973D01*
X29053Y9368D02*
Y9608D01*
X29293D01*
Y9368D01*
X29053D01*
X27910Y8265D02*
Y8665D01*
X28310D01*
Y8265D01*
X27910D01*
X27990Y8345D02*
Y8585D01*
X28230D01*
Y8345D01*
X27990D01*
X27133Y14977D02*
Y15377D01*
X27533D01*
Y14977D01*
X27133D01*
X27213Y15057D02*
Y15297D01*
X27453D01*
Y15057D01*
X27213D01*
X27123Y9288D02*
Y9688D01*
X27523D01*
Y9288D01*
X27123D01*
X27203Y9368D02*
Y9608D01*
X27443D01*
Y9368D01*
X27203D01*
X25882Y11169D02*
Y11569D01*
X26282D01*
Y11169D01*
X25882D01*
X25962Y11249D02*
Y11489D01*
X26202D01*
Y11249D01*
X25962D01*
X26375Y8501D02*
Y8901D01*
X26775D01*
Y8501D01*
X26375D01*
X26455Y8581D02*
Y8821D01*
X26695D01*
Y8581D01*
X26455D01*
X18973Y8934D02*
Y9334D01*
X19373D01*
Y8934D01*
X18973D01*
X19053Y9014D02*
Y9254D01*
X19293D01*
Y9014D01*
X19053D01*
X21257Y5312D02*
Y5712D01*
X21657D01*
Y5312D01*
X21257D01*
X21337Y5392D02*
Y5632D01*
X21577D01*
Y5392D01*
X21337D01*
X19603Y5351D02*
Y5751D01*
X20003D01*
Y5351D01*
X19603D01*
X19683Y5431D02*
Y5671D01*
X19923D01*
Y5431D01*
X19683D01*
X18855Y9288D02*
Y9688D01*
X19255D01*
Y9288D01*
X18855D01*
X18935Y9368D02*
Y9608D01*
X19175D01*
Y9368D01*
X18935D01*
X18855Y10824D02*
Y11224D01*
X19255D01*
Y10824D01*
X18855D01*
X18935Y10904D02*
Y11144D01*
X19175D01*
Y10904D01*
X18935D01*
X18973Y6414D02*
Y6814D01*
X19373D01*
Y6414D01*
X18973D01*
X19053Y6494D02*
Y6734D01*
X19293D01*
Y6494D01*
X19053D01*
X17583Y11060D02*
Y11460D01*
X17983D01*
Y11060D01*
X17583D01*
X17663Y11140D02*
Y11380D01*
X17903D01*
Y11140D01*
X17663D01*
X18540Y7241D02*
Y7641D01*
X18940D01*
Y7241D01*
X18540D01*
X18620Y7321D02*
Y7561D01*
X18860D01*
Y7321D01*
X18620D01*
X22314Y5296D02*
Y5696D01*
X22714D01*
Y5296D01*
X22314D01*
X22394Y5376D02*
Y5616D01*
X22634D01*
Y5376D01*
X22394D01*
X17517Y8973D02*
Y9373D01*
X17917D01*
Y8973D01*
X17517D01*
X17597Y9053D02*
Y9293D01*
X17837D01*
Y9053D01*
X17597D01*
X16729Y10981D02*
Y11381D01*
X17129D01*
Y10981D01*
X16729D01*
X16809Y11061D02*
Y11301D01*
X17049D01*
Y11061D01*
X16809D01*
X17635Y15824D02*
Y16224D01*
X18035D01*
Y15824D01*
X17635D01*
X17715Y15904D02*
Y16144D01*
X17955D01*
Y15904D01*
X17715D01*
X19761Y15233D02*
Y15633D01*
X20161D01*
Y15233D01*
X19761D01*
X19841Y15313D02*
Y15553D01*
X20081D01*
Y15313D01*
X19841D01*
X23461Y11926D02*
Y12326D01*
X23861D01*
Y11926D01*
X23461D01*
X23541Y12006D02*
Y12246D01*
X23781D01*
Y12006D01*
X23541D01*
X19903Y8489D02*
Y8889D01*
X20303D01*
Y8489D01*
X19903D01*
X19983Y8569D02*
Y8809D01*
X20223D01*
Y8569D01*
X19983D01*
X17438Y8658D02*
Y9058D01*
X17838D01*
Y8658D01*
X17438D01*
X17518Y8738D02*
Y8978D01*
X17758D01*
Y8738D01*
X17518D01*
X16375Y11296D02*
Y11696D01*
X16775D01*
Y11296D01*
X16375D01*
X16455Y11376D02*
Y11616D01*
X16695D01*
Y11376D01*
X16455D01*
X17398Y16139D02*
Y16539D01*
X17798D01*
Y16139D01*
X17398D01*
X17478Y16219D02*
Y16459D01*
X17718D01*
Y16219D01*
X17478D01*
X25391Y11296D02*
Y11696D01*
X25791D01*
Y11296D01*
X25391D01*
X25471Y11376D02*
Y11616D01*
X25711D01*
Y11376D01*
X25471D01*
X22912Y13425D02*
Y13825D01*
X23312D01*
Y13425D01*
X22912D01*
X22992Y13505D02*
Y13745D01*
X23232D01*
Y13505D01*
X22992D01*
X22736Y13194D02*
Y13594D01*
X23136D01*
Y13194D01*
X22736D01*
X22816Y13274D02*
Y13514D01*
X23056D01*
Y13274D01*
X22816D01*
X19721Y15745D02*
Y16145D01*
X20121D01*
Y15745D01*
X19721D01*
X19801Y15825D02*
Y16065D01*
X20041D01*
Y15825D01*
X19801D01*
X21011Y8256D02*
Y8656D01*
X21411D01*
Y8256D01*
X21011D01*
X21091Y8336D02*
Y8576D01*
X21331D01*
Y8336D01*
X21091D01*
X16690Y8422D02*
Y8822D01*
X17090D01*
Y8422D01*
X16690D01*
X16770Y8502D02*
Y8742D01*
X17010D01*
Y8502D01*
X16770D01*
X16296Y8461D02*
Y8861D01*
X16696D01*
Y8461D01*
X16296D01*
X16376Y8541D02*
Y8781D01*
X16616D01*
Y8541D01*
X16376D01*
X15946Y11812D02*
Y12212D01*
X16346D01*
Y11812D01*
X15946D01*
X16026Y11892D02*
Y12132D01*
X16266D01*
Y11892D01*
X16026D01*
X17280Y18107D02*
Y18507D01*
X17680D01*
Y18107D01*
X17280D01*
X17360Y18187D02*
Y18427D01*
X17600D01*
Y18187D01*
X17360D01*
X20981Y8776D02*
Y9176D01*
X21381D01*
Y8776D01*
X20981D01*
X21061Y8856D02*
Y9096D01*
X21301D01*
Y8856D01*
X21061D01*
X10745Y12162D02*
Y12562D01*
X11145D01*
Y12162D01*
X10745D01*
X10825Y12242D02*
Y12482D01*
X11065D01*
Y12242D01*
X10825D01*
X13304Y8780D02*
X13504Y8980D01*
X13704Y8780D01*
X13504Y8580D01*
X13304Y8780D01*
X13501Y8583D02*
X13701Y8783D01*
X13901Y8583D01*
X13701Y8383D01*
X13501Y8583D01*
Y8780D02*
X13701Y8980D01*
X13901Y8780D01*
X13701Y8580D01*
X13501Y8780D01*
X13304Y8583D02*
X13504Y8783D01*
X13704Y8583D01*
X13504Y8383D01*
X13304Y8583D01*
X15548Y8150D02*
X15748Y8350D01*
X15948Y8150D01*
X15748Y7950D01*
X15548Y8150D01*
Y7913D02*
X15748Y8113D01*
X15948Y7913D01*
X15748Y7713D01*
X15548Y7913D01*
Y8386D02*
X15748Y8586D01*
X15948Y8386D01*
X15748Y8186D01*
X15548Y8386D01*
X29751Y16193D02*
Y16593D01*
X30151D01*
Y16193D01*
X29751D01*
X29831Y16273D02*
Y16513D01*
X30071D01*
Y16273D01*
X29831D01*
X28894Y13698D02*
Y14098D01*
X29294D01*
Y13698D01*
X28894D01*
X28974Y13778D02*
Y14018D01*
X29214D01*
Y13778D01*
X28974D01*
X29761Y16611D02*
Y17011D01*
X30161D01*
Y16611D01*
X29761D01*
X29841Y16691D02*
Y16931D01*
X30081D01*
Y16691D01*
X29841D01*
X20902Y7832D02*
Y8231D01*
X21302D01*
Y7832D01*
X20902D01*
X20982Y7911D02*
Y8152D01*
X21222D01*
Y7911D01*
X20982D01*
X15666Y12162D02*
Y12562D01*
X16066D01*
Y12162D01*
X15666D01*
X15746Y12242D02*
Y12482D01*
X15986D01*
Y12242D01*
X15746D01*
X17320Y18501D02*
Y18901D01*
X17720D01*
Y18501D01*
X17320D01*
X17400Y18581D02*
Y18821D01*
X17640D01*
Y18581D01*
X17400D01*
X21772Y12678D02*
Y13078D01*
X22172D01*
Y12678D01*
X21772D01*
X21852Y12758D02*
Y12998D01*
X22092D01*
Y12758D01*
X21852D01*
X22910Y11926D02*
Y12326D01*
X23310D01*
Y11926D01*
X22910D01*
X22990Y12006D02*
Y12246D01*
X23230D01*
Y12006D01*
X22990D01*
X21887Y12241D02*
Y12641D01*
X22287D01*
Y12241D01*
X21887D01*
X21967Y12321D02*
Y12561D01*
X22207D01*
Y12321D01*
X21967D01*
X19249Y18816D02*
Y19216D01*
X19649D01*
Y18816D01*
X19249D01*
X19329Y18896D02*
Y19136D01*
X19569D01*
Y18896D01*
X19329D01*
X19564Y18422D02*
Y18822D01*
X19964D01*
Y18422D01*
X19564D01*
X19644Y18502D02*
Y18742D01*
X19884D01*
Y18502D01*
X19644D01*
X20587Y1370D02*
Y1770D01*
X20987D01*
Y1370D01*
X20587D01*
X20667Y1450D02*
Y1690D01*
X20907D01*
Y1450D01*
X20667D01*
X20974Y10788D02*
Y11188D01*
X21374D01*
Y10788D01*
X20974D01*
X21054Y10868D02*
Y11108D01*
X21294D01*
Y10868D01*
X21054D01*
X17320Y10863D02*
Y11263D01*
X17720D01*
Y10863D01*
X17320D01*
X17400Y10943D02*
Y11183D01*
X17640D01*
Y10943D01*
X17400D01*
X20942Y10272D02*
Y10672D01*
X21342D01*
Y10272D01*
X20942D01*
X21022Y10352D02*
Y10592D01*
X21262D01*
Y10352D01*
X21022D01*
X15000Y27457D02*
Y27857D01*
X15400D01*
Y27457D01*
X15000D01*
X15079Y27537D02*
Y27777D01*
X15319D01*
Y27537D01*
X15079D01*
X15029Y29710D02*
Y30110D01*
X15429D01*
Y29710D01*
X15029D01*
X15109Y29790D02*
Y30030D01*
X15349D01*
Y29790D01*
X15109D01*
X13894Y35351D02*
Y35751D01*
X14294D01*
Y35351D01*
X13894D01*
X13974Y35431D02*
Y35671D01*
X14214D01*
Y35431D01*
X13974D01*
X14643Y27477D02*
Y27877D01*
X15043D01*
Y27477D01*
X14643D01*
X14723Y27557D02*
Y27797D01*
X14963D01*
Y27557D01*
X14723D01*
X14643Y29721D02*
Y30121D01*
X15043D01*
Y29721D01*
X14643D01*
X14723Y29801D02*
Y30041D01*
X14963D01*
Y29801D01*
X14723D01*
X13619Y35076D02*
Y35476D01*
X14019D01*
Y35076D01*
X13619D01*
X13699Y35156D02*
Y35396D01*
X13939D01*
Y35156D01*
X13699D01*
X11493Y22910D02*
Y23310D01*
X11893D01*
Y22910D01*
X11493D01*
X11573Y22990D02*
Y23230D01*
X11813D01*
Y22990D01*
X11573D01*
X7910Y23698D02*
Y24098D01*
X8310D01*
Y23698D01*
X7910D01*
X7990Y23778D02*
Y24018D01*
X8230D01*
Y23778D01*
X7990D01*
X6257Y23107D02*
Y23507D01*
X6657D01*
Y23107D01*
X6257D01*
X6337Y23187D02*
Y23427D01*
X6577D01*
Y23187D01*
X6337D01*
X7910Y23265D02*
Y23665D01*
X8310D01*
Y23265D01*
X7910D01*
X7990Y23345D02*
Y23585D01*
X8230D01*
Y23345D01*
X7990D01*
X11414Y22556D02*
Y22956D01*
X11814D01*
Y22556D01*
X11414D01*
X11494Y22636D02*
Y22876D01*
X11734D01*
Y22636D01*
X11494D01*
X9879Y22202D02*
Y22602D01*
X10279D01*
Y22202D01*
X9879D01*
X9959Y22282D02*
Y22522D01*
X10199D01*
Y22282D01*
X9959D01*
X11532Y18265D02*
Y18665D01*
X11932D01*
Y18265D01*
X11532D01*
X11612Y18345D02*
Y18585D01*
X11852D01*
Y18345D01*
X11612D01*
X8107Y17910D02*
Y18310D01*
X8507D01*
Y17910D01*
X8107D01*
X8187Y17990D02*
Y18230D01*
X8427D01*
Y17990D01*
X8187D01*
X7162Y18386D02*
X7362Y18586D01*
X7562Y18386D01*
X7362Y18186D01*
X7162Y18386D01*
X6650Y17635D02*
Y18035D01*
X7050D01*
Y17635D01*
X6650D01*
X6730Y17715D02*
Y17955D01*
X6970D01*
Y17715D01*
X6730D01*
X7978Y20323D02*
Y20723D01*
X8378D01*
Y20323D01*
X7978D01*
X8058Y20403D02*
Y20643D01*
X8298D01*
Y20403D01*
X8058D01*
X29997Y27989D02*
Y28389D01*
X30397D01*
Y27989D01*
X29997D01*
X30077Y28069D02*
Y28309D01*
X30317D01*
Y28069D01*
X30077D01*
X24328Y27950D02*
Y28350D01*
X24728D01*
Y27950D01*
X24328D01*
X24408Y28030D02*
Y28270D01*
X24648D01*
Y28030D01*
X24408D01*
X7989Y19485D02*
Y19885D01*
X8389D01*
Y19485D01*
X7989D01*
X8069Y19565D02*
Y19805D01*
X8309D01*
Y19565D01*
X8069D01*
X7950Y19957D02*
Y20357D01*
X8350D01*
Y19957D01*
X7950D01*
X8030Y20037D02*
Y20277D01*
X8270D01*
Y20037D01*
X8030D01*
X6650Y18776D02*
Y19176D01*
X7050D01*
Y18776D01*
X6650D01*
X6730Y18856D02*
Y19096D01*
X6970D01*
Y18856D01*
X6730D01*
X2300Y15530D02*
Y15930D01*
X2700D01*
Y15530D01*
X2300D01*
X2380Y15610D02*
Y15850D01*
X2620D01*
Y15610D01*
X2380D01*
X2556Y16532D02*
Y16932D01*
X2956D01*
Y16532D01*
X2556D01*
X2636Y16612D02*
Y16852D01*
X2876D01*
Y16612D01*
X2636D01*
X2123Y16729D02*
Y17129D01*
X2523D01*
Y16729D01*
X2123D01*
X2203Y16809D02*
Y17049D01*
X2443D01*
Y16809D01*
X2203D01*
X25627Y8107D02*
Y8507D01*
X26027D01*
Y8107D01*
X25627D01*
X25707Y8187D02*
Y8427D01*
X25947D01*
Y8187D01*
X25707D01*
X26060Y8068D02*
Y8468D01*
X26460D01*
Y8068D01*
X26060D01*
X26140Y8148D02*
Y8388D01*
X26380D01*
Y8148D01*
X26140D01*
X6257Y21808D02*
Y22208D01*
X6657D01*
Y21808D01*
X6257D01*
X6337Y21888D02*
Y22128D01*
X6577D01*
Y21888D01*
X6337D01*
X1965Y22083D02*
Y22483D01*
X2365D01*
Y22083D01*
X1965D01*
X2045Y22163D02*
Y22403D01*
X2285D01*
Y22163D01*
X2045D01*
X1965Y21296D02*
Y21696D01*
X2365D01*
Y21296D01*
X1965D01*
X2045Y21376D02*
Y21616D01*
X2285D01*
Y21376D01*
X2045D01*
X1965Y22477D02*
Y22877D01*
X2365D01*
Y22477D01*
X1965D01*
X2045Y22557D02*
Y22797D01*
X2285D01*
Y22557D01*
X2045D01*
X2005Y26178D02*
Y26578D01*
X2405D01*
Y26178D01*
X2005D01*
X2085Y26258D02*
Y26498D01*
X2325D01*
Y26258D01*
X2085D01*
X6020Y27083D02*
Y27483D01*
X6420D01*
Y27083D01*
X6020D01*
X6100Y27163D02*
Y27403D01*
X6340D01*
Y27163D01*
X6100D01*
X4471Y28342D02*
X4671Y28542D01*
X4871Y28342D01*
X4671Y28142D01*
X4471Y28342D01*
X4971D02*
X5171Y28542D01*
X5371Y28342D01*
X5171Y28142D01*
X4971Y28342D01*
X3580Y7126D02*
X3780Y7326D01*
X3980Y7126D01*
X3780Y6926D01*
X3580Y7126D01*
X8816Y9134D02*
X9016Y9334D01*
X9216Y9134D01*
X9016Y8934D01*
X8816Y9134D01*
X9013D02*
X9213Y9334D01*
X9413Y9134D01*
X9213Y8934D01*
X9013Y9134D01*
X9209D02*
X9409Y9334D01*
X9609Y9134D01*
X9409Y8934D01*
X9209Y9134D01*
X2005Y25784D02*
Y26184D01*
X2405D01*
Y25784D01*
X2005D01*
X2085Y25864D02*
Y26104D01*
X2325D01*
Y25864D01*
X2085D01*
X2083Y24997D02*
Y25397D01*
X2483D01*
Y24997D01*
X2083D01*
X2163Y25077D02*
Y25317D01*
X2403D01*
Y25077D01*
X2163D01*
X23894Y36139D02*
Y36539D01*
X24294D01*
Y36139D01*
X23894D01*
X23974Y36219D02*
Y36459D01*
X24214D01*
Y36219D01*
X23974D01*
X19800Y35666D02*
Y36066D01*
X20200D01*
Y35666D01*
X19800D01*
X19880Y35746D02*
Y35986D01*
X20120D01*
Y35746D01*
X19880D01*
X14682Y36217D02*
Y36617D01*
X15082D01*
Y36217D01*
X14682D01*
X14762Y36297D02*
Y36537D01*
X15002D01*
Y36297D01*
X14762D01*
X12627Y36036D02*
Y36436D01*
X13027D01*
Y36036D01*
X12627D01*
X12707Y36116D02*
Y36356D01*
X12947D01*
Y36116D01*
X12707D01*
X8265Y35351D02*
Y35751D01*
X8665D01*
Y35351D01*
X8265D01*
X8345Y35431D02*
Y35671D01*
X8585D01*
Y35431D01*
X8345D01*
X5942Y34485D02*
Y34885D01*
X6342D01*
Y34485D01*
X5942D01*
X6022Y34565D02*
Y34805D01*
X6262D01*
Y34565D01*
X6022D01*
X14923Y35789D02*
Y36189D01*
X15323D01*
Y35789D01*
X14923D01*
X15003Y35869D02*
Y36109D01*
X15243D01*
Y35869D01*
X15003D01*
X12713Y35391D02*
Y35791D01*
X13113D01*
Y35391D01*
X12713D01*
X12793Y35471D02*
Y35711D01*
X13033D01*
Y35471D01*
X12793D01*
X9209Y35197D02*
X9409Y35397D01*
X9609Y35197D01*
X9409Y34997D01*
X9209Y35197D01*
X16144Y28145D02*
X16344Y28345D01*
X16544Y28145D01*
X16344Y27945D01*
X16144Y28145D01*
X11237Y27910D02*
Y28310D01*
X11637D01*
Y27910D01*
X11237D01*
X11317Y27990D02*
Y28230D01*
X11557D01*
Y27990D01*
X11317D01*
X16644Y28145D02*
X16844Y28345D01*
X17044Y28145D01*
X16844Y27945D01*
X16644Y28145D01*
X11794Y28658D02*
Y29058D01*
X12194D01*
Y28658D01*
X11794D01*
X11874Y28738D02*
Y28978D01*
X12114D01*
Y28738D01*
X11874D01*
X17627Y28461D02*
Y28861D01*
X18027D01*
Y28461D01*
X17627D01*
X17707Y28541D02*
Y28781D01*
X17947D01*
Y28541D01*
X17707D01*
X5471Y28342D02*
X5671Y28542D01*
X5871Y28342D01*
X5671Y28142D01*
X5471Y28342D01*
X10739Y28263D02*
X10939Y28463D01*
X11139Y28263D01*
X10939Y28063D01*
X10739Y28263D01*
X10239D02*
X10439Y28463D01*
X10639Y28263D01*
X10439Y28063D01*
X10239Y28263D01*
X23206Y28304D02*
Y28704D01*
X23606D01*
Y28304D01*
X23206D01*
X23286Y28384D02*
Y28624D01*
X23526D01*
Y28384D01*
X23286D01*
X22259Y28147D02*
X22459Y28347D01*
X22659Y28147D01*
X22459Y27947D01*
X22259Y28147D01*
X21759D02*
X21959Y28347D01*
X22159Y28147D01*
X21959Y27947D01*
X21759Y28147D01*
X15548Y6732D02*
X15748Y6932D01*
X15948Y6732D01*
X15748Y6532D01*
X15548Y6732D01*
Y6969D02*
X15748Y7168D01*
X15948Y6969D01*
X15748Y6769D01*
X15548Y6969D01*
Y7205D02*
X15748Y7405D01*
X15948Y7205D01*
X15748Y7005D01*
X15548Y7205D01*
Y7441D02*
X15748Y7641D01*
X15948Y7441D01*
X15748Y7241D01*
X15548Y7441D01*
Y7677D02*
X15748Y7877D01*
X15948Y7677D01*
X15748Y7477D01*
X15548Y7677D01*
X15391Y8583D02*
X15591Y8783D01*
X15791Y8583D01*
X15591Y8383D01*
X15391Y8583D01*
X15233Y8740D02*
X15433Y8940D01*
X15633Y8740D01*
X15433Y8540D01*
X15233Y8740D01*
X15076Y8898D02*
X15276Y9098D01*
X15476Y8898D01*
X15276Y8698D01*
X15076Y8898D01*
X14918Y9094D02*
X15118Y9294D01*
X15318Y9094D01*
X15118Y8894D01*
X14918Y9094D01*
X14761Y9252D02*
X14961Y9452D01*
X15161Y9252D01*
X14961Y9052D01*
X14761Y9252D01*
X14603Y9409D02*
X14803Y9609D01*
X15003Y9409D01*
X14803Y9209D01*
X14603Y9409D01*
X14446Y9567D02*
X14646Y9767D01*
X14846Y9567D01*
X14646Y9367D01*
X14446Y9567D01*
X11178Y9134D02*
X11378Y9334D01*
X11578Y9134D01*
X11378Y8934D01*
X11178Y9134D01*
X9406D02*
X9606Y9334D01*
X9806Y9134D01*
X9606Y8934D01*
X9406Y9134D01*
X9603D02*
X9803Y9334D01*
X10003Y9134D01*
X9803Y8934D01*
X9603Y9134D01*
X9800D02*
X10000Y9334D01*
X10200Y9134D01*
X10000Y8934D01*
X9800Y9134D01*
X9997D02*
X10197Y9334D01*
X10397Y9134D01*
X10197Y8934D01*
X9997Y9134D01*
X10194D02*
X10394Y9334D01*
X10594Y9134D01*
X10394Y8934D01*
X10194Y9134D01*
X10391D02*
X10591Y9334D01*
X10791Y9134D01*
X10591Y8934D01*
X10391Y9134D01*
X10587D02*
X10787Y9334D01*
X10987Y9134D01*
X10787Y8934D01*
X10587Y9134D01*
X10784D02*
X10984Y9334D01*
X11184Y9134D01*
X10984Y8934D01*
X10784Y9134D01*
X10981D02*
X11181Y9334D01*
X11381Y9134D01*
X11181Y8934D01*
X10981Y9134D01*
X28737Y14013D02*
Y14413D01*
X29137D01*
Y14013D01*
X28737D01*
X28817Y14093D02*
Y14333D01*
X29057D01*
Y14093D01*
X28817D01*
X28343Y14209D02*
Y14609D01*
X28743D01*
Y14209D01*
X28343D01*
X28423Y14289D02*
Y14529D01*
X28663D01*
Y14289D01*
X28423D01*
X14603Y4291D02*
X14803Y4491D01*
X15003Y4291D01*
X14803Y4091D01*
X14603Y4291D01*
X21139Y4294D02*
Y4694D01*
X21539D01*
Y4294D01*
X21139D01*
X21219Y4374D02*
Y4614D01*
X21459D01*
Y4374D01*
X21219D01*
X22708Y3027D02*
Y3427D01*
X23108D01*
Y3027D01*
X22708D01*
X22788Y3107D02*
Y3347D01*
X23028D01*
Y3107D01*
X22788D01*
X27871Y3146D02*
Y3546D01*
X28271D01*
Y3146D01*
X27871D01*
X27951Y3226D02*
Y3466D01*
X28191D01*
Y3226D01*
X27951D01*
X11965Y1178D02*
Y1578D01*
X12365D01*
Y1178D01*
X11965D01*
X12045Y1258D02*
Y1498D01*
X12285D01*
Y1258D01*
X12045D01*
X13698Y8780D02*
X13898Y8980D01*
X14098Y8780D01*
X13898Y8580D01*
X13698Y8780D01*
Y8583D02*
X13898Y8783D01*
X14098Y8583D01*
X13898Y8383D01*
X13698Y8583D01*
X11611Y9252D02*
X11811Y9452D01*
X12011Y9252D01*
X11811Y9052D01*
X11611Y9252D01*
X11808D02*
X12008Y9452D01*
X12208Y9252D01*
X12008Y9052D01*
X11808Y9252D01*
X11611Y8661D02*
X11811Y8861D01*
X12011Y8661D01*
X11811Y8461D01*
X11611Y8661D01*
Y8858D02*
X11811Y9058D01*
X12011Y8858D01*
X11811Y8658D01*
X11611Y8858D01*
Y9055D02*
X11811Y9255D01*
X12011Y9055D01*
X11811Y8855D01*
X11611Y9055D01*
X11808D02*
X12008Y9255D01*
X12208Y9055D01*
X12008Y8855D01*
X11808Y9055D01*
Y8858D02*
X12008Y9058D01*
X12208Y8858D01*
X12008Y8658D01*
X11808Y8858D01*
Y8661D02*
X12008Y8861D01*
X12208Y8661D01*
X12008Y8461D01*
X11808Y8661D01*
X14603Y4488D02*
X14803Y4688D01*
X15003Y4488D01*
X14803Y4288D01*
X14603Y4488D01*
Y4685D02*
X14803Y4885D01*
X15003Y4685D01*
X14803Y4485D01*
X14603Y4685D01*
Y4882D02*
X14803Y5082D01*
X15003Y4882D01*
X14803Y4682D01*
X14603Y4882D01*
Y5079D02*
X14803Y5279D01*
X15003Y5079D01*
X14803Y4879D01*
X14603Y5079D01*
Y5276D02*
X14803Y5476D01*
X15003Y5276D01*
X14803Y5076D01*
X14603Y5276D01*
Y5472D02*
X14803Y5672D01*
X15003Y5472D01*
X14803Y5272D01*
X14603Y5472D01*
Y5669D02*
X14803Y5869D01*
X15003Y5669D01*
X14803Y5469D01*
X14603Y5669D01*
Y5866D02*
X14803Y6066D01*
X15003Y5866D01*
X14803Y5666D01*
X14603Y5866D01*
Y6063D02*
X14803Y6263D01*
X15003Y6063D01*
X14803Y5863D01*
X14603Y6063D01*
Y6260D02*
X14803Y6460D01*
X15003Y6260D01*
X14803Y6060D01*
X14603Y6260D01*
Y6457D02*
X14803Y6657D01*
X15003Y6457D01*
X14803Y6257D01*
X14603Y6457D01*
X14406D02*
X14606Y6657D01*
X14806Y6457D01*
X14606Y6257D01*
X14406Y6457D01*
Y6260D02*
X14606Y6460D01*
X14806Y6260D01*
X14606Y6060D01*
X14406Y6260D01*
Y6063D02*
X14606Y6263D01*
X14806Y6063D01*
X14606Y5863D01*
X14406Y6063D01*
Y5866D02*
X14606Y6066D01*
X14806Y5866D01*
X14606Y5666D01*
X14406Y5866D01*
Y5669D02*
X14606Y5869D01*
X14806Y5669D01*
X14606Y5469D01*
X14406Y5669D01*
Y5472D02*
X14606Y5672D01*
X14806Y5472D01*
X14606Y5272D01*
X14406Y5472D01*
Y5276D02*
X14606Y5476D01*
X14806Y5276D01*
X14606Y5076D01*
X14406Y5276D01*
Y5079D02*
X14606Y5279D01*
X14806Y5079D01*
X14606Y4879D01*
X14406Y5079D01*
Y4882D02*
X14606Y5082D01*
X14806Y4882D01*
X14606Y4682D01*
X14406Y4882D01*
Y4685D02*
X14606Y4885D01*
X14806Y4685D01*
X14606Y4485D01*
X14406Y4685D01*
Y4488D02*
X14606Y4688D01*
X14806Y4488D01*
X14606Y4288D01*
X14406Y4488D01*
Y4291D02*
X14606Y4491D01*
X14806Y4291D01*
X14606Y4091D01*
X14406Y4291D01*
X10784Y6811D02*
X10984Y7011D01*
X11184Y6811D01*
X10984Y6611D01*
X10784Y6811D01*
Y6614D02*
X10984Y6814D01*
X11184Y6614D01*
X10984Y6414D01*
X10784Y6614D01*
X10587Y5039D02*
X10787Y5239D01*
X10987Y5039D01*
X10787Y4839D01*
X10587Y5039D01*
Y5236D02*
X10787Y5436D01*
X10987Y5236D01*
X10787Y5036D01*
X10587Y5236D01*
Y5433D02*
X10787Y5633D01*
X10987Y5433D01*
X10787Y5233D01*
X10587Y5433D01*
Y5630D02*
X10787Y5830D01*
X10987Y5630D01*
X10787Y5430D01*
X10587Y5630D01*
Y5827D02*
X10787Y6027D01*
X10987Y5827D01*
X10787Y5627D01*
X10587Y5827D01*
Y6024D02*
X10787Y6224D01*
X10987Y6024D01*
X10787Y5824D01*
X10587Y6024D01*
Y6220D02*
X10787Y6420D01*
X10987Y6220D01*
X10787Y6020D01*
X10587Y6220D01*
X10784Y6417D02*
X10984Y6617D01*
X11184Y6417D01*
X10984Y6217D01*
X10784Y6417D01*
Y6220D02*
X10984Y6420D01*
X11184Y6220D01*
X10984Y6020D01*
X10784Y6220D01*
Y6024D02*
X10984Y6224D01*
X11184Y6024D01*
X10984Y5824D01*
X10784Y6024D01*
Y5827D02*
X10984Y6027D01*
X11184Y5827D01*
X10984Y5627D01*
X10784Y5827D01*
Y5630D02*
X10984Y5830D01*
X11184Y5630D01*
X10984Y5430D01*
X10784Y5630D01*
Y5433D02*
X10984Y5633D01*
X11184Y5433D01*
X10984Y5233D01*
X10784Y5433D01*
Y5236D02*
X10984Y5436D01*
X11184Y5236D01*
X10984Y5036D01*
X10784Y5236D01*
Y5039D02*
X10984Y5239D01*
X11184Y5039D01*
X10984Y4839D01*
X10784Y5039D01*
Y4843D02*
X10984Y5043D01*
X11184Y4843D01*
X10984Y4643D01*
X10784Y4843D01*
X10587D02*
X10787Y5043D01*
X10987Y4843D01*
X10787Y4643D01*
X10587Y4843D01*
X20036Y10936D02*
Y11336D01*
X20436D01*
Y10936D01*
X20036D01*
X20116Y11016D02*
Y11256D01*
X20356D01*
Y11016D01*
X20116D01*
X31257Y24052D02*
Y24452D01*
X31657D01*
Y24052D01*
X31257D01*
X31337Y24132D02*
Y24372D01*
X31577D01*
Y24132D01*
X31337D01*
X30824Y24131D02*
Y24531D01*
X31224D01*
Y24131D01*
X30824D01*
X30904Y24211D02*
Y24451D01*
X31144D01*
Y24211D01*
X30904D01*
X30863Y26650D02*
Y27050D01*
X31263D01*
Y26650D01*
X30863D01*
X30943Y26730D02*
Y26970D01*
X31183D01*
Y26730D01*
X30943D01*
X30509Y26296D02*
Y26696D01*
X30909D01*
Y26296D01*
X30509D01*
X30589Y26376D02*
Y26616D01*
X30829D01*
Y26376D01*
X30589D01*
X28784Y33613D02*
Y34013D01*
X29184D01*
Y33613D01*
X28784D01*
X28864Y33693D02*
Y33933D01*
X29104D01*
Y33693D01*
X28864D01*
X28501Y31650D02*
Y32050D01*
X28901D01*
Y31650D01*
X28501D01*
X28581Y31730D02*
Y31970D01*
X28821D01*
Y31730D01*
X28581D01*
X33658Y26965D02*
Y27365D01*
X34058D01*
Y26965D01*
X33658D01*
X33738Y27045D02*
Y27285D01*
X33978D01*
Y27045D01*
X33738D01*
X33540Y26296D02*
Y26696D01*
X33940D01*
Y26296D01*
X33540D01*
X33620Y26376D02*
Y26616D01*
X33860D01*
Y26376D01*
X33620D01*
X33619Y27874D02*
X33819Y28074D01*
X34019Y27874D01*
X33819Y27674D01*
X33619Y27874D01*
X35391Y6772D02*
X35591Y6972D01*
X35791Y6772D01*
X35591Y6572D01*
X35391Y6772D01*
X32635Y32126D02*
X32835Y32326D01*
X33035Y32126D01*
X32835Y31926D01*
X32635Y32126D01*
X24564Y10039D02*
X24764Y10239D01*
X24964Y10039D01*
X24764Y9839D01*
X24564Y10039D01*
X23973Y9409D02*
X24173Y9609D01*
X24373Y9409D01*
X24173Y9209D01*
X23973Y9409D01*
X24524Y8858D02*
X24724Y9058D01*
X24924Y8858D01*
X24724Y8658D01*
X24524Y8858D01*
X23973D02*
X24173Y9058D01*
X24373Y8858D01*
X24173Y8658D01*
X23973Y8858D01*
X23422Y9449D02*
X23622Y9649D01*
X23822Y9449D01*
X23622Y9249D01*
X23422Y9449D01*
Y10000D02*
X23622Y10200D01*
X23822Y10000D01*
X23622Y9800D01*
X23422Y10000D01*
X28068Y14446D02*
Y14846D01*
X28468D01*
Y14446D01*
X28068D01*
X28148Y14526D02*
Y14766D01*
X28388D01*
Y14526D01*
X28148D01*
X21119Y6288D02*
Y6688D01*
X21519D01*
Y6288D01*
X21119D01*
X21199Y6368D02*
Y6608D01*
X21439D01*
Y6368D01*
X21199D01*
X22162Y6414D02*
Y6814D01*
X22562D01*
Y6414D01*
X22162D01*
X22242Y6494D02*
Y6734D01*
X22482D01*
Y6494D01*
X22242D01*
X23383Y7989D02*
Y8389D01*
X23783D01*
Y7989D01*
X23383D01*
X23463Y8069D02*
Y8309D01*
X23703D01*
Y8069D01*
X23463D01*
X22831Y7950D02*
Y8350D01*
X23231D01*
Y7950D01*
X22831D01*
X22912Y8030D02*
Y8270D01*
X23152D01*
Y8030D01*
X22912D01*
X19721Y1370D02*
Y1770D01*
X20121D01*
Y1370D01*
X19721D01*
X19801Y1450D02*
Y1690D01*
X20041D01*
Y1450D01*
X19801D01*
X18894Y1370D02*
Y1770D01*
X19294D01*
Y1370D01*
X18894D01*
X18974Y1450D02*
Y1690D01*
X19214D01*
Y1450D01*
X18974D01*
X12753Y9252D02*
X12953Y9452D01*
X13153Y9252D01*
X12953Y9052D01*
X12753Y9252D01*
D156*
X22798Y19386D02*
G03*
X22798Y19386I-200J0D01*
G01*
Y17402D02*
G03*
X22798Y17402I-200J0D01*
G01*
Y18386D02*
G03*
X22798Y18386I-200J0D01*
G01*
Y21354D02*
G03*
X22798Y21354I-200J0D01*
G01*
Y20354D02*
G03*
X22798Y20354I-200J0D01*
G01*
X23940Y19386D02*
G03*
X23940Y19386I-200J0D01*
G01*
Y17402D02*
G03*
X23940Y17402I-200J0D01*
G01*
Y18386D02*
G03*
X23940Y18386I-200J0D01*
G01*
Y21354D02*
G03*
X23940Y21354I-200J0D01*
G01*
Y20354D02*
G03*
X23940Y20354I-200J0D01*
G01*
X25082Y19386D02*
G03*
X25082Y19386I-200J0D01*
G01*
Y17402D02*
G03*
X25082Y17402I-200J0D01*
G01*
Y18386D02*
G03*
X25082Y18386I-200J0D01*
G01*
Y21354D02*
G03*
X25082Y21354I-200J0D01*
G01*
Y20354D02*
G03*
X25082Y20354I-200J0D01*
G01*
X26224Y19386D02*
G03*
X26224Y19386I-200J0D01*
G01*
Y17402D02*
G03*
X26224Y17402I-200J0D01*
G01*
Y18386D02*
G03*
X26224Y18386I-200J0D01*
G01*
Y21354D02*
G03*
X26224Y21354I-200J0D01*
G01*
Y20354D02*
G03*
X26224Y20354I-200J0D01*
G01*
X36578Y16732D02*
G03*
X36578Y16732I-200J0D01*
G01*
Y14764D02*
G03*
X36578Y14764I-200J0D01*
G01*
Y15764D02*
G03*
X36578Y15764I-200J0D01*
G01*
Y17764D02*
G03*
X36578Y17764I-200J0D01*
G01*
X34688Y16728D02*
G03*
X34688Y16728I-200J0D01*
G01*
Y14760D02*
G03*
X34688Y14760I-200J0D01*
G01*
Y15760D02*
G03*
X34688Y15760I-200J0D01*
G01*
Y17760D02*
G03*
X34688Y17760I-200J0D01*
G01*
X36578Y11520D02*
G03*
X36578Y11520I-200J0D01*
G01*
Y9551D02*
G03*
X36578Y9551I-200J0D01*
G01*
Y10551D02*
G03*
X36578Y10551I-200J0D01*
G01*
Y12551D02*
G03*
X36578Y12551I-200J0D01*
G01*
X34649Y11520D02*
G03*
X34649Y11520I-200J0D01*
G01*
Y9551D02*
G03*
X34649Y9551I-200J0D01*
G01*
Y10551D02*
G03*
X34649Y10551I-200J0D01*
G01*
Y12551D02*
G03*
X34649Y12551I-200J0D01*
G01*
%TF.MD5,5b0f28ceacd721326b73e1c38845747c*%
M02*
